<svg width="245" height="79" viewBox="0 0 245 79" fill="none" xmlns="http://www.w3.org/2000/svg">
<rect width="245" height="79" rx="12" fill="white"/>
<path d="M22.544 30.24C21.9627 30.24 21.416 30.12 20.904 29.88C20.3973 29.64 19.96 29.3067 19.592 28.88C19.224 28.4533 18.96 27.9573 18.8 27.392L20.896 26.832C20.9653 27.104 21.088 27.3387 21.264 27.536C21.4453 27.7333 21.6533 27.888 21.888 28C22.128 28.1067 22.3733 28.16 22.624 28.16C22.9547 28.16 23.256 28.08 23.528 27.92C23.8053 27.76 24.024 27.544 24.184 27.272C24.3493 27 24.432 26.6987 24.432 26.368C24.432 26.0373 24.3493 25.736 24.184 25.464C24.024 25.192 23.8053 24.976 23.528 24.816C23.256 24.656 22.9547 24.576 22.624 24.576C22.2187 24.576 21.888 24.6453 21.632 24.784C21.376 24.9173 21.184 25.0453 21.056 25.168L19.216 24.608L19.568 18.48H25.856V20.512H20.768L21.536 19.792L21.296 23.744L20.928 23.296C21.216 23.0613 21.544 22.8907 21.912 22.784C22.28 22.6773 22.624 22.624 22.944 22.624C23.6693 22.624 24.3067 22.7867 24.856 23.112C25.4107 23.432 25.8427 23.8747 26.152 24.44C26.4667 25 26.624 25.6427 26.624 26.368C26.624 27.0933 26.4347 27.7493 26.056 28.336C25.6773 28.9173 25.1787 29.3813 24.56 29.728C23.9413 30.0693 23.2693 30.24 22.544 30.24ZM32.8139 30.24C31.9605 30.24 31.2139 30.0613 30.5739 29.704C29.9339 29.3467 29.4352 28.848 29.0779 28.208C28.7205 27.568 28.5419 26.8213 28.5419 25.968V22.512C28.5419 21.6587 28.7205 20.912 29.0779 20.272C29.4352 19.632 29.9339 19.1333 30.5739 18.776C31.2139 18.4187 31.9605 18.24 32.8139 18.24C33.6672 18.24 34.4139 18.4187 35.0539 18.776C35.6939 19.1333 36.1925 19.632 36.5499 20.272C36.9072 20.912 37.0859 21.6587 37.0859 22.512V25.968C37.0859 26.8213 36.9072 27.568 36.5499 28.208C36.1925 28.848 35.6939 29.3467 35.0539 29.704C34.4139 30.0613 33.6672 30.24 32.8139 30.24ZM32.8139 28.176C33.1979 28.176 33.5445 28.0853 33.8539 27.904C34.1632 27.7227 34.4085 27.4773 34.5899 27.168C34.7712 26.8587 34.8619 26.512 34.8619 26.128V22.336C34.8619 21.952 34.7712 21.6053 34.5899 21.296C34.4085 20.9867 34.1632 20.7413 33.8539 20.56C33.5445 20.3787 33.1979 20.288 32.8139 20.288C32.4299 20.288 32.0832 20.3787 31.7739 20.56C31.4645 20.7413 31.2192 20.9867 31.0379 21.296C30.8565 21.6053 30.7659 21.952 30.7659 22.336V26.128C30.7659 26.512 30.8565 26.8587 31.0379 27.168C31.2192 27.4773 31.4645 27.7227 31.7739 27.904C32.0832 28.0853 32.4299 28.176 32.8139 28.176ZM43.5951 30.24C42.7418 30.24 41.9951 30.0613 41.3551 29.704C40.7151 29.3467 40.2165 28.848 39.8591 28.208C39.5018 27.568 39.3231 26.8213 39.3231 25.968V22.512C39.3231 21.6587 39.5018 20.912 39.8591 20.272C40.2165 19.632 40.7151 19.1333 41.3551 18.776C41.9951 18.4187 42.7418 18.24 43.5951 18.24C44.4485 18.24 45.1951 18.4187 45.8351 18.776C46.4751 19.1333 46.9738 19.632 47.3311 20.272C47.6885 20.912 47.8671 21.6587 47.8671 22.512V25.968C47.8671 26.8213 47.6885 27.568 47.3311 28.208C46.9738 28.848 46.4751 29.3467 45.8351 29.704C45.1951 30.0613 44.4485 30.24 43.5951 30.24ZM43.5951 28.176C43.9791 28.176 44.3258 28.0853 44.6351 27.904C44.9445 27.7227 45.1898 27.4773 45.3711 27.168C45.5525 26.8587 45.6431 26.512 45.6431 26.128V22.336C45.6431 21.952 45.5525 21.6053 45.3711 21.296C45.1898 20.9867 44.9445 20.7413 44.6351 20.56C44.3258 20.3787 43.9791 20.288 43.5951 20.288C43.2111 20.288 42.8645 20.3787 42.5551 20.56C42.2458 20.7413 42.0005 20.9867 41.8191 21.296C41.6378 21.6053 41.5471 21.952 41.5471 22.336V26.128C41.5471 26.512 41.6378 26.8587 41.8191 27.168C42.0005 27.4773 42.2458 27.7227 42.5551 27.904C42.8645 28.0853 43.2111 28.176 43.5951 28.176ZM50.1044 30V18.48H52.2804V23.792L56.6644 18.48H59.3204L54.5044 24.16L59.6244 30H56.8724L52.2804 24.752V30H50.1044ZM63.353 27.84V25.072H60.585V23.392H63.353V20.64H65.033V23.392H67.785V25.072H65.033V27.84H63.353Z" fill="#C16F5A"/>
<path d="M18.77 47V39.08H22.0425C22.1195 39.08 22.2185 39.0837 22.3395 39.091C22.4605 39.0947 22.5723 39.1057 22.675 39.124C23.1333 39.1937 23.511 39.3458 23.808 39.5805C24.1087 39.8152 24.3305 40.1122 24.4735 40.4715C24.6202 40.8272 24.6935 41.2232 24.6935 41.6595C24.6935 42.0922 24.6202 42.4882 24.4735 42.8475C24.3268 43.2032 24.1032 43.4983 23.8025 43.733C23.5055 43.9677 23.1297 44.1198 22.675 44.1895C22.5723 44.2042 22.4587 44.2152 22.334 44.2225C22.213 44.2298 22.1158 44.2335 22.0425 44.2335H20.0955V47H18.77ZM20.0955 42.996H21.9875C22.0608 42.996 22.1433 42.9923 22.235 42.985C22.3267 42.9777 22.411 42.963 22.488 42.941C22.708 42.886 22.8803 42.7888 23.005 42.6495C23.1333 42.5102 23.2232 42.3525 23.2745 42.1765C23.3295 42.0005 23.357 41.8282 23.357 41.6595C23.357 41.4908 23.3295 41.3185 23.2745 41.1425C23.2232 40.9628 23.1333 40.8033 23.005 40.664C22.8803 40.5247 22.708 40.4275 22.488 40.3725C22.411 40.3505 22.3267 40.3377 22.235 40.334C22.1433 40.3267 22.0608 40.323 21.9875 40.323H20.0955V42.996ZM28.3992 47.165C27.7979 47.165 27.2699 47.0348 26.8152 46.7745C26.3605 46.5142 26.0049 46.153 25.7482 45.691C25.4952 45.229 25.3687 44.6973 25.3687 44.096C25.3687 43.447 25.4934 42.8842 25.7427 42.4075C25.992 41.9272 26.3385 41.555 26.7822 41.291C27.2259 41.027 27.7392 40.895 28.3222 40.895C28.9382 40.895 29.4607 41.0398 29.8897 41.3295C30.3224 41.6155 30.6432 42.0207 30.8522 42.545C31.0612 43.0693 31.14 43.6872 31.0887 44.3985H29.7742V43.9145C29.7705 43.2692 29.6569 42.798 29.4332 42.501C29.2095 42.204 28.8575 42.0555 28.3772 42.0555C27.8345 42.0555 27.4312 42.2242 27.1672 42.5615C26.9032 42.8952 26.7712 43.3847 26.7712 44.03C26.7712 44.6313 26.9032 45.097 27.1672 45.427C27.4312 45.757 27.8162 45.922 28.3222 45.922C28.6485 45.922 28.929 45.8505 29.1637 45.7075C29.402 45.5608 29.5854 45.35 29.7137 45.075L31.0227 45.471C30.7954 46.0063 30.4434 46.4225 29.9667 46.7195C29.4937 47.0165 28.9712 47.165 28.3992 47.165ZM26.3532 44.3985V43.3975H30.4397V44.3985H26.3532ZM36.2633 47V44.14C36.2633 43.953 36.2504 43.7458 36.2248 43.5185C36.1991 43.2912 36.1386 43.073 36.0433 42.864C35.9516 42.6513 35.8123 42.4772 35.6253 42.3415C35.4419 42.2058 35.1926 42.138 34.8773 42.138C34.7086 42.138 34.5418 42.1655 34.3768 42.2205C34.2118 42.2755 34.0614 42.3708 33.9258 42.5065C33.7938 42.6385 33.6874 42.8218 33.6068 43.0565C33.5261 43.2875 33.4858 43.5845 33.4858 43.9475L32.6993 43.612C32.6993 43.106 32.7964 42.6477 32.9908 42.237C33.1888 41.8263 33.4784 41.5 33.8598 41.258C34.2411 41.0123 34.7104 40.8895 35.2678 40.8895C35.7078 40.8895 36.0708 40.9628 36.3568 41.1095C36.6428 41.2562 36.8701 41.4432 37.0388 41.6705C37.2074 41.8978 37.3321 42.1398 37.4128 42.3965C37.4934 42.6532 37.5448 42.897 37.5668 43.128C37.5924 43.3553 37.6053 43.5405 37.6053 43.6835V47H36.2633ZM32.1438 47V41.06H33.3263V42.9025H33.4858V47H32.1438ZM41.5375 49.805C41.2075 49.805 40.8903 49.7537 40.586 49.651C40.2853 49.5483 40.014 49.3998 39.772 49.2055C39.53 49.0148 39.332 48.7838 39.178 48.5125L40.399 47.9075C40.5127 48.1238 40.6722 48.2833 40.8775 48.386C41.0865 48.4923 41.3083 48.5455 41.543 48.5455C41.818 48.5455 42.0637 48.496 42.28 48.397C42.4963 48.3017 42.6632 48.1587 42.7805 47.968C42.9015 47.781 42.9583 47.5463 42.951 47.264V45.5755H43.116V41.06H44.2765V47.286C44.2765 47.4363 44.2692 47.5793 44.2545 47.715C44.2435 47.8543 44.2233 47.99 44.194 48.122C44.106 48.507 43.9373 48.8223 43.688 49.068C43.4387 49.3173 43.1288 49.5025 42.7585 49.6235C42.3918 49.7445 41.9848 49.805 41.5375 49.805ZM41.422 47.165C40.8757 47.165 40.399 47.0275 39.992 46.7525C39.585 46.4775 39.2697 46.1035 39.046 45.6305C38.8223 45.1575 38.7105 44.624 38.7105 44.03C38.7105 43.4287 38.8223 42.8933 39.046 42.424C39.2733 41.951 39.5942 41.5788 40.0085 41.3075C40.4228 41.0325 40.9105 40.895 41.4715 40.895C42.0362 40.895 42.5092 41.0325 42.8905 41.3075C43.2755 41.5788 43.567 41.951 43.765 42.424C43.963 42.897 44.062 43.4323 44.062 44.03C44.062 44.6203 43.963 45.1538 43.765 45.6305C43.567 46.1035 43.2718 46.4775 42.8795 46.7525C42.4872 47.0275 42.0013 47.165 41.422 47.165ZM41.6255 45.977C41.9812 45.977 42.2672 45.8963 42.4835 45.735C42.7035 45.57 42.863 45.3408 42.962 45.0475C43.0647 44.7542 43.116 44.415 43.116 44.03C43.116 43.6413 43.0647 43.3022 42.962 43.0125C42.863 42.7192 42.7072 42.4918 42.4945 42.3305C42.2818 42.1655 42.0068 42.083 41.6695 42.083C41.3138 42.083 41.0205 42.171 40.7895 42.347C40.5585 42.5193 40.388 42.754 40.278 43.051C40.168 43.3443 40.113 43.6707 40.113 44.03C40.113 44.393 40.1662 44.723 40.2725 45.02C40.3825 45.3133 40.5493 45.5462 40.773 45.7185C40.9967 45.8908 41.2808 45.977 41.6255 45.977ZM48.3158 49.805C47.9858 49.805 47.6687 49.7537 47.3643 49.651C47.0637 49.5483 46.7923 49.3998 46.5503 49.2055C46.3083 49.0148 46.1103 48.7838 45.9563 48.5125L47.1773 47.9075C47.291 48.1238 47.4505 48.2833 47.6558 48.386C47.8648 48.4923 48.0867 48.5455 48.3213 48.5455C48.5963 48.5455 48.842 48.496 49.0583 48.397C49.2747 48.3017 49.4415 48.1587 49.5588 47.968C49.6798 47.781 49.7367 47.5463 49.7293 47.264V45.5755H49.8943V41.06H51.0548V47.286C51.0548 47.4363 51.0475 47.5793 51.0328 47.715C51.0218 47.8543 51.0017 47.99 50.9723 48.122C50.8843 48.507 50.7157 48.8223 50.4663 49.068C50.217 49.3173 49.9072 49.5025 49.5368 49.6235C49.1702 49.7445 48.7632 49.805 48.3158 49.805ZM48.2003 47.165C47.654 47.165 47.1773 47.0275 46.7703 46.7525C46.3633 46.4775 46.048 46.1035 45.8243 45.6305C45.6007 45.1575 45.4888 44.624 45.4888 44.03C45.4888 43.4287 45.6007 42.8933 45.8243 42.424C46.0517 41.951 46.3725 41.5788 46.7868 41.3075C47.2012 41.0325 47.6888 40.895 48.2498 40.895C48.8145 40.895 49.2875 41.0325 49.6688 41.3075C50.0538 41.5788 50.3453 41.951 50.5433 42.424C50.7413 42.897 50.8403 43.4323 50.8403 44.03C50.8403 44.6203 50.7413 45.1538 50.5433 45.6305C50.3453 46.1035 50.0502 46.4775 49.6578 46.7525C49.2655 47.0275 48.7797 47.165 48.2003 47.165ZM48.4038 45.977C48.7595 45.977 49.0455 45.8963 49.2618 45.735C49.4818 45.57 49.6413 45.3408 49.7403 45.0475C49.843 44.7542 49.8943 44.415 49.8943 44.03C49.8943 43.6413 49.843 43.3022 49.7403 43.0125C49.6413 42.7192 49.4855 42.4918 49.2728 42.3305C49.0602 42.1655 48.7852 42.083 48.4478 42.083C48.0922 42.083 47.7988 42.171 47.5678 42.347C47.3368 42.5193 47.1663 42.754 47.0563 43.051C46.9463 43.3443 46.8913 43.6707 46.8913 44.03C46.8913 44.393 46.9445 44.723 47.0508 45.02C47.1608 45.3133 47.3277 45.5462 47.5513 45.7185C47.775 45.8908 48.0592 45.977 48.4038 45.977ZM54.8246 47.1705C54.3846 47.1705 54.0216 47.0972 53.7356 46.9505C53.4496 46.8038 53.2223 46.6168 53.0536 46.3895C52.885 46.1622 52.7603 45.9202 52.6796 45.6635C52.599 45.4068 52.5458 45.1648 52.5201 44.9375C52.4981 44.7065 52.4871 44.5195 52.4871 44.3765V41.06H53.8291V43.92C53.8291 44.1033 53.842 44.3105 53.8676 44.5415C53.8933 44.7688 53.952 44.9888 54.0436 45.2015C54.139 45.4105 54.2783 45.5828 54.4616 45.7185C54.6486 45.8542 54.8998 45.922 55.2151 45.922C55.3838 45.922 55.5506 45.8945 55.7156 45.8395C55.8806 45.7845 56.0291 45.691 56.1611 45.559C56.2968 45.4233 56.405 45.2382 56.4856 45.0035C56.5663 44.7688 56.6066 44.4718 56.6066 44.1125L57.3931 44.448C57.3931 44.954 57.2941 45.4123 57.0961 45.823C56.9018 46.2337 56.614 46.5618 56.2326 46.8075C55.8513 47.0495 55.382 47.1705 54.8246 47.1705ZM56.7661 47V45.1575H56.6066V41.06H57.9376V47H56.7661ZM63.5914 47V44.14C63.5914 43.953 63.5786 43.7458 63.5529 43.5185C63.5272 43.2912 63.4667 43.073 63.3714 42.864C63.2797 42.6513 63.1404 42.4772 62.9534 42.3415C62.7701 42.2058 62.5207 42.138 62.2054 42.138C62.0367 42.138 61.8699 42.1655 61.7049 42.2205C61.5399 42.2755 61.3896 42.3708 61.2539 42.5065C61.1219 42.6385 61.0156 42.8218 60.9349 43.0565C60.8542 43.2875 60.8139 43.5845 60.8139 43.9475L60.0274 43.612C60.0274 43.106 60.1246 42.6477 60.3189 42.237C60.5169 41.8263 60.8066 41.5 61.1879 41.258C61.5692 41.0123 62.0386 40.8895 62.5959 40.8895C63.0359 40.8895 63.3989 40.9628 63.6849 41.1095C63.9709 41.2562 64.1982 41.4432 64.3669 41.6705C64.5356 41.8978 64.6602 42.1398 64.7409 42.3965C64.8216 42.6532 64.8729 42.897 64.8949 43.128C64.9206 43.3553 64.9334 43.5405 64.9334 43.6835V47H63.5914ZM59.4719 47V41.06H60.6544V42.9025H60.8139V47H59.4719ZM68.0296 47.165C67.6006 47.165 67.2376 47.0843 66.9406 46.923C66.6436 46.758 66.4181 46.5398 66.2641 46.2685C66.1138 45.9972 66.0386 45.6983 66.0386 45.372C66.0386 45.086 66.0863 44.8293 66.1816 44.602C66.277 44.371 66.4236 44.173 66.6216 44.008C66.8196 43.8393 67.0763 43.7018 67.3916 43.5955C67.63 43.5185 67.9086 43.4488 68.2276 43.3865C68.5503 43.3242 68.8986 43.2673 69.2726 43.216C69.6503 43.161 70.0445 43.1023 70.4551 43.04L69.9821 43.3095C69.9858 42.8988 69.8941 42.5963 69.7071 42.402C69.5201 42.2077 69.2048 42.1105 68.7611 42.1105C68.4935 42.1105 68.235 42.1728 67.9856 42.2975C67.7363 42.4222 67.5621 42.6367 67.4631 42.941L66.2531 42.5615C66.3998 42.0592 66.6785 41.6558 67.0891 41.3515C67.5035 41.0472 68.0608 40.895 68.7611 40.895C69.2891 40.895 69.753 40.9812 70.1526 41.1535C70.556 41.3258 70.8548 41.6082 71.0491 42.0005C71.1555 42.2095 71.2196 42.424 71.2416 42.644C71.2636 42.8603 71.2746 43.0968 71.2746 43.3535V47H70.1141V45.713L70.3066 45.922C70.039 46.351 69.7255 46.6663 69.3661 46.868C69.0105 47.066 68.565 47.165 68.0296 47.165ZM68.2936 46.109C68.5943 46.109 68.851 46.0558 69.0636 45.9495C69.2763 45.8432 69.445 45.713 69.5696 45.559C69.698 45.405 69.7841 45.2602 69.8281 45.1245C69.8978 44.9558 69.9363 44.7633 69.9436 44.547C69.9546 44.327 69.9601 44.1492 69.9601 44.0135L70.3671 44.1345C69.9675 44.1968 69.6246 44.2518 69.3386 44.2995C69.0526 44.3472 68.807 44.393 68.6016 44.437C68.3963 44.4773 68.2148 44.5232 68.0571 44.5745C67.9031 44.6295 67.773 44.6937 67.6666 44.767C67.5603 44.8403 67.4778 44.9247 67.4191 45.02C67.3641 45.1153 67.3366 45.2272 67.3366 45.3555C67.3366 45.5022 67.3733 45.6323 67.4466 45.746C67.52 45.856 67.6263 45.944 67.7656 46.01C67.9086 46.076 68.0846 46.109 68.2936 46.109ZM74.3587 47L76.8557 39.08H78.7972L81.2942 47H79.9302L77.6642 39.894H77.9612L75.7227 47H74.3587ZM75.7502 45.284V44.0465H79.9082V45.284H75.7502ZM85.1431 47.165C84.5637 47.165 84.0779 47.0275 83.6856 46.7525C83.2932 46.4775 82.9981 46.1035 82.8001 45.6305C82.6021 45.1538 82.5031 44.6203 82.5031 44.03C82.5031 43.4323 82.6021 42.897 82.8001 42.424C82.9981 41.951 83.2877 41.5788 83.6691 41.3075C84.0541 41.0325 84.5289 40.895 85.0936 40.895C85.6546 40.895 86.1404 41.0325 86.5511 41.3075C86.9654 41.5788 87.2862 41.951 87.5136 42.424C87.7409 42.8933 87.8546 43.4287 87.8546 44.03C87.8546 44.624 87.7427 45.1575 87.5191 45.6305C87.2954 46.1035 86.9801 46.4775 86.5731 46.7525C86.1661 47.0275 85.6894 47.165 85.1431 47.165ZM82.2776 49.64V41.06H83.4491V45.229H83.6141V49.64H82.2776ZM84.9396 45.977C85.2842 45.977 85.5684 45.8908 85.7921 45.7185C86.0157 45.5462 86.1807 45.3133 86.2871 45.02C86.3971 44.723 86.4521 44.393 86.4521 44.03C86.4521 43.6707 86.3971 43.3443 86.2871 43.051C86.1771 42.754 86.0066 42.5193 85.7756 42.347C85.5446 42.171 85.2512 42.083 84.8956 42.083C84.5582 42.083 84.2832 42.1655 84.0706 42.3305C83.8579 42.4918 83.7002 42.7192 83.5976 43.0125C83.4986 43.3022 83.4491 43.6413 83.4491 44.03C83.4491 44.415 83.4986 44.7542 83.5976 45.0475C83.7002 45.3408 83.8597 45.57 84.0761 45.735C84.2961 45.8963 84.5839 45.977 84.9396 45.977ZM89.1769 47V38.915H90.5024V47H89.1769ZM92.2599 40.158V38.9425H93.5854V40.158H92.2599ZM92.2599 47V41.06H93.5854V47H92.2599ZM95.2219 47L95.2329 39.08H96.5749V43.92L98.7474 41.06H100.403L98.0984 44.03L100.601 47H98.8464L96.5749 44.14V47H95.2219ZM102.813 47.165C102.384 47.165 102.021 47.0843 101.724 46.923C101.427 46.758 101.201 46.5398 101.047 46.2685C100.897 45.9972 100.822 45.6983 100.822 45.372C100.822 45.086 100.87 44.8293 100.965 44.602C101.06 44.371 101.207 44.173 101.405 44.008C101.603 43.8393 101.86 43.7018 102.175 43.5955C102.413 43.5185 102.692 43.4488 103.011 43.3865C103.334 43.3242 103.682 43.2673 104.056 43.216C104.434 43.161 104.828 43.1023 105.238 43.04L104.765 43.3095C104.769 42.8988 104.677 42.5963 104.49 42.402C104.303 42.2077 103.988 42.1105 103.544 42.1105C103.277 42.1105 103.018 42.1728 102.769 42.2975C102.52 42.4222 102.345 42.6367 102.246 42.941L101.036 42.5615C101.183 42.0592 101.462 41.6558 101.872 41.3515C102.287 41.0472 102.844 40.895 103.544 40.895C104.072 40.895 104.536 40.9812 104.936 41.1535C105.339 41.3258 105.638 41.6082 105.832 42.0005C105.939 42.2095 106.003 42.424 106.025 42.644C106.047 42.8603 106.058 43.0968 106.058 43.3535V47H104.897V45.713L105.09 45.922C104.822 46.351 104.509 46.6663 104.149 46.868C103.794 47.066 103.348 47.165 102.813 47.165ZM103.077 46.109C103.378 46.109 103.634 46.0558 103.847 45.9495C104.06 45.8432 104.228 45.713 104.353 45.559C104.481 45.405 104.567 45.2602 104.611 45.1245C104.681 44.9558 104.72 44.7633 104.727 44.547C104.738 44.327 104.743 44.1492 104.743 44.0135L105.15 44.1345C104.751 44.1968 104.408 44.2518 104.122 44.2995C103.836 44.3472 103.59 44.393 103.385 44.437C103.18 44.4773 102.998 44.5232 102.84 44.5745C102.686 44.6295 102.556 44.6937 102.45 44.767C102.344 44.8403 102.261 44.9247 102.202 45.02C102.147 45.1153 102.12 45.2272 102.12 45.3555C102.12 45.5022 102.157 45.6323 102.23 45.746C102.303 45.856 102.41 45.944 102.549 46.01C102.692 46.076 102.868 46.109 103.077 46.109ZM109.783 47.165C109.05 47.165 108.454 47 107.996 46.67C107.537 46.34 107.259 45.8762 107.16 45.2785L108.513 45.0695C108.582 45.3628 108.736 45.5938 108.975 45.7625C109.213 45.9312 109.514 46.0155 109.877 46.0155C110.196 46.0155 110.441 45.9532 110.614 45.8285C110.79 45.7002 110.878 45.526 110.878 45.306C110.878 45.1703 110.845 45.0622 110.779 44.9815C110.716 44.8972 110.577 44.8165 110.361 44.7395C110.144 44.6625 109.813 44.5653 109.365 44.448C108.867 44.316 108.471 44.1748 108.177 44.0245C107.884 43.8705 107.673 43.689 107.545 43.48C107.416 43.271 107.352 43.018 107.352 42.721C107.352 42.3507 107.449 42.028 107.644 41.753C107.838 41.478 108.109 41.2672 108.458 41.1205C108.806 40.9702 109.217 40.895 109.69 40.895C110.152 40.895 110.561 40.9665 110.916 41.1095C111.276 41.2525 111.565 41.456 111.785 41.72C112.005 41.984 112.141 42.2938 112.192 42.6495L110.839 42.8915C110.806 42.6385 110.691 42.4387 110.493 42.292C110.298 42.1453 110.038 42.0628 109.712 42.0445C109.4 42.0262 109.149 42.0738 108.958 42.1875C108.768 42.2975 108.672 42.4533 108.672 42.655C108.672 42.7687 108.711 42.8658 108.788 42.9465C108.865 43.0272 109.019 43.1078 109.25 43.1885C109.484 43.2692 109.833 43.3682 110.295 43.4855C110.768 43.6065 111.145 43.7458 111.428 43.9035C111.714 44.0575 111.919 44.2427 112.044 44.459C112.172 44.6753 112.236 44.9375 112.236 45.2455C112.236 45.8432 112.018 46.3125 111.582 46.6535C111.149 46.9945 110.55 47.165 109.783 47.165ZM113.551 40.158V38.9425H114.876V40.158H113.551ZM113.551 47V41.06H114.876V47H113.551Z" fill="#454545"/>
<path d="M18.64 64V58.24H19.476V63.212H22.084V64H18.64ZM24.6791 64.12C24.2498 64.12 23.8725 64.0267 23.5471 63.84C23.2245 63.6507 22.9725 63.388 22.7911 63.052C22.6125 62.7133 22.5231 62.3213 22.5231 61.876C22.5231 61.404 22.6111 60.9947 22.7871 60.648C22.9658 60.3013 23.2138 60.0333 23.5311 59.844C23.8485 59.6547 24.2178 59.56 24.6391 59.56C25.0791 59.56 25.4538 59.6627 25.7631 59.868C26.0725 60.0707 26.3031 60.36 26.4551 60.736C26.6098 61.112 26.6711 61.5587 26.6391 62.076H25.8031V61.772C25.7978 61.2707 25.7018 60.9 25.5151 60.66C25.3311 60.42 25.0498 60.3 24.6711 60.3C24.2525 60.3 23.9378 60.432 23.7271 60.696C23.5165 60.96 23.4111 61.3413 23.4111 61.84C23.4111 62.3147 23.5165 62.6827 23.7271 62.944C23.9378 63.2027 24.2418 63.332 24.6391 63.332C24.9005 63.332 25.1258 63.2733 25.3151 63.156C25.5071 63.036 25.6565 62.8653 25.7631 62.644L26.5831 62.904C26.4151 63.2907 26.1605 63.5907 25.8191 63.804C25.4778 64.0147 25.0978 64.12 24.6791 64.12ZM23.1391 62.076V61.424H26.2231V62.076H23.1391ZM29.5646 64.12C29.1512 64.12 28.8046 64.02 28.5246 63.82C28.2446 63.6173 28.0326 63.344 27.8886 63C27.7446 62.656 27.6726 62.268 27.6726 61.836C27.6726 61.404 27.7432 61.016 27.8846 60.672C28.0286 60.328 28.2392 60.0573 28.5166 59.86C28.7966 59.66 29.1406 59.56 29.5486 59.56C29.9539 59.56 30.3032 59.66 30.5966 59.86C30.8926 60.0573 31.1206 60.328 31.2806 60.672C31.4406 61.0133 31.5206 61.4013 31.5206 61.836C31.5206 62.268 31.4406 62.6573 31.2806 63.004C31.1232 63.348 30.8979 63.62 30.6046 63.82C30.3139 64.02 29.9672 64.12 29.5646 64.12ZM27.5326 64V58.24H28.3726V60.892H28.2766V64H27.5326ZM29.4486 63.364C29.7152 63.364 29.9352 63.296 30.1086 63.16C30.2846 63.024 30.4152 62.8413 30.5006 62.612C30.5886 62.38 30.6326 62.1213 30.6326 61.836C30.6326 61.5533 30.5886 61.2973 30.5006 61.068C30.4152 60.8387 30.2832 60.656 30.1046 60.52C29.9259 60.384 29.6979 60.316 29.4206 60.316C29.1592 60.316 28.9432 60.38 28.7726 60.508C28.6046 60.636 28.4792 60.8147 28.3966 61.044C28.3166 61.2733 28.2766 61.5373 28.2766 61.836C28.2766 62.1347 28.3166 62.3987 28.3966 62.628C28.4766 62.8573 28.6032 63.0373 28.7766 63.168C28.9499 63.2987 29.1739 63.364 29.4486 63.364ZM32.4838 58.972V58.16H33.3198V58.972H32.4838ZM32.4838 64V59.68H33.3198V64H32.4838ZM37.5529 64V61.876C37.5529 61.708 37.5383 61.536 37.5089 61.36C37.4823 61.1813 37.4289 61.016 37.3489 60.864C37.2716 60.712 37.1609 60.5893 37.0169 60.496C36.8756 60.4027 36.6903 60.356 36.4609 60.356C36.3116 60.356 36.1703 60.3813 36.0369 60.432C35.9036 60.48 35.7863 60.5587 35.6849 60.668C35.5863 60.7773 35.5076 60.9213 35.4489 61.1C35.3929 61.2787 35.3649 61.496 35.3649 61.752L34.8449 61.556C34.8449 61.164 34.9183 60.8187 35.0649 60.52C35.2116 60.2187 35.4223 59.984 35.6969 59.816C35.9716 59.648 36.3036 59.564 36.6929 59.564C36.9916 59.564 37.2423 59.612 37.4449 59.708C37.6476 59.804 37.8116 59.9307 37.9369 60.088C38.0649 60.2427 38.1623 60.412 38.2289 60.596C38.2956 60.78 38.3409 60.96 38.3649 61.136C38.3889 61.312 38.4009 61.4667 38.4009 61.6V64H37.5529ZM34.5169 64V58.24H35.2649V61.348H35.3649V64H34.5169ZM42.7604 64.12C42.3577 64.12 42.0097 64.02 41.7164 63.82C41.4257 63.62 41.2004 63.348 41.0404 63.004C40.883 62.6573 40.8044 62.268 40.8044 61.836C40.8044 61.4013 40.8844 61.0133 41.0444 60.672C41.2044 60.328 41.431 60.0573 41.7244 59.86C42.0204 59.66 42.371 59.56 42.7764 59.56C43.1844 59.56 43.527 59.66 43.8044 59.86C44.0844 60.0573 44.295 60.328 44.4364 60.672C44.5804 61.016 44.6524 61.404 44.6524 61.836C44.6524 62.268 44.5804 62.656 44.4364 63C44.2924 63.344 44.0804 63.6173 43.8004 63.82C43.5204 64.02 43.1737 64.12 42.7604 64.12ZM42.8764 63.364C43.151 63.364 43.375 63.2987 43.5484 63.168C43.7217 63.0373 43.8484 62.8573 43.9284 62.628C44.0084 62.3987 44.0484 62.1347 44.0484 61.836C44.0484 61.5373 44.007 61.2733 43.9244 61.044C43.8444 60.8147 43.719 60.636 43.5484 60.508C43.3804 60.38 43.1657 60.316 42.9044 60.316C42.627 60.316 42.399 60.384 42.2204 60.52C42.0417 60.656 41.9084 60.8387 41.8204 61.068C41.735 61.2973 41.6924 61.5533 41.6924 61.836C41.6924 62.1213 41.735 62.38 41.8204 62.612C41.9084 62.8413 42.039 63.024 42.2124 63.16C42.3884 63.296 42.6097 63.364 42.8764 63.364ZM44.0484 64V60.892H43.9524V58.24H44.7924V64H44.0484ZM47.1316 64.12C46.8116 64.12 46.5436 64.0613 46.3276 63.944C46.1116 63.824 45.9476 63.6667 45.8356 63.472C45.7262 63.2747 45.6716 63.0587 45.6716 62.824C45.6716 62.6053 45.7102 62.4133 45.7876 62.248C45.8649 62.0827 45.9796 61.9427 46.1316 61.828C46.2836 61.7107 46.4702 61.616 46.6916 61.544C46.8836 61.488 47.1009 61.4387 47.3436 61.396C47.5862 61.3533 47.8409 61.3133 48.1076 61.276C48.3769 61.2387 48.6436 61.2013 48.9076 61.164L48.6036 61.332C48.6089 60.9933 48.5369 60.7427 48.3876 60.58C48.2409 60.4147 47.9876 60.332 47.6276 60.332C47.4009 60.332 47.1929 60.3853 47.0036 60.492C46.8142 60.596 46.6822 60.7693 46.6076 61.012L45.8276 60.772C45.9342 60.4013 46.1369 60.1067 46.4356 59.888C46.7369 59.6693 47.1369 59.56 47.6356 59.56C48.0222 59.56 48.3582 59.6267 48.6436 59.76C48.9316 59.8907 49.1422 60.0987 49.2756 60.384C49.3449 60.5253 49.3876 60.6747 49.4036 60.832C49.4196 60.9893 49.4276 61.1587 49.4276 61.34V64H48.6876V63.012L48.8316 63.14C48.6529 63.4707 48.4249 63.7173 48.1476 63.88C47.8729 64.04 47.5342 64.12 47.1316 64.12ZM47.2796 63.436C47.5169 63.436 47.7209 63.3947 47.8916 63.312C48.0622 63.2267 48.1996 63.1187 48.3036 62.988C48.4076 62.8573 48.4756 62.7213 48.5076 62.58C48.5529 62.452 48.5782 62.308 48.5836 62.148C48.5916 61.988 48.5956 61.86 48.5956 61.764L48.8676 61.864C48.6036 61.904 48.3636 61.94 48.1476 61.972C47.9316 62.004 47.7356 62.036 47.5596 62.068C47.3862 62.0973 47.2316 62.1333 47.0956 62.176C46.9809 62.216 46.8782 62.264 46.7876 62.32C46.6996 62.376 46.6289 62.444 46.5756 62.524C46.5249 62.604 46.4996 62.7013 46.4996 62.816C46.4996 62.928 46.5276 63.032 46.5836 63.128C46.6396 63.2213 46.7249 63.296 46.8396 63.352C46.9542 63.408 47.1009 63.436 47.2796 63.436ZM50.4663 64V59.68H51.2103V60.728L51.1063 60.592C51.1596 60.4533 51.2289 60.3267 51.3143 60.212C51.3996 60.0947 51.4983 59.9987 51.6103 59.924C51.7196 59.844 51.8409 59.7827 51.9743 59.74C52.1103 59.6947 52.2489 59.668 52.3903 59.66C52.5316 59.6493 52.6676 59.656 52.7983 59.68V60.464C52.6569 60.4267 52.4996 60.416 52.3263 60.432C52.1556 60.448 51.9983 60.5027 51.8543 60.596C51.7183 60.684 51.6103 60.7907 51.5303 60.916C51.4529 61.0413 51.3969 61.1813 51.3623 61.336C51.3276 61.488 51.3103 61.6493 51.3103 61.82V64H50.4663ZM53.64 58.972V58.16H54.476V58.972H53.64ZM53.64 64V59.68H54.476V64H53.64ZM58.9868 64.12C58.6908 64.12 58.4148 64.06 58.1588 63.94C57.9054 63.8173 57.6881 63.6493 57.5068 63.436C57.3254 63.22 57.1961 62.972 57.1188 62.692L57.9228 62.476C57.9681 62.6467 58.0454 62.7947 58.1548 62.92C58.2668 63.0453 58.3974 63.1427 58.5468 63.212C58.6961 63.2787 58.8508 63.312 59.0108 63.312C59.2214 63.312 59.4121 63.2613 59.5828 63.16C59.7561 63.0587 59.8921 62.9227 59.9908 62.752C60.0921 62.5813 60.1428 62.3933 60.1428 62.188C60.1428 61.9773 60.0908 61.7867 59.9868 61.616C59.8854 61.4453 59.7481 61.3107 59.5748 61.212C59.4041 61.1107 59.2161 61.06 59.0108 61.06C58.7761 61.06 58.5774 61.1067 58.4148 61.2C58.2521 61.2933 58.1254 61.4013 58.0348 61.524L57.3067 61.268L57.4828 58.24H60.5908V59.028H57.9108L58.2508 58.712L58.1108 60.98L57.9468 60.768C58.0988 60.616 58.2801 60.5 58.4908 60.42C58.7014 60.34 58.9108 60.3 59.1188 60.3C59.4761 60.3 59.7948 60.3827 60.0748 60.548C60.3574 60.7133 60.5801 60.9387 60.7428 61.224C60.9054 61.5067 60.9868 61.828 60.9868 62.188C60.9868 62.5453 60.8948 62.8707 60.7108 63.164C60.5268 63.4547 60.2828 63.6867 59.9788 63.86C59.6748 64.0333 59.3441 64.12 58.9868 64.12ZM63.9508 64.12C63.5588 64.12 63.2121 64.0347 62.9108 63.864C62.6095 63.6907 62.3721 63.4533 62.1988 63.152C62.0281 62.8507 61.9428 62.504 61.9428 62.112V60.128C61.9428 59.736 62.0281 59.3893 62.1988 59.088C62.3721 58.7867 62.6095 58.5507 62.9108 58.38C63.2121 58.2067 63.5588 58.12 63.9508 58.12C64.3428 58.12 64.6895 58.2067 64.9908 58.38C65.2921 58.5507 65.5281 58.7867 65.6988 59.088C65.8721 59.3893 65.9588 59.736 65.9588 60.128V62.112C65.9588 62.504 65.8721 62.8507 65.6988 63.152C65.5281 63.4533 65.2921 63.6907 64.9908 63.864C64.6895 64.0347 64.3428 64.12 63.9508 64.12ZM63.9508 63.32C64.1641 63.32 64.3575 63.2693 64.5308 63.168C64.7068 63.064 64.8468 62.9253 64.9508 62.752C65.0548 62.576 65.1068 62.38 65.1068 62.164V60.068C65.1068 59.8547 65.0548 59.6613 64.9508 59.488C64.8468 59.312 64.7068 59.1733 64.5308 59.072C64.3575 58.968 64.1641 58.916 63.9508 58.916C63.7375 58.916 63.5428 58.968 63.3668 59.072C63.1935 59.1733 63.0548 59.312 62.9508 59.488C62.8468 59.6613 62.7948 59.8547 62.7948 60.068V62.164C62.7948 62.38 62.8468 62.576 62.9508 62.752C63.0548 62.9253 63.1935 63.064 63.3668 63.168C63.5428 63.2693 63.7375 63.32 63.9508 63.32ZM69.0836 64.12C68.6916 64.12 68.345 64.0347 68.0436 63.864C67.7423 63.6907 67.505 63.4533 67.3316 63.152C67.161 62.8507 67.0756 62.504 67.0756 62.112V60.128C67.0756 59.736 67.161 59.3893 67.3316 59.088C67.505 58.7867 67.7423 58.5507 68.0436 58.38C68.345 58.2067 68.6916 58.12 69.0836 58.12C69.4756 58.12 69.8223 58.2067 70.1236 58.38C70.425 58.5507 70.661 58.7867 70.8316 59.088C71.005 59.3893 71.0916 59.736 71.0916 60.128V62.112C71.0916 62.504 71.005 62.8507 70.8316 63.152C70.661 63.4533 70.425 63.6907 70.1236 63.864C69.8223 64.0347 69.4756 64.12 69.0836 64.12ZM69.0836 63.32C69.297 63.32 69.4903 63.2693 69.6636 63.168C69.8396 63.064 69.9796 62.9253 70.0836 62.752C70.1876 62.576 70.2396 62.38 70.2396 62.164V60.068C70.2396 59.8547 70.1876 59.6613 70.0836 59.488C69.9796 59.312 69.8396 59.1733 69.6636 59.072C69.4903 58.968 69.297 58.916 69.0836 58.916C68.8703 58.916 68.6756 58.968 68.4996 59.072C68.3263 59.1733 68.1876 59.312 68.0836 59.488C67.9796 59.6613 67.9276 59.8547 67.9276 60.068V62.164C67.9276 62.38 67.9796 62.576 68.0836 62.752C68.1876 62.9253 68.3263 63.064 68.4996 63.168C68.6756 63.2693 68.8703 63.32 69.0836 63.32ZM72.3524 64V63.116H73.2364V64H72.3524ZM76.5055 64.12C76.1135 64.12 75.7668 64.0347 75.4655 63.864C75.1642 63.6907 74.9268 63.4533 74.7535 63.152C74.5828 62.8507 74.4975 62.504 74.4975 62.112V60.128C74.4975 59.736 74.5828 59.3893 74.7535 59.088C74.9268 58.7867 75.1642 58.5507 75.4655 58.38C75.7668 58.2067 76.1135 58.12 76.5055 58.12C76.8975 58.12 77.2442 58.2067 77.5455 58.38C77.8468 58.5507 78.0828 58.7867 78.2535 59.088C78.4268 59.3893 78.5135 59.736 78.5135 60.128V62.112C78.5135 62.504 78.4268 62.8507 78.2535 63.152C78.0828 63.4533 77.8468 63.6907 77.5455 63.864C77.2442 64.0347 76.8975 64.12 76.5055 64.12ZM76.5055 63.32C76.7188 63.32 76.9122 63.2693 77.0855 63.168C77.2615 63.064 77.4015 62.9253 77.5055 62.752C77.6095 62.576 77.6615 62.38 77.6615 62.164V60.068C77.6615 59.8547 77.6095 59.6613 77.5055 59.488C77.4015 59.312 77.2615 59.1733 77.0855 59.072C76.9122 58.968 76.7188 58.916 76.5055 58.916C76.2922 58.916 76.0975 58.968 75.9215 59.072C75.7482 59.1733 75.6095 59.312 75.5055 59.488C75.4015 59.6613 75.3495 59.8547 75.3495 60.068V62.164C75.3495 62.38 75.4015 62.576 75.5055 62.752C75.6095 62.9253 75.7482 63.064 75.9215 63.168C76.0975 63.2693 76.2922 63.32 76.5055 63.32ZM81.6383 64.12C81.2463 64.12 80.8996 64.0347 80.5983 63.864C80.297 63.6907 80.0596 63.4533 79.8863 63.152C79.7156 62.8507 79.6303 62.504 79.6303 62.112V60.128C79.6303 59.736 79.7156 59.3893 79.8863 59.088C80.0596 58.7867 80.297 58.5507 80.5983 58.38C80.8996 58.2067 81.2463 58.12 81.6383 58.12C82.0303 58.12 82.377 58.2067 82.6783 58.38C82.9796 58.5507 83.2156 58.7867 83.3863 59.088C83.5596 59.3893 83.6463 59.736 83.6463 60.128V62.112C83.6463 62.504 83.5596 62.8507 83.3863 63.152C83.2156 63.4533 82.9796 63.6907 82.6783 63.864C82.377 64.0347 82.0303 64.12 81.6383 64.12ZM81.6383 63.32C81.8516 63.32 82.045 63.2693 82.2183 63.168C82.3943 63.064 82.5343 62.9253 82.6383 62.752C82.7423 62.576 82.7943 62.38 82.7943 62.164V60.068C82.7943 59.8547 82.7423 59.6613 82.6383 59.488C82.5343 59.312 82.3943 59.1733 82.2183 59.072C82.045 58.968 81.8516 58.916 81.6383 58.916C81.425 58.916 81.2303 58.968 81.0543 59.072C80.881 59.1733 80.7423 59.312 80.6383 59.488C80.5343 59.6613 80.4823 59.8547 80.4823 60.068V62.164C80.4823 62.38 80.5343 62.576 80.6383 62.752C80.7423 62.9253 80.881 63.064 81.0543 63.168C81.2303 63.2693 81.425 63.32 81.6383 63.32ZM86.7711 64.12C86.3791 64.12 86.0325 64.0347 85.7311 63.864C85.4298 63.6907 85.1925 63.4533 85.0191 63.152C84.8485 62.8507 84.7631 62.504 84.7631 62.112V60.128C84.7631 59.736 84.8485 59.3893 85.0191 59.088C85.1925 58.7867 85.4298 58.5507 85.7311 58.38C86.0325 58.2067 86.3791 58.12 86.7711 58.12C87.1631 58.12 87.5098 58.2067 87.8111 58.38C88.1125 58.5507 88.3485 58.7867 88.5191 59.088C88.6925 59.3893 88.7791 59.736 88.7791 60.128V62.112C88.7791 62.504 88.6925 62.8507 88.5191 63.152C88.3485 63.4533 88.1125 63.6907 87.8111 63.864C87.5098 64.0347 87.1631 64.12 86.7711 64.12ZM86.7711 63.32C86.9845 63.32 87.1778 63.2693 87.3511 63.168C87.5271 63.064 87.6671 62.9253 87.7711 62.752C87.8751 62.576 87.9271 62.38 87.9271 62.164V60.068C87.9271 59.8547 87.8751 59.6613 87.7711 59.488C87.6671 59.312 87.5271 59.1733 87.3511 59.072C87.1778 58.968 86.9845 58.916 86.7711 58.916C86.5578 58.916 86.3631 58.968 86.1871 59.072C86.0138 59.1733 85.8751 59.312 85.7711 59.488C85.6671 59.6613 85.6151 59.8547 85.6151 60.068V62.164C85.6151 62.38 85.6671 62.576 85.7711 62.752C85.8751 62.9253 86.0138 63.064 86.1871 63.168C86.3631 63.2693 86.5578 63.32 86.7711 63.32ZM93.5255 64.12C93.1122 64.12 92.7655 64.02 92.4855 63.82C92.2055 63.6173 91.9935 63.344 91.8495 63C91.7055 62.656 91.6335 62.268 91.6335 61.836C91.6335 61.404 91.7042 61.016 91.8455 60.672C91.9895 60.328 92.2002 60.0573 92.4775 59.86C92.7575 59.66 93.1015 59.56 93.5095 59.56C93.9148 59.56 94.2642 59.66 94.5575 59.86C94.8535 60.0573 95.0815 60.328 95.2415 60.672C95.4015 61.0133 95.4815 61.4013 95.4815 61.836C95.4815 62.268 95.4015 62.6573 95.2415 63.004C95.0842 63.348 94.8588 63.62 94.5655 63.82C94.2748 64.02 93.9282 64.12 93.5255 64.12ZM91.4935 65.92V59.68H92.2375V62.788H92.3335V65.92H91.4935ZM93.4095 63.364C93.6762 63.364 93.8962 63.296 94.0695 63.16C94.2455 63.024 94.3762 62.8413 94.4615 62.612C94.5495 62.38 94.5935 62.1213 94.5935 61.836C94.5935 61.5533 94.5495 61.2973 94.4615 61.068C94.3762 60.8387 94.2442 60.656 94.0655 60.52C93.8868 60.384 93.6588 60.316 93.3815 60.316C93.1202 60.316 92.9042 60.38 92.7335 60.508C92.5655 60.636 92.4402 60.8147 92.3575 61.044C92.2775 61.2733 92.2375 61.5373 92.2375 61.836C92.2375 62.1347 92.2775 62.3987 92.3575 62.628C92.4375 62.8573 92.5642 63.0373 92.7375 63.168C92.9108 63.2987 93.1348 63.364 93.4095 63.364ZM98.2807 64.12C97.8514 64.12 97.474 64.0267 97.1487 63.84C96.826 63.6507 96.574 63.388 96.3927 63.052C96.214 62.7133 96.1247 62.3213 96.1247 61.876C96.1247 61.404 96.2127 60.9947 96.3887 60.648C96.5674 60.3013 96.8154 60.0333 97.1327 59.844C97.45 59.6547 97.8194 59.56 98.2407 59.56C98.6807 59.56 99.0554 59.6627 99.3647 59.868C99.674 60.0707 99.9047 60.36 100.057 60.736C100.211 61.112 100.273 61.5587 100.241 62.076H99.4047V61.772C99.3994 61.2707 99.3034 60.9 99.1167 60.66C98.9327 60.42 98.6514 60.3 98.2727 60.3C97.854 60.3 97.5394 60.432 97.3287 60.696C97.118 60.96 97.0127 61.3413 97.0127 61.84C97.0127 62.3147 97.118 62.6827 97.3287 62.944C97.5394 63.2027 97.8434 63.332 98.2407 63.332C98.502 63.332 98.7274 63.2733 98.9167 63.156C99.1087 63.036 99.258 62.8653 99.3647 62.644L100.185 62.904C100.017 63.2907 99.762 63.5907 99.4207 63.804C99.0794 64.0147 98.6994 64.12 98.2807 64.12ZM96.7407 62.076V61.424H99.8247V62.076H96.7407ZM104.053 64V61.876C104.053 61.708 104.038 61.536 104.009 61.36C103.982 61.1813 103.929 61.016 103.849 60.864C103.772 60.712 103.661 60.5893 103.517 60.496C103.376 60.4027 103.19 60.356 102.961 60.356C102.812 60.356 102.67 60.3813 102.537 60.432C102.404 60.48 102.286 60.5587 102.185 60.668C102.086 60.7773 102.008 60.9213 101.949 61.1C101.893 61.2787 101.865 61.496 101.865 61.752L101.345 61.556C101.345 61.164 101.418 60.8187 101.565 60.52C101.712 60.2187 101.922 59.984 102.197 59.816C102.472 59.648 102.804 59.564 103.193 59.564C103.492 59.564 103.742 59.612 103.945 59.708C104.148 59.804 104.312 59.9307 104.437 60.088C104.565 60.2427 104.662 60.412 104.729 60.596C104.796 60.78 104.841 60.96 104.865 61.136C104.889 61.312 104.901 61.4667 104.901 61.6V64H104.053ZM101.017 64V59.68H101.765V60.928H101.865V64H101.017ZM107.723 66.04C107.491 66.04 107.265 66.004 107.047 65.932C106.831 65.86 106.633 65.7533 106.455 65.612C106.276 65.4733 106.128 65.3013 106.011 65.096L106.783 64.704C106.876 64.888 107.009 65.0227 107.183 65.108C107.356 65.1933 107.539 65.236 107.731 65.236C107.968 65.236 108.171 65.1933 108.339 65.108C108.507 65.0253 108.633 64.9 108.719 64.732C108.807 64.564 108.849 64.356 108.847 64.108V62.9H108.947V59.68H109.687V64.116C109.687 64.2307 109.683 64.34 109.675 64.444C109.667 64.548 109.652 64.652 109.631 64.756C109.569 65.0467 109.452 65.2867 109.279 65.476C109.108 65.6653 108.889 65.8067 108.623 65.9C108.359 65.9933 108.059 66.04 107.723 66.04ZM107.659 64.12C107.256 64.12 106.908 64.02 106.615 63.82C106.324 63.62 106.099 63.348 105.939 63.004C105.781 62.6573 105.703 62.268 105.703 61.836C105.703 61.4013 105.783 61.0133 105.943 60.672C106.103 60.328 106.329 60.0573 106.623 59.86C106.919 59.66 107.269 59.56 107.675 59.56C108.083 59.56 108.425 59.66 108.703 59.86C108.983 60.0573 109.193 60.328 109.335 60.672C109.479 61.016 109.551 61.404 109.551 61.836C109.551 62.268 109.479 62.656 109.335 63C109.191 63.344 108.979 63.6173 108.699 63.82C108.419 64.02 108.072 64.12 107.659 64.12ZM107.775 63.364C108.049 63.364 108.273 63.2987 108.447 63.168C108.62 63.0373 108.747 62.8573 108.827 62.628C108.907 62.3987 108.947 62.1347 108.947 61.836C108.947 61.5373 108.905 61.2733 108.823 61.044C108.743 60.8147 108.617 60.636 108.447 60.508C108.279 60.38 108.064 60.316 107.803 60.316C107.525 60.316 107.297 60.384 107.119 60.52C106.94 60.656 106.807 60.8387 106.719 61.068C106.633 61.2973 106.591 61.5533 106.591 61.836C106.591 62.1213 106.633 62.38 106.719 62.612C106.807 62.8413 106.937 63.024 107.111 63.16C107.287 63.296 107.508 63.364 107.775 63.364ZM112.59 66.04C112.358 66.04 112.133 66.004 111.914 65.932C111.698 65.86 111.501 65.7533 111.322 65.612C111.143 65.4733 110.995 65.3013 110.878 65.096L111.65 64.704C111.743 64.888 111.877 65.0227 112.05 65.108C112.223 65.1933 112.406 65.236 112.598 65.236C112.835 65.236 113.038 65.1933 113.206 65.108C113.374 65.0253 113.501 64.9 113.586 64.732C113.674 64.564 113.717 64.356 113.714 64.108V62.9H113.814V59.68H114.554V64.116C114.554 64.2307 114.55 64.34 114.542 64.444C114.534 64.548 114.519 64.652 114.498 64.756C114.437 65.0467 114.319 65.2867 114.146 65.476C113.975 65.6653 113.757 65.8067 113.49 65.9C113.226 65.9933 112.926 66.04 112.59 66.04ZM112.526 64.12C112.123 64.12 111.775 64.02 111.482 63.82C111.191 63.62 110.966 63.348 110.806 63.004C110.649 62.6573 110.57 62.268 110.57 61.836C110.57 61.4013 110.65 61.0133 110.81 60.672C110.97 60.328 111.197 60.0573 111.49 59.86C111.786 59.66 112.137 59.56 112.542 59.56C112.95 59.56 113.293 59.66 113.57 59.86C113.85 60.0573 114.061 60.328 114.202 60.672C114.346 61.016 114.418 61.404 114.418 61.836C114.418 62.268 114.346 62.656 114.202 63C114.058 63.344 113.846 63.6173 113.566 63.82C113.286 64.02 112.939 64.12 112.526 64.12ZM112.642 63.364C112.917 63.364 113.141 63.2987 113.314 63.168C113.487 63.0373 113.614 62.8573 113.694 62.628C113.774 62.3987 113.814 62.1347 113.814 61.836C113.814 61.5373 113.773 61.2733 113.69 61.044C113.61 60.8147 113.485 60.636 113.314 60.508C113.146 60.38 112.931 60.316 112.67 60.316C112.393 60.316 112.165 60.384 111.986 60.52C111.807 60.656 111.674 60.8387 111.586 61.068C111.501 61.2973 111.458 61.5533 111.458 61.836C111.458 62.1213 111.501 62.38 111.586 62.612C111.674 62.8413 111.805 63.024 111.978 63.16C112.154 63.296 112.375 63.364 112.642 63.364ZM117.305 64.116C117.007 64.116 116.756 64.068 116.553 63.972C116.351 63.876 116.185 63.7507 116.057 63.596C115.932 63.4387 115.836 63.268 115.769 63.084C115.703 62.9 115.657 62.72 115.633 62.544C115.609 62.368 115.597 62.2133 115.597 62.08V59.68H116.445V61.804C116.445 61.972 116.459 62.1453 116.485 62.324C116.515 62.5 116.568 62.664 116.645 62.816C116.725 62.968 116.836 63.0907 116.977 63.184C117.121 63.2773 117.308 63.324 117.537 63.324C117.687 63.324 117.828 63.3 117.961 63.252C118.095 63.2013 118.211 63.1213 118.309 63.012C118.411 62.9027 118.489 62.7587 118.545 62.58C118.604 62.4013 118.633 62.184 118.633 61.928L119.153 62.124C119.153 62.516 119.08 62.8627 118.933 63.164C118.787 63.4627 118.576 63.696 118.301 63.864C118.027 64.032 117.695 64.116 117.305 64.116ZM118.733 64V62.752H118.633V59.68H119.477V64H118.733ZM123.631 64V61.876C123.631 61.708 123.616 61.536 123.587 61.36C123.56 61.1813 123.507 61.016 123.427 60.864C123.35 60.712 123.239 60.5893 123.095 60.496C122.954 60.4027 122.768 60.356 122.539 60.356C122.39 60.356 122.248 60.3813 122.115 60.432C121.982 60.48 121.864 60.5587 121.763 60.668C121.664 60.7773 121.586 60.9213 121.527 61.1C121.471 61.2787 121.443 61.496 121.443 61.752L120.923 61.556C120.923 61.164 120.996 60.8187 121.143 60.52C121.29 60.2187 121.5 59.984 121.775 59.816C122.05 59.648 122.382 59.564 122.771 59.564C123.07 59.564 123.32 59.612 123.523 59.708C123.726 59.804 123.89 59.9307 124.015 60.088C124.143 60.2427 124.24 60.412 124.307 60.596C124.374 60.78 124.419 60.96 124.443 61.136C124.467 61.312 124.479 61.4667 124.479 61.6V64H123.631ZM120.595 64V59.68H121.343V60.928H121.443V64H120.595ZM126.741 64.12C126.421 64.12 126.153 64.0613 125.937 63.944C125.721 63.824 125.557 63.6667 125.445 63.472C125.336 63.2747 125.281 63.0587 125.281 62.824C125.281 62.6053 125.32 62.4133 125.397 62.248C125.474 62.0827 125.589 61.9427 125.741 61.828C125.893 61.7107 126.08 61.616 126.301 61.544C126.493 61.488 126.71 61.4387 126.953 61.396C127.196 61.3533 127.45 61.3133 127.717 61.276C127.986 61.2387 128.253 61.2013 128.517 61.164L128.213 61.332C128.218 60.9933 128.146 60.7427 127.997 60.58C127.85 60.4147 127.597 60.332 127.237 60.332C127.01 60.332 126.802 60.3853 126.613 60.492C126.424 60.596 126.292 60.7693 126.217 61.012L125.437 60.772C125.544 60.4013 125.746 60.1067 126.045 59.888C126.346 59.6693 126.746 59.56 127.245 59.56C127.632 59.56 127.968 59.6267 128.253 59.76C128.541 59.8907 128.752 60.0987 128.885 60.384C128.954 60.5253 128.997 60.6747 129.013 60.832C129.029 60.9893 129.037 61.1587 129.037 61.34V64H128.297V63.012L128.441 63.14C128.262 63.4707 128.034 63.7173 127.757 63.88C127.482 64.04 127.144 64.12 126.741 64.12ZM126.889 63.436C127.126 63.436 127.33 63.3947 127.501 63.312C127.672 63.2267 127.809 63.1187 127.913 62.988C128.017 62.8573 128.085 62.7213 128.117 62.58C128.162 62.452 128.188 62.308 128.193 62.148C128.201 61.988 128.205 61.86 128.205 61.764L128.477 61.864C128.213 61.904 127.973 61.94 127.757 61.972C127.541 62.004 127.345 62.036 127.169 62.068C126.996 62.0973 126.841 62.1333 126.705 62.176C126.59 62.216 126.488 62.264 126.397 62.32C126.309 62.376 126.238 62.444 126.185 62.524C126.134 62.604 126.109 62.7013 126.109 62.816C126.109 62.928 126.137 63.032 126.193 63.128C126.249 63.2213 126.334 63.296 126.449 63.352C126.564 63.408 126.71 63.436 126.889 63.436ZM136.853 64L136.857 61.308C136.857 60.996 136.777 60.7533 136.617 60.58C136.457 60.404 136.247 60.316 135.985 60.316C135.825 60.316 135.679 60.3533 135.545 60.428C135.415 60.5 135.308 60.6093 135.225 60.756C135.145 60.9 135.105 61.0813 135.105 61.3L134.701 61.096C134.696 60.792 134.76 60.5253 134.893 60.296C135.029 60.0667 135.213 59.8893 135.445 59.764C135.677 59.636 135.937 59.572 136.225 59.572C136.692 59.572 137.053 59.712 137.309 59.992C137.565 60.272 137.693 60.644 137.693 61.108L137.689 64H136.853ZM131.673 64V59.68H132.417V60.928H132.513V64H131.673ZM134.265 64L134.269 61.324C134.269 61.0093 134.189 60.7627 134.029 60.584C133.872 60.4053 133.66 60.316 133.393 60.316C133.129 60.316 132.916 60.4067 132.753 60.588C132.593 60.7693 132.513 61.0067 132.513 61.3L132.113 61.044C132.113 60.7613 132.181 60.5093 132.317 60.288C132.453 60.0667 132.637 59.892 132.869 59.764C133.101 59.636 133.364 59.572 133.657 59.572C133.964 59.572 134.225 59.6373 134.441 59.768C134.657 59.896 134.821 60.076 134.933 60.308C135.048 60.54 135.105 60.8093 135.105 61.116L135.101 64H134.265ZM140.593 64.12C140.164 64.12 139.787 64.0267 139.461 63.84C139.139 63.6507 138.887 63.388 138.705 63.052C138.527 62.7133 138.437 62.3213 138.437 61.876C138.437 61.404 138.525 60.9947 138.701 60.648C138.88 60.3013 139.128 60.0333 139.445 59.844C139.763 59.6547 140.132 59.56 140.553 59.56C140.993 59.56 141.368 59.6627 141.677 59.868C141.987 60.0707 142.217 60.36 142.369 60.736C142.524 61.112 142.585 61.5587 142.553 62.076H141.717V61.772C141.712 61.2707 141.616 60.9 141.429 60.66C141.245 60.42 140.964 60.3 140.585 60.3C140.167 60.3 139.852 60.432 139.641 60.696C139.431 60.96 139.325 61.3413 139.325 61.84C139.325 62.3147 139.431 62.6827 139.641 62.944C139.852 63.2027 140.156 63.332 140.553 63.332C140.815 63.332 141.04 63.2733 141.229 63.156C141.421 63.036 141.571 62.8653 141.677 62.644L142.497 62.904C142.329 63.2907 142.075 63.5907 141.733 63.804C141.392 64.0147 141.012 64.12 140.593 64.12ZM139.053 62.076V61.424H142.137V62.076H139.053ZM146.365 64V61.876C146.365 61.708 146.351 61.536 146.321 61.36C146.295 61.1813 146.241 61.016 146.161 60.864C146.084 60.712 145.973 60.5893 145.829 60.496C145.688 60.4027 145.503 60.356 145.273 60.356C145.124 60.356 144.983 60.3813 144.849 60.432C144.716 60.48 144.599 60.5587 144.497 60.668C144.399 60.7773 144.32 60.9213 144.261 61.1C144.205 61.2787 144.177 61.496 144.177 61.752L143.657 61.556C143.657 61.164 143.731 60.8187 143.877 60.52C144.024 60.2187 144.235 59.984 144.509 59.816C144.784 59.648 145.116 59.564 145.505 59.564C145.804 59.564 146.055 59.612 146.257 59.708C146.46 59.804 146.624 59.9307 146.749 60.088C146.877 60.2427 146.975 60.412 147.041 60.596C147.108 60.78 147.153 60.96 147.177 61.136C147.201 61.312 147.213 61.4667 147.213 61.6V64H146.365ZM143.329 64V59.68H144.077V60.928H144.177V64H143.329ZM150.035 66.04C149.803 66.04 149.578 66.004 149.359 65.932C149.143 65.86 148.946 65.7533 148.767 65.612C148.589 65.4733 148.441 65.3013 148.323 65.096L149.095 64.704C149.189 64.888 149.322 65.0227 149.495 65.108C149.669 65.1933 149.851 65.236 150.043 65.236C150.281 65.236 150.483 65.1933 150.651 65.108C150.819 65.0253 150.946 64.9 151.031 64.732C151.119 64.564 151.162 64.356 151.159 64.108V62.9H151.259V59.68H151.999V64.116C151.999 64.2307 151.995 64.34 151.987 64.444C151.979 64.548 151.965 64.652 151.943 64.756C151.882 65.0467 151.765 65.2867 151.591 65.476C151.421 65.6653 151.202 65.8067 150.935 65.9C150.671 65.9933 150.371 66.04 150.035 66.04ZM149.971 64.12C149.569 64.12 149.221 64.02 148.927 63.82C148.637 63.62 148.411 63.348 148.251 63.004C148.094 62.6573 148.015 62.268 148.015 61.836C148.015 61.4013 148.095 61.0133 148.255 60.672C148.415 60.328 148.642 60.0573 148.935 59.86C149.231 59.66 149.582 59.56 149.987 59.56C150.395 59.56 150.738 59.66 151.015 59.86C151.295 60.0573 151.506 60.328 151.647 60.672C151.791 61.016 151.863 61.404 151.863 61.836C151.863 62.268 151.791 62.656 151.647 63C151.503 63.344 151.291 63.6173 151.011 63.82C150.731 64.02 150.385 64.12 149.971 64.12ZM150.087 63.364C150.362 63.364 150.586 63.2987 150.759 63.168C150.933 63.0373 151.059 62.8573 151.139 62.628C151.219 62.3987 151.259 62.1347 151.259 61.836C151.259 61.5373 151.218 61.2733 151.135 61.044C151.055 60.8147 150.93 60.636 150.759 60.508C150.591 60.38 150.377 60.316 150.115 60.316C149.838 60.316 149.61 60.384 149.431 60.52C149.253 60.656 149.119 60.8387 149.031 61.068C148.946 61.2973 148.903 61.5533 148.903 61.836C148.903 62.1213 148.946 62.38 149.031 62.612C149.119 62.8413 149.25 63.024 149.423 63.16C149.599 63.296 149.821 63.364 150.087 63.364ZM154.903 66.04C154.671 66.04 154.445 66.004 154.227 65.932C154.011 65.86 153.813 65.7533 153.635 65.612C153.456 65.4733 153.308 65.3013 153.191 65.096L153.963 64.704C154.056 64.888 154.189 65.0227 154.363 65.108C154.536 65.1933 154.719 65.236 154.911 65.236C155.148 65.236 155.351 65.1933 155.519 65.108C155.687 65.0253 155.813 64.9 155.899 64.732C155.987 64.564 156.029 64.356 156.027 64.108V62.9H156.127V59.68H156.867V64.116C156.867 64.2307 156.863 64.34 156.855 64.444C156.847 64.548 156.832 64.652 156.811 64.756C156.749 65.0467 156.632 65.2867 156.459 65.476C156.288 65.6653 156.069 65.8067 155.803 65.9C155.539 65.9933 155.239 66.04 154.903 66.04ZM154.839 64.12C154.436 64.12 154.088 64.02 153.795 63.82C153.504 63.62 153.279 63.348 153.119 63.004C152.961 62.6573 152.883 62.268 152.883 61.836C152.883 61.4013 152.963 61.0133 153.123 60.672C153.283 60.328 153.509 60.0573 153.803 59.86C154.099 59.66 154.449 59.56 154.855 59.56C155.263 59.56 155.605 59.66 155.883 59.86C156.163 60.0573 156.373 60.328 156.515 60.672C156.659 61.016 156.731 61.404 156.731 61.836C156.731 62.268 156.659 62.656 156.515 63C156.371 63.344 156.159 63.6173 155.879 63.82C155.599 64.02 155.252 64.12 154.839 64.12ZM154.955 63.364C155.229 63.364 155.453 63.2987 155.627 63.168C155.8 63.0373 155.927 62.8573 156.007 62.628C156.087 62.3987 156.127 62.1347 156.127 61.836C156.127 61.5373 156.085 61.2733 156.003 61.044C155.923 60.8147 155.797 60.636 155.627 60.508C155.459 60.38 155.244 60.316 154.983 60.316C154.705 60.316 154.477 60.384 154.299 60.52C154.12 60.656 153.987 60.8387 153.899 61.068C153.813 61.2973 153.771 61.5533 153.771 61.836C153.771 62.1213 153.813 62.38 153.899 62.612C153.987 62.8413 154.117 63.024 154.291 63.16C154.467 63.296 154.688 63.364 154.955 63.364ZM159.618 64.116C159.319 64.116 159.068 64.068 158.866 63.972C158.663 63.876 158.498 63.7507 158.37 63.596C158.244 63.4387 158.148 63.268 158.082 63.084C158.015 62.9 157.97 62.72 157.946 62.544C157.922 62.368 157.91 62.2133 157.91 62.08V59.68H158.758V61.804C158.758 61.972 158.771 62.1453 158.798 62.324C158.827 62.5 158.88 62.664 158.958 62.816C159.038 62.968 159.148 63.0907 159.29 63.184C159.434 63.2773 159.62 63.324 159.85 63.324C159.999 63.324 160.14 63.3 160.274 63.252C160.407 63.2013 160.523 63.1213 160.622 63.012C160.723 62.9027 160.802 62.7587 160.858 62.58C160.916 62.4013 160.946 62.184 160.946 61.928L161.466 62.124C161.466 62.516 161.392 62.8627 161.246 63.164C161.099 63.4627 160.888 63.696 160.614 63.864C160.339 64.032 160.007 64.116 159.618 64.116ZM161.046 64V62.752H160.946V59.68H161.79V64H161.046ZM165.944 64V61.876C165.944 61.708 165.929 61.536 165.9 61.36C165.873 61.1813 165.82 61.016 165.74 60.864C165.662 60.712 165.552 60.5893 165.408 60.496C165.266 60.4027 165.081 60.356 164.852 60.356C164.702 60.356 164.561 60.3813 164.428 60.432C164.294 60.48 164.177 60.5587 164.076 60.668C163.977 60.7773 163.898 60.9213 163.84 61.1C163.784 61.2787 163.756 61.496 163.756 61.752L163.236 61.556C163.236 61.164 163.309 60.8187 163.456 60.52C163.602 60.2187 163.813 59.984 164.088 59.816C164.362 59.648 164.694 59.564 165.084 59.564C165.382 59.564 165.633 59.612 165.836 59.708C166.038 59.804 166.202 59.9307 166.328 60.088C166.456 60.2427 166.553 60.412 166.62 60.596C166.686 60.78 166.732 60.96 166.756 61.136C166.78 61.312 166.792 61.4667 166.792 61.6V64H165.944ZM162.908 64V59.68H163.656V60.928H163.756V64H162.908ZM169.053 64.12C168.733 64.12 168.465 64.0613 168.249 63.944C168.033 63.824 167.869 63.6667 167.757 63.472C167.648 63.2747 167.593 63.0587 167.593 62.824C167.593 62.6053 167.632 62.4133 167.709 62.248C167.787 62.0827 167.901 61.9427 168.053 61.828C168.205 61.7107 168.392 61.616 168.613 61.544C168.805 61.488 169.023 61.4387 169.265 61.396C169.508 61.3533 169.763 61.3133 170.029 61.276C170.299 61.2387 170.565 61.2013 170.829 61.164L170.525 61.332C170.531 60.9933 170.459 60.7427 170.309 60.58C170.163 60.4147 169.909 60.332 169.549 60.332C169.323 60.332 169.115 60.3853 168.925 60.492C168.736 60.596 168.604 60.7693 168.529 61.012L167.749 60.772C167.856 60.4013 168.059 60.1067 168.357 59.888C168.659 59.6693 169.059 59.56 169.557 59.56C169.944 59.56 170.28 59.6267 170.565 59.76C170.853 59.8907 171.064 60.0987 171.197 60.384C171.267 60.5253 171.309 60.6747 171.325 60.832C171.341 60.9893 171.349 61.1587 171.349 61.34V64H170.609V63.012L170.753 63.14C170.575 63.4707 170.347 63.7173 170.069 63.88C169.795 64.04 169.456 64.12 169.053 64.12ZM169.201 63.436C169.439 63.436 169.643 63.3947 169.813 63.312C169.984 63.2267 170.121 63.1187 170.225 62.988C170.329 62.8573 170.397 62.7213 170.429 62.58C170.475 62.452 170.5 62.308 170.505 62.148C170.513 61.988 170.517 61.86 170.517 61.764L170.789 61.864C170.525 61.904 170.285 61.94 170.069 61.972C169.853 62.004 169.657 62.036 169.481 62.068C169.308 62.0973 169.153 62.1333 169.017 62.176C168.903 62.216 168.8 62.264 168.709 62.32C168.621 62.376 168.551 62.444 168.497 62.524C168.447 62.604 168.421 62.7013 168.421 62.816C168.421 62.928 168.449 63.032 168.505 63.128C168.561 63.2213 168.647 63.296 168.761 63.352C168.876 63.408 169.023 63.436 169.201 63.436ZM172.384 64L172.388 58.24H173.236V61.76L174.932 59.68H175.996L174.204 61.84L176.18 64H175.044L173.236 61.92V64H172.384ZM177.803 64.12C177.483 64.12 177.215 64.0613 176.999 63.944C176.783 63.824 176.619 63.6667 176.507 63.472C176.398 63.2747 176.343 63.0587 176.343 62.824C176.343 62.6053 176.382 62.4133 176.459 62.248C176.537 62.0827 176.651 61.9427 176.803 61.828C176.955 61.7107 177.142 61.616 177.363 61.544C177.555 61.488 177.773 61.4387 178.015 61.396C178.258 61.3533 178.513 61.3133 178.779 61.276C179.049 61.2387 179.315 61.2013 179.579 61.164L179.275 61.332C179.281 60.9933 179.209 60.7427 179.059 60.58C178.913 60.4147 178.659 60.332 178.299 60.332C178.073 60.332 177.865 60.3853 177.675 60.492C177.486 60.596 177.354 60.7693 177.279 61.012L176.499 60.772C176.606 60.4013 176.809 60.1067 177.107 59.888C177.409 59.6693 177.809 59.56 178.307 59.56C178.694 59.56 179.03 59.6267 179.315 59.76C179.603 59.8907 179.814 60.0987 179.947 60.384C180.017 60.5253 180.059 60.6747 180.075 60.832C180.091 60.9893 180.099 61.1587 180.099 61.34V64H179.359V63.012L179.503 63.14C179.325 63.4707 179.097 63.7173 178.819 63.88C178.545 64.04 178.206 64.12 177.803 64.12ZM177.951 63.436C178.189 63.436 178.393 63.3947 178.563 63.312C178.734 63.2267 178.871 63.1187 178.975 62.988C179.079 62.8573 179.147 62.7213 179.179 62.58C179.225 62.452 179.25 62.308 179.255 62.148C179.263 61.988 179.267 61.86 179.267 61.764L179.539 61.864C179.275 61.904 179.035 61.94 178.819 61.972C178.603 62.004 178.407 62.036 178.231 62.068C178.058 62.0973 177.903 62.1333 177.767 62.176C177.653 62.216 177.55 62.264 177.459 62.32C177.371 62.376 177.301 62.444 177.247 62.524C177.197 62.604 177.171 62.7013 177.171 62.816C177.171 62.928 177.199 63.032 177.255 63.128C177.311 63.2213 177.397 63.296 177.511 63.352C177.626 63.408 177.773 63.436 177.951 63.436ZM184.17 64V61.876C184.17 61.708 184.155 61.536 184.126 61.36C184.099 61.1813 184.046 61.016 183.966 60.864C183.889 60.712 183.778 60.5893 183.634 60.496C183.493 60.4027 183.307 60.356 183.078 60.356C182.929 60.356 182.787 60.3813 182.654 60.432C182.521 60.48 182.403 60.5587 182.302 60.668C182.203 60.7773 182.125 60.9213 182.066 61.1C182.01 61.2787 181.982 61.496 181.982 61.752L181.462 61.556C181.462 61.164 181.535 60.8187 181.682 60.52C181.829 60.2187 182.039 59.984 182.314 59.816C182.589 59.648 182.921 59.564 183.31 59.564C183.609 59.564 183.859 59.612 184.062 59.708C184.265 59.804 184.429 59.9307 184.554 60.088C184.682 60.2427 184.779 60.412 184.846 60.596C184.913 60.78 184.958 60.96 184.982 61.136C185.006 61.312 185.018 61.4667 185.018 61.6V64H184.17ZM181.134 64V59.68H181.882V60.928H181.982V64H181.134ZM188.882 64.12C188.562 64.12 188.294 64.0613 188.078 63.944C187.862 63.824 187.698 63.6667 187.586 63.472C187.476 63.2747 187.422 63.0587 187.422 62.824C187.422 62.6053 187.46 62.4133 187.538 62.248C187.615 62.0827 187.73 61.9427 187.882 61.828C188.034 61.7107 188.22 61.616 188.442 61.544C188.634 61.488 188.851 61.4387 189.094 61.396C189.336 61.3533 189.591 61.3133 189.858 61.276C190.127 61.2387 190.394 61.2013 190.658 61.164L190.354 61.332C190.359 60.9933 190.287 60.7427 190.138 60.58C189.991 60.4147 189.738 60.332 189.378 60.332C189.151 60.332 188.943 60.3853 188.754 60.492C188.564 60.596 188.432 60.7693 188.358 61.012L187.578 60.772C187.684 60.4013 187.887 60.1067 188.186 59.888C188.487 59.6693 188.887 59.56 189.386 59.56C189.772 59.56 190.108 59.6267 190.394 59.76C190.682 59.8907 190.892 60.0987 191.026 60.384C191.095 60.5253 191.138 60.6747 191.154 60.832C191.17 60.9893 191.178 61.1587 191.178 61.34V64H190.438V63.012L190.582 63.14C190.403 63.4707 190.175 63.7173 189.898 63.88C189.623 64.04 189.284 64.12 188.882 64.12ZM189.03 63.436C189.267 63.436 189.471 63.3947 189.642 63.312C189.812 63.2267 189.95 63.1187 190.054 62.988C190.158 62.8573 190.226 62.7213 190.258 62.58C190.303 62.452 190.328 62.308 190.334 62.148C190.342 61.988 190.346 61.86 190.346 61.764L190.618 61.864C190.354 61.904 190.114 61.94 189.898 61.972C189.682 62.004 189.486 62.036 189.31 62.068C189.136 62.0973 188.982 62.1333 188.846 62.176C188.731 62.216 188.628 62.264 188.538 62.32C188.45 62.376 188.379 62.444 188.326 62.524C188.275 62.604 188.25 62.7013 188.25 62.816C188.25 62.928 188.278 63.032 188.334 63.128C188.39 63.2213 188.475 63.296 188.59 63.352C188.704 63.408 188.851 63.436 189.03 63.436ZM194.244 64.12C193.831 64.12 193.484 64.02 193.204 63.82C192.924 63.6173 192.712 63.344 192.568 63C192.424 62.656 192.352 62.268 192.352 61.836C192.352 61.404 192.423 61.016 192.564 60.672C192.708 60.328 192.919 60.0573 193.196 59.86C193.476 59.66 193.82 59.56 194.228 59.56C194.634 59.56 194.983 59.66 195.276 59.86C195.572 60.0573 195.8 60.328 195.96 60.672C196.12 61.0133 196.2 61.4013 196.2 61.836C196.2 62.268 196.12 62.6573 195.96 63.004C195.803 63.348 195.578 63.62 195.284 63.82C194.994 64.02 194.647 64.12 194.244 64.12ZM192.212 65.92V59.68H192.956V62.788H193.052V65.92H192.212ZM194.128 63.364C194.395 63.364 194.615 63.296 194.788 63.16C194.964 63.024 195.095 62.8413 195.18 62.612C195.268 62.38 195.312 62.1213 195.312 61.836C195.312 61.5533 195.268 61.2973 195.18 61.068C195.095 60.8387 194.963 60.656 194.784 60.52C194.606 60.384 194.378 60.316 194.1 60.316C193.839 60.316 193.623 60.38 193.452 60.508C193.284 60.636 193.159 60.8147 193.076 61.044C192.996 61.2733 192.956 61.5373 192.956 61.836C192.956 62.1347 192.996 62.3987 193.076 62.628C193.156 62.8573 193.283 63.0373 193.456 63.168C193.63 63.2987 193.854 63.364 194.128 63.364ZM197.163 64V58.12H197.999V64H197.163ZM199.281 58.972V58.16H200.117V58.972H199.281ZM199.281 64V59.68H200.117V64H199.281ZM201.314 64L201.318 58.24H202.166V61.76L203.862 59.68H204.926L203.134 61.84L205.11 64H203.974L202.166 61.92V64H201.314ZM206.733 64.12C206.413 64.12 206.145 64.0613 205.929 63.944C205.713 63.824 205.549 63.6667 205.437 63.472C205.328 63.2747 205.273 63.0587 205.273 62.824C205.273 62.6053 205.312 62.4133 205.389 62.248C205.466 62.0827 205.581 61.9427 205.733 61.828C205.885 61.7107 206.072 61.616 206.293 61.544C206.485 61.488 206.702 61.4387 206.945 61.396C207.188 61.3533 207.442 61.3133 207.709 61.276C207.978 61.2387 208.245 61.2013 208.509 61.164L208.205 61.332C208.21 60.9933 208.138 60.7427 207.989 60.58C207.842 60.4147 207.589 60.332 207.229 60.332C207.002 60.332 206.794 60.3853 206.605 60.492C206.416 60.596 206.284 60.7693 206.209 61.012L205.429 60.772C205.536 60.4013 205.738 60.1067 206.037 59.888C206.338 59.6693 206.738 59.56 207.237 59.56C207.624 59.56 207.96 59.6267 208.245 59.76C208.533 59.8907 208.744 60.0987 208.877 60.384C208.946 60.5253 208.989 60.6747 209.005 60.832C209.021 60.9893 209.029 61.1587 209.029 61.34V64H208.289V63.012L208.433 63.14C208.254 63.4707 208.026 63.7173 207.749 63.88C207.474 64.04 207.136 64.12 206.733 64.12ZM206.881 63.436C207.118 63.436 207.322 63.3947 207.493 63.312C207.664 63.2267 207.801 63.1187 207.905 62.988C208.009 62.8573 208.077 62.7213 208.109 62.58C208.154 62.452 208.18 62.308 208.185 62.148C208.193 61.988 208.197 61.86 208.197 61.764L208.469 61.864C208.205 61.904 207.965 61.94 207.749 61.972C207.533 62.004 207.337 62.036 207.161 62.068C206.988 62.0973 206.833 62.1333 206.697 62.176C206.582 62.216 206.48 62.264 206.389 62.32C206.301 62.376 206.23 62.444 206.177 62.524C206.126 62.604 206.101 62.7013 206.101 62.816C206.101 62.928 206.129 63.032 206.185 63.128C206.241 63.2213 206.326 63.296 206.441 63.352C206.556 63.408 206.702 63.436 206.881 63.436ZM211.72 64.116C211.194 64.116 210.766 64 210.436 63.768C210.105 63.536 209.902 63.2093 209.828 62.788L210.684 62.656C210.737 62.88 210.86 63.0573 211.052 63.188C211.246 63.316 211.488 63.38 211.776 63.38C212.037 63.38 212.241 63.3267 212.388 63.22C212.537 63.1133 212.612 62.9667 212.612 62.78C212.612 62.6707 212.585 62.5827 212.532 62.516C212.481 62.4467 212.373 62.3813 212.208 62.32C212.042 62.2587 211.79 62.1827 211.452 62.092C211.081 61.996 210.786 61.8933 210.568 61.784C210.352 61.672 210.197 61.5427 210.104 61.396C210.013 61.2467 209.968 61.0667 209.968 60.856C209.968 60.5947 210.037 60.3667 210.176 60.172C210.314 59.9773 210.509 59.8267 210.76 59.72C211.013 59.6133 211.309 59.56 211.648 59.56C211.978 59.56 212.273 59.612 212.532 59.716C212.79 59.82 213 59.968 213.16 60.16C213.32 60.3493 213.416 60.572 213.448 60.828L212.592 60.984C212.562 60.776 212.465 60.612 212.3 60.492C212.134 60.372 211.92 60.3067 211.656 60.296C211.402 60.2853 211.197 60.328 211.04 60.424C210.882 60.5173 210.804 60.6467 210.804 60.812C210.804 60.908 210.833 60.9893 210.892 61.056C210.953 61.1227 211.07 61.1867 211.244 61.248C211.417 61.3093 211.673 61.3827 212.012 61.468C212.374 61.5613 212.662 61.6653 212.876 61.78C213.089 61.892 213.241 62.0267 213.332 62.184C213.425 62.3387 213.472 62.5267 213.472 62.748C213.472 63.1747 213.316 63.5093 213.004 63.752C212.694 63.9947 212.266 64.116 211.72 64.116ZM214.437 58.972V58.16H215.273V58.972H214.437ZM214.437 64V59.68H215.273V64H214.437ZM218.156 58.972V58.16H218.992V58.972H218.156ZM218.156 64V59.68H218.992V64H218.156ZM223.225 64V61.876C223.225 61.708 223.21 61.536 223.181 61.36C223.154 61.1813 223.101 61.016 223.021 60.864C222.943 60.712 222.833 60.5893 222.689 60.496C222.547 60.4027 222.362 60.356 222.133 60.356C221.983 60.356 221.842 60.3813 221.709 60.432C221.575 60.48 221.458 60.5587 221.357 60.668C221.258 60.7773 221.179 60.9213 221.121 61.1C221.065 61.2787 221.037 61.496 221.037 61.752L220.517 61.556C220.517 61.164 220.59 60.8187 220.737 60.52C220.883 60.2187 221.094 59.984 221.369 59.816C221.643 59.648 221.975 59.564 222.365 59.564C222.663 59.564 222.914 59.612 223.117 59.708C223.319 59.804 223.483 59.9307 223.609 60.088C223.737 60.2427 223.834 60.412 223.901 60.596C223.967 60.78 224.013 60.96 224.037 61.136C224.061 61.312 224.073 61.4667 224.073 61.6V64H223.225ZM220.189 64V59.68H220.937V60.928H221.037V64H220.189ZM225.195 58.972V58.16H226.031V58.972H225.195ZM225.195 64V59.68H226.031V64H225.195Z" fill="#8A8A8A"/>
</svg>
