<svg width="279" height="146" viewBox="0 0 279 146" fill="none" xmlns="http://www.w3.org/2000/svg">
<rect width="279" height="146" rx="12" fill="#FAFF9A"/>
<path d="M19.4 37V22.6H24.06C24.1733 22.6 24.4067 22.6033 24.76 22.61C25.1133 22.6167 25.4533 22.64 25.78 22.68C26.94 22.82 27.9233 23.2233 28.73 23.89C29.5367 24.5567 30.15 25.4033 30.57 26.43C30.99 27.4567 31.2 28.58 31.2 29.8C31.2 31.02 30.99 32.1433 30.57 33.17C30.15 34.1967 29.5367 35.0433 28.73 35.71C27.9233 36.3767 26.94 36.78 25.78 36.92C25.4533 36.96 25.1133 36.9833 24.76 36.99C24.4067 36.9967 24.1733 37 24.06 37H19.4ZM22.16 34.44H24.06C24.24 34.44 24.4833 34.4367 24.79 34.43C25.0967 34.4167 25.3733 34.3867 25.62 34.34C26.2467 34.2133 26.7567 33.92 27.15 33.46C27.55 33 27.8433 32.4467 28.03 31.8C28.2233 31.1533 28.32 30.4867 28.32 29.8C28.32 29.08 28.22 28.3967 28.02 27.75C27.8267 27.1033 27.53 26.5567 27.13 26.11C26.73 25.6633 26.2267 25.38 25.62 25.26C25.3733 25.2067 25.0967 25.1767 24.79 25.17C24.4833 25.1633 24.24 25.16 24.06 25.16H22.16V34.44ZM36.5992 37.3C35.8259 37.3 35.1692 37.1533 34.6292 36.86C34.0959 36.56 33.6892 36.1633 33.4092 35.67C33.1359 35.17 32.9992 34.62 32.9992 34.02C32.9992 33.52 33.0759 33.0633 33.2292 32.65C33.3826 32.2367 33.6292 31.8733 33.9692 31.56C34.3159 31.24 34.7792 30.9733 35.3592 30.76C35.7592 30.6133 36.2359 30.4833 36.7892 30.37C37.3426 30.2567 37.9692 30.15 38.6692 30.05C39.3692 29.9433 40.1392 29.8267 40.9792 29.7L39.9992 30.24C39.9992 29.6 39.8459 29.13 39.5392 28.83C39.2326 28.53 38.7192 28.38 37.9992 28.38C37.5992 28.38 37.1826 28.4767 36.7492 28.67C36.3159 28.8633 36.0126 29.2067 35.8392 29.7L33.3792 28.92C33.6526 28.0267 34.1659 27.3 34.9192 26.74C35.6726 26.18 36.6992 25.9 37.9992 25.9C38.9526 25.9 39.7992 26.0467 40.5392 26.34C41.2792 26.6333 41.8392 27.14 42.2192 27.86C42.4326 28.26 42.5592 28.66 42.5992 29.06C42.6392 29.46 42.6592 29.9067 42.6592 30.4V37H40.2792V34.78L40.6192 35.24C40.0926 35.9667 39.5226 36.4933 38.9092 36.82C38.3026 37.14 37.5326 37.3 36.5992 37.3ZM37.1792 35.16C37.6792 35.16 38.0992 35.0733 38.4392 34.9C38.7859 34.72 39.0592 34.5167 39.2592 34.29C39.4659 34.0633 39.6059 33.8733 39.6792 33.72C39.8192 33.4267 39.8992 33.0867 39.9192 32.7C39.9459 32.3067 39.9592 31.98 39.9592 31.72L40.7592 31.92C39.9526 32.0533 39.2992 32.1667 38.7992 32.26C38.2992 32.3467 37.8959 32.4267 37.5892 32.5C37.2826 32.5733 37.0126 32.6533 36.7792 32.74C36.5126 32.8467 36.2959 32.9633 36.1292 33.09C35.9692 33.21 35.8492 33.3433 35.7692 33.49C35.6959 33.6367 35.6592 33.8 35.6592 33.98C35.6592 34.2267 35.7192 34.44 35.8392 34.62C35.9659 34.7933 36.1426 34.9267 36.3692 35.02C36.5959 35.1133 36.8659 35.16 37.1792 35.16ZM50.5594 37.3C49.486 37.3 48.5894 37.05 47.8694 36.55C47.1494 36.05 46.606 35.37 46.2394 34.51C45.8794 33.65 45.6994 32.68 45.6994 31.6C45.6994 30.52 45.8794 29.55 46.2394 28.69C46.5994 27.83 47.1294 27.15 47.8294 26.65C48.5294 26.15 49.3927 25.9 50.4194 25.9C51.4527 25.9 52.3527 26.1467 53.1194 26.64C53.886 27.1333 54.4794 27.81 54.8994 28.67C55.326 29.5233 55.5394 30.5 55.5394 31.6C55.5394 32.68 55.3294 33.65 54.9094 34.51C54.496 35.37 53.916 36.05 53.1694 36.55C52.4227 37.05 51.5527 37.3 50.5594 37.3ZM45.2394 41.8V26.2H47.6394V33.6H47.9794V41.8H45.2394ZM50.1194 34.88C50.706 34.88 51.186 34.7333 51.5594 34.44C51.9327 34.1467 52.2094 33.7533 52.3894 33.26C52.5694 32.76 52.6594 32.2067 52.6594 31.6C52.6594 31 52.566 30.4533 52.3794 29.96C52.1927 29.46 51.9027 29.0633 51.5094 28.77C51.1227 28.47 50.626 28.32 50.0194 28.32C49.4527 28.32 48.9927 28.4567 48.6394 28.73C48.2927 29.0033 48.0394 29.3867 47.8794 29.88C47.7194 30.3733 47.6394 30.9467 47.6394 31.6C47.6394 32.2533 47.7194 32.8267 47.8794 33.32C48.0394 33.8133 48.2994 34.1967 48.6594 34.47C49.026 34.7433 49.5127 34.88 50.1194 34.88ZM60.7398 37.3C59.9665 37.3 59.3098 37.1533 58.7698 36.86C58.2365 36.56 57.8298 36.1633 57.5498 35.67C57.2765 35.17 57.1398 34.62 57.1398 34.02C57.1398 33.52 57.2165 33.0633 57.3698 32.65C57.5232 32.2367 57.7698 31.8733 58.1098 31.56C58.4565 31.24 58.9198 30.9733 59.4998 30.76C59.8998 30.6133 60.3765 30.4833 60.9298 30.37C61.4832 30.2567 62.1098 30.15 62.8098 30.05C63.5098 29.9433 64.2798 29.8267 65.1198 29.7L64.1398 30.24C64.1398 29.6 63.9865 29.13 63.6798 28.83C63.3732 28.53 62.8598 28.38 62.1398 28.38C61.7398 28.38 61.3232 28.4767 60.8898 28.67C60.4565 28.8633 60.1532 29.2067 59.9798 29.7L57.5198 28.92C57.7932 28.0267 58.3065 27.3 59.0598 26.74C59.8132 26.18 60.8398 25.9 62.1398 25.9C63.0932 25.9 63.9398 26.0467 64.6798 26.34C65.4198 26.6333 65.9798 27.14 66.3598 27.86C66.5732 28.26 66.6998 28.66 66.7398 29.06C66.7798 29.46 66.7998 29.9067 66.7998 30.4V37H64.4198V34.78L64.7598 35.24C64.2332 35.9667 63.6632 36.4933 63.0498 36.82C62.4432 37.14 61.6732 37.3 60.7398 37.3ZM61.3198 35.16C61.8198 35.16 62.2398 35.0733 62.5798 34.9C62.9265 34.72 63.1998 34.5167 63.3998 34.29C63.6065 34.0633 63.7465 33.8733 63.8198 33.72C63.9598 33.4267 64.0398 33.0867 64.0598 32.7C64.0865 32.3067 64.0998 31.98 64.0998 31.72L64.8998 31.92C64.0932 32.0533 63.4398 32.1667 62.9398 32.26C62.4398 32.3467 62.0365 32.4267 61.7298 32.5C61.4232 32.5733 61.1532 32.6533 60.9198 32.74C60.6532 32.8467 60.4365 32.9633 60.2698 33.09C60.1098 33.21 59.9898 33.3433 59.9098 33.49C59.8365 33.6367 59.7998 33.8 59.7998 33.98C59.7998 34.2267 59.8598 34.44 59.9798 34.62C60.1065 34.7933 60.2832 34.9267 60.5098 35.02C60.7365 35.1133 61.0065 35.16 61.3198 35.16ZM75.88 37C75.1333 37.14 74.4 37.2 73.68 37.18C72.9667 37.1667 72.3267 37.0433 71.76 36.81C71.2 36.57 70.7733 36.1867 70.48 35.66C70.2133 35.1667 70.0733 34.6667 70.06 34.16C70.0467 33.6467 70.04 33.0667 70.04 32.42V23.2H72.76V32.26C72.76 32.68 72.7633 33.06 72.77 33.4C72.7833 33.7333 72.8533 34 72.98 34.2C73.22 34.58 73.6033 34.7867 74.13 34.82C74.6567 34.8533 75.24 34.8267 75.88 34.74V37ZM68.2 28.3V26.2H75.88V28.3H68.2ZM78.2667 37L78.2867 22.6H81.0467V31.4L84.7067 26.2H88.0667L84.1667 31.6L88.3267 37H84.7867L81.0467 31.8V37H78.2667ZM92.3219 37.3C91.5485 37.3 90.8919 37.1533 90.3519 36.86C89.8185 36.56 89.4119 36.1633 89.1319 35.67C88.8585 35.17 88.7219 34.62 88.7219 34.02C88.7219 33.52 88.7985 33.0633 88.9519 32.65C89.1052 32.2367 89.3519 31.8733 89.6919 31.56C90.0385 31.24 90.5019 30.9733 91.0819 30.76C91.4819 30.6133 91.9585 30.4833 92.5119 30.37C93.0652 30.2567 93.6919 30.15 94.3919 30.05C95.0919 29.9433 95.8619 29.8267 96.7019 29.7L95.7219 30.24C95.7219 29.6 95.5685 29.13 95.2619 28.83C94.9552 28.53 94.4419 28.38 93.7219 28.38C93.3219 28.38 92.9052 28.4767 92.4719 28.67C92.0385 28.8633 91.7352 29.2067 91.5619 29.7L89.1019 28.92C89.3752 28.0267 89.8885 27.3 90.6419 26.74C91.3952 26.18 92.4219 25.9 93.7219 25.9C94.6752 25.9 95.5219 26.0467 96.2619 26.34C97.0019 26.6333 97.5619 27.14 97.9419 27.86C98.1552 28.26 98.2819 28.66 98.3219 29.06C98.3619 29.46 98.3819 29.9067 98.3819 30.4V37H96.0019V34.78L96.3419 35.24C95.8152 35.9667 95.2452 36.4933 94.6319 36.82C94.0252 37.14 93.2552 37.3 92.3219 37.3ZM92.9019 35.16C93.4019 35.16 93.8219 35.0733 94.1619 34.9C94.5085 34.72 94.7819 34.5167 94.9819 34.29C95.1885 34.0633 95.3285 33.8733 95.4019 33.72C95.5419 33.4267 95.6219 33.0867 95.6419 32.7C95.6685 32.3067 95.6819 31.98 95.6819 31.72L96.4819 31.92C95.6752 32.0533 95.0219 32.1667 94.5219 32.26C94.0219 32.3467 93.6185 32.4267 93.3119 32.5C93.0052 32.5733 92.7352 32.6533 92.5019 32.74C92.2352 32.8467 92.0185 32.9633 91.8519 33.09C91.6919 33.21 91.5719 33.3433 91.4919 33.49C91.4185 33.6367 91.3819 33.8 91.3819 33.98C91.3819 34.2267 91.4419 34.44 91.5619 34.62C91.6885 34.7933 91.8652 34.9267 92.0919 35.02C92.3185 35.1133 92.5885 35.16 92.9019 35.16ZM108.342 37V31.9C108.342 31.6533 108.329 31.34 108.302 30.96C108.275 30.5733 108.192 30.1867 108.052 29.8C107.912 29.4133 107.682 29.09 107.362 28.83C107.049 28.57 106.602 28.44 106.022 28.44C105.789 28.44 105.539 28.4767 105.272 28.55C105.005 28.6233 104.755 28.7667 104.522 28.98C104.289 29.1867 104.095 29.4933 103.942 29.9C103.795 30.3067 103.722 30.8467 103.722 31.52L102.162 30.78C102.162 29.9267 102.335 29.1267 102.682 28.38C103.029 27.6333 103.549 27.03 104.242 26.57C104.942 26.11 105.822 25.88 106.882 25.88C107.729 25.88 108.419 26.0233 108.952 26.31C109.485 26.5967 109.899 26.96 110.192 27.4C110.492 27.84 110.705 28.3 110.832 28.78C110.959 29.2533 111.035 29.6867 111.062 30.08C111.089 30.4733 111.102 30.76 111.102 30.94V37H108.342ZM100.962 37V26.2H103.382V29.78H103.722V37H100.962ZM123.141 37.3C122.074 37.3 121.111 37.1133 120.251 36.74C119.397 36.36 118.694 35.82 118.141 35.12C117.594 34.4133 117.247 33.5733 117.101 32.6L119.941 32.18C120.141 33.0067 120.554 33.6433 121.181 34.09C121.807 34.5367 122.521 34.76 123.321 34.76C123.767 34.76 124.201 34.69 124.621 34.55C125.041 34.41 125.384 34.2033 125.651 33.93C125.924 33.6567 126.061 33.32 126.061 32.92C126.061 32.7733 126.037 32.6333 125.991 32.5C125.951 32.36 125.881 32.23 125.781 32.11C125.681 31.99 125.537 31.8767 125.351 31.77C125.171 31.6633 124.941 31.5667 124.661 31.48L120.921 30.38C120.641 30.3 120.314 30.1867 119.941 30.04C119.574 29.8933 119.217 29.6833 118.871 29.41C118.524 29.1367 118.234 28.7767 118.001 28.33C117.774 27.8767 117.661 27.3067 117.661 26.62C117.661 25.6533 117.904 24.85 118.391 24.21C118.877 23.57 119.527 23.0933 120.341 22.78C121.154 22.4667 122.054 22.3133 123.041 22.32C124.034 22.3333 124.921 22.5033 125.701 22.83C126.481 23.1567 127.134 23.6333 127.661 24.26C128.187 24.88 128.567 25.64 128.801 26.54L125.861 27.04C125.754 26.5733 125.557 26.18 125.271 25.86C124.984 25.54 124.641 25.2967 124.241 25.13C123.847 24.9633 123.434 24.8733 123.001 24.86C122.574 24.8467 122.171 24.9067 121.791 25.04C121.417 25.1667 121.111 25.3533 120.871 25.6C120.637 25.8467 120.521 26.14 120.521 26.48C120.521 26.7933 120.617 27.05 120.811 27.25C121.004 27.4433 121.247 27.6 121.541 27.72C121.834 27.84 122.134 27.94 122.441 28.02L124.941 28.7C125.314 28.8 125.727 28.9333 126.181 29.1C126.634 29.26 127.067 29.4867 127.481 29.78C127.901 30.0667 128.244 30.4467 128.511 30.92C128.784 31.3933 128.921 31.9933 128.921 32.72C128.921 33.4933 128.757 34.17 128.431 34.75C128.111 35.3233 127.677 35.8 127.131 36.18C126.584 36.5533 125.964 36.8333 125.271 37.02C124.584 37.2067 123.874 37.3 123.141 37.3ZM136.139 37.3C135.032 37.3 134.055 37.0633 133.209 36.59C132.369 36.11 131.709 35.4533 131.229 34.62C130.755 33.78 130.519 32.82 130.519 31.74C130.519 30.56 130.752 29.5333 131.219 28.66C131.685 27.7867 132.329 27.11 133.149 26.63C133.969 26.1433 134.912 25.9 135.979 25.9C137.112 25.9 138.075 26.1667 138.869 26.7C139.662 27.2333 140.249 27.9833 140.629 28.95C141.009 29.9167 141.142 31.0533 141.029 32.36H138.339V31.36C138.339 30.26 138.162 29.47 137.809 28.99C137.462 28.5033 136.892 28.26 136.099 28.26C135.172 28.26 134.489 28.5433 134.049 29.11C133.615 29.67 133.399 30.5 133.399 31.6C133.399 32.6067 133.615 33.3867 134.049 33.94C134.489 34.4867 135.132 34.76 135.979 34.76C136.512 34.76 136.969 34.6433 137.349 34.41C137.729 34.1767 138.019 33.84 138.219 33.4L140.939 34.18C140.532 35.1667 139.889 35.9333 139.009 36.48C138.135 37.0267 137.179 37.3 136.139 37.3ZM132.559 32.36V30.34H139.719V32.36H132.559ZM148.047 37.3C146.927 37.3 145.967 37.05 145.167 36.55C144.367 36.05 143.753 35.37 143.327 34.51C142.9 33.65 142.687 32.68 142.687 31.6C142.687 30.5067 142.907 29.53 143.347 28.67C143.793 27.81 144.42 27.1333 145.227 26.64C146.033 26.1467 146.987 25.9 148.087 25.9C149.36 25.9 150.427 26.2233 151.287 26.87C152.153 27.51 152.707 28.3867 152.947 29.5L150.227 30.22C150.067 29.66 149.787 29.2233 149.387 28.91C148.993 28.5967 148.547 28.44 148.047 28.44C147.473 28.44 147.003 28.58 146.637 28.86C146.27 29.1333 146 29.51 145.827 29.99C145.653 30.4633 145.567 31 145.567 31.6C145.567 32.54 145.773 33.3033 146.187 33.89C146.607 34.47 147.227 34.76 148.047 34.76C148.66 34.76 149.127 34.62 149.447 34.34C149.767 34.06 150.007 33.66 150.167 33.14L152.947 33.72C152.64 34.8667 152.06 35.75 151.207 36.37C150.353 36.99 149.3 37.3 148.047 37.3ZM157.752 37.3C156.978 37.3 156.322 37.1533 155.782 36.86C155.248 36.56 154.842 36.1633 154.562 35.67C154.288 35.17 154.152 34.62 154.152 34.02C154.152 33.52 154.228 33.0633 154.382 32.65C154.535 32.2367 154.782 31.8733 155.122 31.56C155.468 31.24 155.932 30.9733 156.512 30.76C156.912 30.6133 157.388 30.4833 157.942 30.37C158.495 30.2567 159.122 30.15 159.822 30.05C160.522 29.9433 161.292 29.8267 162.132 29.7L161.152 30.24C161.152 29.6 160.998 29.13 160.692 28.83C160.385 28.53 159.872 28.38 159.152 28.38C158.752 28.38 158.335 28.4767 157.902 28.67C157.468 28.8633 157.165 29.2067 156.992 29.7L154.532 28.92C154.805 28.0267 155.318 27.3 156.072 26.74C156.825 26.18 157.852 25.9 159.152 25.9C160.105 25.9 160.952 26.0467 161.692 26.34C162.432 26.6333 162.992 27.14 163.372 27.86C163.585 28.26 163.712 28.66 163.752 29.06C163.792 29.46 163.812 29.9067 163.812 30.4V37H161.432V34.78L161.772 35.24C161.245 35.9667 160.675 36.4933 160.062 36.82C159.455 37.14 158.685 37.3 157.752 37.3ZM158.332 35.16C158.832 35.16 159.252 35.0733 159.592 34.9C159.938 34.72 160.212 34.5167 160.412 34.29C160.618 34.0633 160.758 33.8733 160.832 33.72C160.972 33.4267 161.052 33.0867 161.072 32.7C161.098 32.3067 161.112 31.98 161.112 31.72L161.912 31.92C161.105 32.0533 160.452 32.1667 159.952 32.26C159.452 32.3467 159.048 32.4267 158.742 32.5C158.435 32.5733 158.165 32.6533 157.932 32.74C157.665 32.8467 157.448 32.9633 157.282 33.09C157.122 33.21 157.002 33.3433 156.922 33.49C156.848 33.6367 156.812 33.8 156.812 33.98C156.812 34.2267 156.872 34.44 156.992 34.62C157.118 34.7933 157.295 34.9267 157.522 35.02C157.748 35.1133 158.018 35.16 158.332 35.16ZM166.412 37V26.2H168.812V28.84L168.552 28.5C168.692 28.1267 168.878 27.7867 169.112 27.48C169.345 27.1733 169.632 26.92 169.972 26.72C170.232 26.56 170.515 26.4367 170.822 26.35C171.128 26.2567 171.445 26.2 171.772 26.18C172.098 26.1533 172.425 26.16 172.752 26.2V28.74C172.452 28.6467 172.102 28.6167 171.702 28.65C171.308 28.6767 170.952 28.7667 170.632 28.92C170.312 29.0667 170.042 29.2633 169.822 29.51C169.602 29.75 169.435 30.0367 169.322 30.37C169.208 30.6967 169.152 31.0667 169.152 31.48V37H166.412ZM177.439 37.3C176.666 37.3 176.009 37.1533 175.469 36.86C174.936 36.56 174.529 36.1633 174.249 35.67C173.976 35.17 173.839 34.62 173.839 34.02C173.839 33.52 173.916 33.0633 174.069 32.65C174.222 32.2367 174.469 31.8733 174.809 31.56C175.156 31.24 175.619 30.9733 176.199 30.76C176.599 30.6133 177.076 30.4833 177.629 30.37C178.182 30.2567 178.809 30.15 179.509 30.05C180.209 29.9433 180.979 29.8267 181.819 29.7L180.839 30.24C180.839 29.6 180.686 29.13 180.379 28.83C180.072 28.53 179.559 28.38 178.839 28.38C178.439 28.38 178.022 28.4767 177.589 28.67C177.156 28.8633 176.852 29.2067 176.679 29.7L174.219 28.92C174.492 28.0267 175.006 27.3 175.759 26.74C176.512 26.18 177.539 25.9 178.839 25.9C179.792 25.9 180.639 26.0467 181.379 26.34C182.119 26.6333 182.679 27.14 183.059 27.86C183.272 28.26 183.399 28.66 183.439 29.06C183.479 29.46 183.499 29.9067 183.499 30.4V37H181.119V34.78L181.459 35.24C180.932 35.9667 180.362 36.4933 179.749 36.82C179.142 37.14 178.372 37.3 177.439 37.3ZM178.019 35.16C178.519 35.16 178.939 35.0733 179.279 34.9C179.626 34.72 179.899 34.5167 180.099 34.29C180.306 34.0633 180.446 33.8733 180.519 33.72C180.659 33.4267 180.739 33.0867 180.759 32.7C180.786 32.3067 180.799 31.98 180.799 31.72L181.599 31.92C180.792 32.0533 180.139 32.1667 179.639 32.26C179.139 32.3467 178.736 32.4267 178.429 32.5C178.122 32.5733 177.852 32.6533 177.619 32.74C177.352 32.8467 177.136 32.9633 176.969 33.09C176.809 33.21 176.689 33.3433 176.609 33.49C176.536 33.6367 176.499 33.8 176.499 33.98C176.499 34.2267 176.559 34.44 176.679 34.62C176.806 34.7933 176.982 34.9267 177.209 35.02C177.436 35.1133 177.706 35.16 178.019 35.16ZM25.4 64.3C24.4933 64.3 23.63 64.14 22.81 63.82C21.99 63.4933 21.2633 63.0133 20.63 62.38C20.0033 61.7467 19.5067 60.9633 19.14 60.03C18.78 59.0967 18.6 58.02 18.6 56.8C18.6 55.2067 18.9033 53.8533 19.51 52.74C20.1233 51.62 20.9433 50.7667 21.97 50.18C23.0033 49.5933 24.1467 49.3 25.4 49.3C27.2533 49.3 28.71 49.73 29.77 50.59C30.83 51.45 31.54 52.6667 31.9 54.24L29.12 54.64C28.86 53.8 28.4333 53.13 27.84 52.63C27.2533 52.1233 26.5 51.8667 25.58 51.86C24.6667 51.8467 23.9067 52.0433 23.3 52.45C22.6933 52.8567 22.2367 53.4333 21.93 54.18C21.63 54.9267 21.48 55.8 21.48 56.8C21.48 57.8 21.63 58.6667 21.93 59.4C22.2367 60.1333 22.6933 60.7033 23.3 61.11C23.9067 61.5167 24.6667 61.7267 25.58 61.74C26.2 61.7533 26.76 61.6467 27.26 61.42C27.7667 61.1933 28.1933 60.8367 28.54 60.35C28.8867 59.8633 29.1333 59.24 29.28 58.48H27V56.38H32.18C32.1933 56.4667 32.2033 56.62 32.21 56.84C32.2167 57.06 32.22 57.1867 32.22 57.22C32.22 58.6 31.94 59.8233 31.38 60.89C30.82 61.9567 30.03 62.7933 29.01 63.4C27.99 64 26.7867 64.3 25.4 64.3ZM34.2242 64V53.2H36.6242V55.84L36.3642 55.5C36.5042 55.1267 36.6909 54.7867 36.9242 54.48C37.1576 54.1733 37.4442 53.92 37.7842 53.72C38.0442 53.56 38.3276 53.4367 38.6342 53.35C38.9409 53.2567 39.2576 53.2 39.5842 53.18C39.9109 53.1533 40.2376 53.16 40.5642 53.2V55.74C40.2642 55.6467 39.9142 55.6167 39.5142 55.65C39.1209 55.6767 38.7642 55.7667 38.4442 55.92C38.1242 56.0667 37.8542 56.2633 37.6342 56.51C37.4142 56.75 37.2476 57.0367 37.1342 57.37C37.0209 57.6967 36.9642 58.0667 36.9642 58.48V64H34.2242ZM45.2516 64.3C44.4782 64.3 43.8216 64.1533 43.2816 63.86C42.7482 63.56 42.3416 63.1633 42.0616 62.67C41.7882 62.17 41.6516 61.62 41.6516 61.02C41.6516 60.52 41.7282 60.0633 41.8816 59.65C42.0349 59.2367 42.2816 58.8733 42.6216 58.56C42.9682 58.24 43.4316 57.9733 44.0116 57.76C44.4116 57.6133 44.8882 57.4833 45.4416 57.37C45.9949 57.2567 46.6216 57.15 47.3216 57.05C48.0216 56.9433 48.7916 56.8267 49.6316 56.7L48.6516 57.24C48.6516 56.6 48.4982 56.13 48.1916 55.83C47.8849 55.53 47.3716 55.38 46.6516 55.38C46.2516 55.38 45.8349 55.4767 45.4016 55.67C44.9682 55.8633 44.6649 56.2067 44.4916 56.7L42.0316 55.92C42.3049 55.0267 42.8182 54.3 43.5716 53.74C44.3249 53.18 45.3516 52.9 46.6516 52.9C47.6049 52.9 48.4516 53.0467 49.1916 53.34C49.9316 53.6333 50.4916 54.14 50.8716 54.86C51.0849 55.26 51.2116 55.66 51.2516 56.06C51.2916 56.46 51.3116 56.9067 51.3116 57.4V64H48.9316V61.78L49.2716 62.24C48.7449 62.9667 48.1749 63.4933 47.5616 63.82C46.9549 64.14 46.1849 64.3 45.2516 64.3ZM45.8316 62.16C46.3316 62.16 46.7516 62.0733 47.0916 61.9C47.4382 61.72 47.7116 61.5167 47.9116 61.29C48.1182 61.0633 48.2582 60.8733 48.3316 60.72C48.4716 60.4267 48.5516 60.0867 48.5716 59.7C48.5982 59.3067 48.6116 58.98 48.6116 58.72L49.4116 58.92C48.6049 59.0533 47.9516 59.1667 47.4516 59.26C46.9516 59.3467 46.5482 59.4267 46.2416 59.5C45.9349 59.5733 45.6649 59.6533 45.4316 59.74C45.1649 59.8467 44.9482 59.9633 44.7816 60.09C44.6216 60.21 44.5016 60.3433 44.4216 60.49C44.3482 60.6367 44.3116 60.8 44.3116 60.98C44.3116 61.2267 44.3716 61.44 44.4916 61.62C44.6182 61.7933 44.7949 61.9267 45.0216 62.02C45.2482 62.1133 45.5182 62.16 45.8316 62.16ZM60.3917 64C59.6451 64.14 58.9117 64.2 58.1917 64.18C57.4784 64.1667 56.8384 64.0433 56.2717 63.81C55.7117 63.57 55.2851 63.1867 54.9917 62.66C54.7251 62.1667 54.5851 61.6667 54.5717 61.16C54.5584 60.6467 54.5517 60.0667 54.5517 59.42V50.2H57.2717V59.26C57.2717 59.68 57.2751 60.06 57.2817 60.4C57.2951 60.7333 57.3651 61 57.4917 61.2C57.7317 61.58 58.1151 61.7867 58.6417 61.82C59.1684 61.8533 59.7517 61.8267 60.3917 61.74V64ZM52.7117 55.3V53.2H60.3917V55.3H52.7117ZM62.9984 51.7V49.3H65.7184V51.7H62.9984ZM62.9984 64V53.2H65.7184V64H62.9984ZM72.9364 64.3C71.5764 64.3 70.4764 63.9933 69.6364 63.38C68.8031 62.76 68.2964 61.8867 68.1164 60.76L70.8964 60.34C71.0097 60.8467 71.2597 61.2433 71.6464 61.53C72.0397 61.8167 72.5364 61.96 73.1364 61.96C73.6297 61.96 74.0097 61.8667 74.2764 61.68C74.5431 61.4867 74.6764 61.22 74.6764 60.88C74.6764 60.6667 74.6231 60.4967 74.5164 60.37C74.4097 60.2367 74.1697 60.1067 73.7964 59.98C73.4297 59.8533 72.8564 59.6867 72.0764 59.48C71.1964 59.2533 70.4931 59 69.9664 58.72C69.4397 58.44 69.0597 58.1067 68.8264 57.72C68.5931 57.3267 68.4764 56.8533 68.4764 56.3C68.4764 55.6067 68.6531 55.0067 69.0064 54.5C69.3597 53.9867 69.8564 53.5933 70.4964 53.32C71.1431 53.04 71.9031 52.9 72.7764 52.9C73.6231 52.9 74.3731 53.03 75.0264 53.29C75.6797 53.55 76.2064 53.92 76.6064 54.4C77.0131 54.88 77.2631 55.4467 77.3564 56.1L74.5764 56.6C74.5297 56.2 74.3564 55.8833 74.0564 55.65C73.7564 55.4167 73.3497 55.28 72.8364 55.24C72.3364 55.2067 71.9331 55.2733 71.6264 55.44C71.3264 55.6067 71.1764 55.8467 71.1764 56.16C71.1764 56.3467 71.2397 56.5033 71.3664 56.63C71.4997 56.7567 71.7697 56.8867 72.1764 57.02C72.5897 57.1533 73.2164 57.3267 74.0564 57.54C74.8764 57.7533 75.5331 58.0033 76.0264 58.29C76.5264 58.57 76.8897 58.91 77.1164 59.31C77.3431 59.7033 77.4564 60.18 77.4564 60.74C77.4564 61.8467 77.0564 62.7167 76.2564 63.35C75.4564 63.9833 74.3497 64.3 72.9364 64.3ZM80.6539 64V61.6H83.3739V64H80.6539ZM80.6539 60.4V49.6H83.3739V60.4H80.6539Z" fill="#454545"/>
<path d="M21.641 85.165C21.0727 85.165 20.5593 85.0678 20.101 84.8735C19.6463 84.6755 19.2705 84.395 18.9735 84.032C18.6802 83.6653 18.4895 83.2308 18.4015 82.7285L19.6005 82.547C19.7215 83.031 19.9745 83.4087 20.3595 83.68C20.7445 83.9477 21.1937 84.0815 21.707 84.0815C22.026 84.0815 22.3193 84.032 22.587 83.933C22.8547 83.8303 23.0692 83.6855 23.2305 83.4985C23.3955 83.3078 23.478 83.0805 23.478 82.8165C23.478 82.6735 23.4523 82.547 23.401 82.437C23.3533 82.327 23.2855 82.2317 23.1975 82.151C23.1132 82.0667 23.0087 81.9952 22.884 81.9365C22.763 81.8742 22.6292 81.821 22.4825 81.777L20.453 81.1775C20.255 81.1188 20.0533 81.0437 19.848 80.952C19.6427 80.8567 19.4538 80.7338 19.2815 80.5835C19.1128 80.4295 18.9753 80.2407 18.869 80.017C18.7627 79.7897 18.7095 79.5147 18.7095 79.192C18.7095 78.7043 18.8342 78.2918 19.0835 77.9545C19.3365 77.6135 19.6775 77.3568 20.1065 77.1845C20.5355 77.0085 21.0158 76.9205 21.5475 76.9205C22.0828 76.9278 22.5613 77.0232 22.983 77.2065C23.4083 77.3898 23.7603 77.6538 24.039 77.9985C24.3213 78.3395 24.5157 78.7538 24.622 79.2415L23.39 79.4505C23.335 79.1535 23.2177 78.8987 23.038 78.686C22.8583 78.4697 22.6383 78.3047 22.378 78.191C22.1177 78.0737 21.8353 78.0132 21.531 78.0095C21.2377 78.0022 20.9682 78.0462 20.7225 78.1415C20.4805 78.2368 20.2862 78.3707 20.1395 78.543C19.9965 78.7153 19.925 78.9133 19.925 79.137C19.925 79.357 19.9892 79.5348 20.1175 79.6705C20.2458 79.8062 20.4035 79.9143 20.5905 79.995C20.7812 80.072 20.97 80.1362 21.157 80.1875L22.62 80.6C22.8033 80.6513 23.0105 80.721 23.2415 80.809C23.4762 80.8933 23.7017 81.0125 23.918 81.1665C24.138 81.3205 24.3195 81.5258 24.4625 81.7825C24.6055 82.0355 24.677 82.3545 24.677 82.7395C24.677 83.1392 24.5963 83.4912 24.435 83.7955C24.2737 84.0962 24.0518 84.3492 23.7695 84.5545C23.4908 84.7562 23.1682 84.9083 22.8015 85.011C22.4348 85.1137 22.048 85.165 21.641 85.165ZM28.4836 85.165C27.8933 85.165 27.3744 85.0367 26.9271 84.78C26.4834 84.5197 26.1369 84.1585 25.8876 83.6965C25.6419 83.2308 25.5191 82.6918 25.5191 82.0795C25.5191 81.4305 25.6401 80.8677 25.8821 80.391C26.1278 79.9143 26.4688 79.5458 26.9051 79.2855C27.3414 79.0252 27.8493 78.895 28.4286 78.895C29.0336 78.895 29.5488 79.0362 29.9741 79.3185C30.3994 79.5972 30.7166 79.995 30.9256 80.512C31.1383 81.029 31.2226 81.6432 31.1786 82.3545H30.0291V81.9365C30.0218 81.2472 29.8898 80.7375 29.6331 80.4075C29.3801 80.0775 28.9933 79.9125 28.4726 79.9125C27.8969 79.9125 27.4643 80.094 27.1746 80.457C26.8849 80.82 26.7401 81.3443 26.7401 82.03C26.7401 82.6827 26.8849 83.1887 27.1746 83.548C27.4643 83.9037 27.8823 84.0815 28.4286 84.0815C28.7879 84.0815 29.0978 84.0008 29.3581 83.8395C29.6221 83.6745 29.8274 83.4398 29.9741 83.1355L31.1016 83.493C30.8706 84.0247 30.5204 84.4372 30.0511 84.7305C29.5818 85.0202 29.0593 85.165 28.4836 85.165ZM26.3661 82.3545V81.458H30.6066V82.3545H26.3661ZM34.8601 87.805C34.5411 87.805 34.2312 87.7555 33.9306 87.6565C33.6336 87.5575 33.3622 87.4108 33.1166 87.2165C32.8709 87.0258 32.6674 86.7893 32.5061 86.507L33.5676 85.968C33.6959 86.221 33.8792 86.4062 34.1176 86.5235C34.3559 86.6408 34.6071 86.6995 34.8711 86.6995C35.1974 86.6995 35.4761 86.6408 35.7071 86.5235C35.9381 86.4098 36.1122 86.2375 36.2296 86.0065C36.3506 85.7755 36.4092 85.4895 36.4056 85.1485V83.4875H36.5431V79.06H37.5606V85.1595C37.5606 85.3172 37.5551 85.4675 37.5441 85.6105C37.5331 85.7535 37.5129 85.8965 37.4836 86.0395C37.3992 86.4392 37.2379 86.7692 36.9996 87.0295C36.7649 87.2898 36.4642 87.4842 36.0976 87.6125C35.7346 87.7408 35.3221 87.805 34.8601 87.805ZM34.7721 85.165C34.2184 85.165 33.7399 85.0275 33.3366 84.7525C32.9369 84.4775 32.6271 84.1035 32.4071 83.6305C32.1907 83.1538 32.0826 82.6185 32.0826 82.0245C32.0826 81.4268 32.1926 80.8933 32.4126 80.424C32.6326 79.951 32.9442 79.5788 33.3476 79.3075C33.7546 79.0325 34.2367 78.895 34.7941 78.895C35.3551 78.895 35.8262 79.0325 36.2076 79.3075C36.5926 79.5788 36.8822 79.951 37.0766 80.424C37.2746 80.897 37.3736 81.4305 37.3736 82.0245C37.3736 82.6185 37.2746 83.152 37.0766 83.625C36.8786 84.098 36.5871 84.4738 36.2021 84.7525C35.8171 85.0275 35.3404 85.165 34.7721 85.165ZM34.9316 84.1255C35.3092 84.1255 35.6172 84.0357 35.8556 83.856C36.0939 83.6763 36.2681 83.4288 36.3781 83.1135C36.4881 82.7982 36.5431 82.4352 36.5431 82.0245C36.5431 81.6138 36.4862 81.2508 36.3726 80.9355C36.2626 80.6202 36.0902 80.3745 35.8556 80.1985C35.6246 80.0225 35.3294 79.9345 34.9701 79.9345C34.5887 79.9345 34.2752 80.028 34.0296 80.215C33.7839 80.402 33.6006 80.6532 33.4796 80.9685C33.3622 81.2838 33.3036 81.6358 33.3036 82.0245C33.3036 82.4168 33.3622 82.7725 33.4796 83.0915C33.6006 83.4068 33.7802 83.658 34.0186 83.845C34.2606 84.032 34.5649 84.1255 34.9316 84.1255ZM41.7395 85.165C41.1491 85.165 40.6303 85.0367 40.183 84.78C39.7393 84.5197 39.3928 84.1585 39.1435 83.6965C38.8978 83.2308 38.775 82.6918 38.775 82.0795C38.775 81.4305 38.896 80.8677 39.138 80.391C39.3836 79.9143 39.7246 79.5458 40.161 79.2855C40.5973 79.0252 41.1051 78.895 41.6845 78.895C42.2895 78.895 42.8046 79.0362 43.23 79.3185C43.6553 79.5972 43.9725 79.995 44.1815 80.512C44.3941 81.029 44.4785 81.6432 44.4345 82.3545H43.285V81.9365C43.2776 81.2472 43.1456 80.7375 42.889 80.4075C42.636 80.0775 42.2491 79.9125 41.7285 79.9125C41.1528 79.9125 40.7201 80.094 40.4305 80.457C40.1408 80.82 39.996 81.3443 39.996 82.03C39.996 82.6827 40.1408 83.1887 40.4305 83.548C40.7201 83.9037 41.1381 84.0815 41.6845 84.0815C42.0438 84.0815 42.3536 84.0008 42.614 83.8395C42.878 83.6745 43.0833 83.4398 43.23 83.1355L44.3575 83.493C44.1265 84.0247 43.7763 84.4372 43.307 84.7305C42.8376 85.0202 42.3151 85.165 41.7395 85.165ZM39.622 82.3545V81.458H43.8625V82.3545H39.622ZM45.6684 85V79.06H46.6914V80.501L46.5484 80.314C46.6218 80.1233 46.7171 79.9492 46.8344 79.7915C46.9518 79.6302 47.0874 79.4982 47.2414 79.3955C47.3918 79.2855 47.5586 79.2012 47.7419 79.1425C47.9289 79.0802 48.1196 79.0435 48.3139 79.0325C48.5083 79.0178 48.6953 79.027 48.8749 79.06V80.138C48.6806 80.0867 48.4643 80.072 48.2259 80.094C47.9913 80.116 47.7749 80.1912 47.5769 80.3195C47.3899 80.4405 47.2414 80.5872 47.1314 80.7595C47.0251 80.9318 46.9481 81.1243 46.9004 81.337C46.8528 81.546 46.8289 81.7678 46.8289 82.0025V85H45.6684ZM51.428 85.165C50.988 85.165 50.6195 85.0843 50.3225 84.923C50.0255 84.758 49.8 84.5417 49.646 84.274C49.4956 84.0027 49.4205 83.7057 49.4205 83.383C49.4205 83.0823 49.4736 82.8183 49.58 82.591C49.6863 82.3637 49.844 82.1712 50.053 82.0135C50.262 81.8522 50.5186 81.722 50.823 81.623C51.087 81.546 51.3858 81.4782 51.7195 81.4195C52.0531 81.3608 52.4033 81.3058 52.77 81.2545C53.1403 81.2032 53.507 81.1518 53.87 81.1005L53.452 81.3315C53.4593 80.8658 53.3603 80.5212 53.155 80.2975C52.9533 80.0702 52.605 79.9565 52.11 79.9565C51.7983 79.9565 51.5123 80.0298 51.252 80.1765C50.9916 80.3195 50.8101 80.5578 50.7075 80.8915L49.635 80.5615C49.7816 80.0518 50.0603 79.6467 50.471 79.346C50.8853 79.0453 51.4353 78.895 52.121 78.895C52.6526 78.895 53.1146 78.9867 53.507 79.17C53.903 79.3497 54.1926 79.6357 54.376 80.028C54.4713 80.2223 54.53 80.4277 54.552 80.644C54.574 80.8603 54.585 81.0932 54.585 81.3425V85H53.5675V83.6415L53.7655 83.8175C53.5198 84.2722 53.2063 84.6113 52.825 84.835C52.4473 85.055 51.9816 85.165 51.428 85.165ZM51.6315 84.2245C51.9578 84.2245 52.2383 84.1677 52.473 84.054C52.7076 83.9367 52.8965 83.7882 53.0395 83.6085C53.1825 83.4288 53.276 83.2418 53.32 83.0475C53.3823 82.8715 53.4171 82.6735 53.4245 82.4535C53.4355 82.2335 53.441 82.0575 53.441 81.9255L53.815 82.063C53.452 82.118 53.122 82.1675 52.825 82.2115C52.528 82.2555 52.2585 82.2995 52.0165 82.3435C51.7781 82.3838 51.5655 82.4333 51.3785 82.492C51.2208 82.547 51.0796 82.613 50.955 82.69C50.834 82.767 50.7368 82.8605 50.6635 82.9705C50.5938 83.0805 50.559 83.2143 50.559 83.372C50.559 83.526 50.5975 83.669 50.6745 83.801C50.7515 83.9293 50.8688 84.032 51.0265 84.109C51.1841 84.186 51.3858 84.2245 51.6315 84.2245ZM60.5748 85.165C60.0211 85.165 59.5426 85.0275 59.1393 84.7525C58.7396 84.4775 58.4298 84.1035 58.2098 83.6305C57.9935 83.1538 57.8853 82.6185 57.8853 82.0245C57.8853 81.4268 57.9953 80.8933 58.2153 80.424C58.4353 79.951 58.747 79.5788 59.1503 79.3075C59.5573 79.0325 60.0395 78.895 60.5968 78.895C61.1578 78.895 61.629 79.0325 62.0103 79.3075C62.3953 79.5788 62.685 79.951 62.8793 80.424C63.0773 80.897 63.1763 81.4305 63.1763 82.0245C63.1763 82.6185 63.0773 83.152 62.8793 83.625C62.6813 84.098 62.3898 84.4738 62.0048 84.7525C61.6198 85.0275 61.1431 85.165 60.5748 85.165ZM60.7343 84.1255C61.112 84.1255 61.42 84.0357 61.6583 83.856C61.8966 83.6763 62.0708 83.4288 62.1808 83.1135C62.2908 82.7982 62.3458 82.4352 62.3458 82.0245C62.3458 81.6138 62.289 81.2508 62.1753 80.9355C62.0653 80.6202 61.893 80.3745 61.6583 80.1985C61.4273 80.0225 61.1321 79.9345 60.7728 79.9345C60.3915 79.9345 60.078 80.028 59.8323 80.215C59.5866 80.402 59.4033 80.6532 59.2823 80.9685C59.165 81.2838 59.1063 81.6358 59.1063 82.0245C59.1063 82.4168 59.165 82.7725 59.2823 83.0915C59.4033 83.4068 59.583 83.658 59.8213 83.845C60.0633 84.032 60.3676 84.1255 60.7343 84.1255ZM62.3458 85V80.7265H62.2138V77.08H63.3688V85H62.3458ZM66.5852 85.165C66.1452 85.165 65.7767 85.0843 65.4797 84.923C65.1827 84.758 64.9572 84.5417 64.8032 84.274C64.6529 84.0027 64.5777 83.7057 64.5777 83.383C64.5777 83.0823 64.6309 82.8183 64.7372 82.591C64.8435 82.3637 65.0012 82.1712 65.2102 82.0135C65.4192 81.8522 65.6759 81.722 65.9802 81.623C66.2442 81.546 66.543 81.4782 66.8767 81.4195C67.2104 81.3608 67.5605 81.3058 67.9272 81.2545C68.2975 81.2032 68.6642 81.1518 69.0272 81.1005L68.6092 81.3315C68.6165 80.8658 68.5175 80.5212 68.3122 80.2975C68.1105 80.0702 67.7622 79.9565 67.2672 79.9565C66.9555 79.9565 66.6695 80.0298 66.4092 80.1765C66.1489 80.3195 65.9674 80.5578 65.8647 80.8915L64.7922 80.5615C64.9389 80.0518 65.2175 79.6467 65.6282 79.346C66.0425 79.0453 66.5925 78.895 67.2782 78.895C67.8099 78.895 68.2719 78.9867 68.6642 79.17C69.0602 79.3497 69.3499 79.6357 69.5332 80.028C69.6285 80.2223 69.6872 80.4277 69.7092 80.644C69.7312 80.8603 69.7422 81.0932 69.7422 81.3425V85H68.7247V83.6415L68.9227 83.8175C68.677 84.2722 68.3635 84.6113 67.9822 84.835C67.6045 85.055 67.1389 85.165 66.5852 85.165ZM66.7887 84.2245C67.115 84.2245 67.3955 84.1677 67.6302 84.054C67.8649 83.9367 68.0537 83.7882 68.1967 83.6085C68.3397 83.4288 68.4332 83.2418 68.4772 83.0475C68.5395 82.8715 68.5744 82.6735 68.5817 82.4535C68.5927 82.2335 68.5982 82.0575 68.5982 81.9255L68.9722 82.063C68.6092 82.118 68.2792 82.1675 67.9822 82.2115C67.6852 82.2555 67.4157 82.2995 67.1737 82.3435C66.9354 82.3838 66.7227 82.4333 66.5357 82.492C66.378 82.547 66.2369 82.613 66.1122 82.69C65.9912 82.767 65.894 82.8605 65.8207 82.9705C65.751 83.0805 65.7162 83.2143 65.7162 83.372C65.7162 83.526 65.7547 83.669 65.8317 83.801C65.9087 83.9293 66.026 84.032 66.1837 84.109C66.3414 84.186 66.543 84.2245 66.7887 84.2245ZM71.7149 85V78.851C71.7149 78.7007 71.7204 78.5412 71.7314 78.3725C71.7424 78.2002 71.7736 78.0315 71.8249 77.8665C71.8799 77.6978 71.9697 77.5438 72.0944 77.4045C72.2447 77.2395 72.4097 77.1222 72.5894 77.0525C72.7691 76.9828 72.9469 76.9425 73.1229 76.9315C73.3026 76.9205 73.4676 76.915 73.6179 76.915H74.3659V77.861H73.6729C73.4016 77.861 73.1981 77.9288 73.0624 78.0645C72.9304 78.1965 72.8644 78.3853 72.8644 78.631V85H71.7149ZM70.7304 79.984V79.06H74.3659V79.984H70.7304ZM78.6407 85C78.2667 85.0733 77.9 85.1045 77.5407 85.0935C77.1813 85.0825 76.8605 85.0128 76.5782 84.8845C76.2958 84.7562 76.0832 84.5545 75.9402 84.2795C75.8118 84.0338 75.7422 83.7845 75.7312 83.5315C75.7238 83.2748 75.7202 82.9852 75.7202 82.6625V77.41H76.8752V82.6075C76.8752 82.8458 76.877 83.053 76.8807 83.229C76.888 83.405 76.9265 83.5535 76.9962 83.6745C77.1282 83.9018 77.3372 84.032 77.6232 84.065C77.9128 84.0943 78.252 84.0815 78.6407 84.0265V85ZM74.5817 79.984V79.06H78.6407V79.984H74.5817ZM81.5705 85.165C81.1305 85.165 80.762 85.0843 80.465 84.923C80.168 84.758 79.9425 84.5417 79.7885 84.274C79.6382 84.0027 79.563 83.7057 79.563 83.383C79.563 83.0823 79.6162 82.8183 79.7225 82.591C79.8289 82.3637 79.9865 82.1712 80.1955 82.0135C80.4045 81.8522 80.6612 81.722 80.9655 81.623C81.2295 81.546 81.5284 81.4782 81.862 81.4195C82.1957 81.3608 82.5459 81.3058 82.9125 81.2545C83.2829 81.2032 83.6495 81.1518 84.0125 81.1005L83.5945 81.3315C83.6019 80.8658 83.5029 80.5212 83.2975 80.2975C83.0959 80.0702 82.7475 79.9565 82.2525 79.9565C81.9409 79.9565 81.6549 80.0298 81.3945 80.1765C81.1342 80.3195 80.9527 80.5578 80.85 80.8915L79.7775 80.5615C79.9242 80.0518 80.2029 79.6467 80.6135 79.346C81.0279 79.0453 81.5779 78.895 82.2635 78.895C82.7952 78.895 83.2572 78.9867 83.6495 79.17C84.0455 79.3497 84.3352 79.6357 84.5185 80.028C84.6139 80.2223 84.6725 80.4277 84.6945 80.644C84.7165 80.8603 84.7275 81.0932 84.7275 81.3425V85H83.71V83.6415L83.908 83.8175C83.6624 84.2722 83.3489 84.6113 82.9675 84.835C82.5899 85.055 82.1242 85.165 81.5705 85.165ZM81.774 84.2245C82.1004 84.2245 82.3809 84.1677 82.6155 84.054C82.8502 83.9367 83.039 83.7882 83.182 83.6085C83.325 83.4288 83.4185 83.2418 83.4625 83.0475C83.5249 82.8715 83.5597 82.6735 83.567 82.4535C83.578 82.2335 83.5835 82.0575 83.5835 81.9255L83.9575 82.063C83.5945 82.118 83.2645 82.1675 82.9675 82.2115C82.6705 82.2555 82.401 82.2995 82.159 82.3435C81.9207 82.3838 81.708 82.4333 81.521 82.492C81.3634 82.547 81.2222 82.613 81.0975 82.69C80.9765 82.767 80.8794 82.8605 80.806 82.9705C80.7364 83.0805 80.7015 83.2143 80.7015 83.372C80.7015 83.526 80.74 83.669 80.817 83.801C80.894 83.9293 81.0114 84.032 81.169 84.109C81.3267 84.186 81.5284 84.2245 81.774 84.2245ZM86.1557 85V79.06H87.1787V80.501L87.0357 80.314C87.1091 80.1233 87.2044 79.9492 87.3217 79.7915C87.4391 79.6302 87.5747 79.4982 87.7287 79.3955C87.8791 79.2855 88.0459 79.2012 88.2292 79.1425C88.4162 79.0802 88.6069 79.0435 88.8012 79.0325C88.9956 79.0178 89.1826 79.027 89.3622 79.06V80.138C89.1679 80.0867 88.9516 80.072 88.7132 80.094C88.4786 80.116 88.2622 80.1912 88.0642 80.3195C87.8772 80.4405 87.7287 80.5872 87.6187 80.7595C87.5124 80.9318 87.4354 81.1243 87.3877 81.337C87.3401 81.546 87.3162 81.7678 87.3162 82.0025V85H86.1557ZM90.4041 85L90.4096 77.08H91.5756V81.92L93.9076 79.06H95.3706L92.9066 82.03L95.6236 85H94.0616L91.5756 82.14V85H90.4041ZM97.8557 85.165C97.4157 85.165 97.0472 85.0843 96.7502 84.923C96.4532 84.758 96.2277 84.5417 96.0737 84.274C95.9234 84.0027 95.8482 83.7057 95.8482 83.383C95.8482 83.0823 95.9014 82.8183 96.0077 82.591C96.114 82.3637 96.2717 82.1712 96.4807 82.0135C96.6897 81.8522 96.9464 81.722 97.2507 81.623C97.5147 81.546 97.8135 81.4782 98.1472 81.4195C98.4809 81.3608 98.831 81.3058 99.1977 81.2545C99.568 81.2032 99.9347 81.1518 100.298 81.1005L99.8797 81.3315C99.887 80.8658 99.788 80.5212 99.5827 80.2975C99.381 80.0702 99.0327 79.9565 98.5377 79.9565C98.226 79.9565 97.94 80.0298 97.6797 80.1765C97.4194 80.3195 97.2379 80.5578 97.1352 80.8915L96.0627 80.5615C96.2094 80.0518 96.488 79.6467 96.8987 79.346C97.313 79.0453 97.863 78.895 98.5487 78.895C99.0804 78.895 99.5424 78.9867 99.9347 79.17C100.331 79.3497 100.62 79.6357 100.804 80.028C100.899 80.2223 100.958 80.4277 100.98 80.644C101.002 80.8603 101.013 81.0932 101.013 81.3425V85H99.9952V83.6415L100.193 83.8175C99.9475 84.2722 99.634 84.6113 99.2527 84.835C98.875 85.055 98.4094 85.165 97.8557 85.165ZM98.0592 84.2245C98.3855 84.2245 98.666 84.1677 98.9007 84.054C99.1354 83.9367 99.3242 83.7882 99.4672 83.6085C99.6102 83.4288 99.7037 83.2418 99.7477 83.0475C99.81 82.8715 99.8449 82.6735 99.8522 82.4535C99.8632 82.2335 99.8687 82.0575 99.8687 81.9255L100.243 82.063C99.8797 82.118 99.5497 82.1675 99.2527 82.2115C98.9557 82.2555 98.6862 82.2995 98.4442 82.3435C98.2059 82.3838 97.9932 82.4333 97.8062 82.492C97.6485 82.547 97.5074 82.613 97.3827 82.69C97.2617 82.767 97.1645 82.8605 97.0912 82.9705C97.0215 83.0805 96.9867 83.2143 96.9867 83.372C96.9867 83.526 97.0252 83.669 97.1022 83.801C97.1792 83.9293 97.2965 84.032 97.4542 84.109C97.6119 84.186 97.8135 84.2245 98.0592 84.2245ZM106.61 85V82.0795C106.61 81.8485 106.59 81.612 106.549 81.37C106.513 81.1243 106.439 80.897 106.329 80.688C106.223 80.479 106.071 80.3103 105.873 80.182C105.679 80.0537 105.424 79.9895 105.108 79.9895C104.903 79.9895 104.709 80.0243 104.525 80.094C104.342 80.16 104.181 80.2682 104.041 80.4185C103.906 80.5688 103.798 80.7668 103.717 81.0125C103.64 81.2582 103.601 81.557 103.601 81.909L102.886 81.6395C102.886 81.1005 102.987 80.6257 103.189 80.215C103.391 79.8007 103.68 79.478 104.058 79.247C104.436 79.016 104.892 78.9005 105.427 78.9005C105.838 78.9005 106.183 78.9665 106.461 79.0985C106.74 79.2305 106.966 79.4047 107.138 79.621C107.314 79.8337 107.448 80.0665 107.539 80.3195C107.631 80.5725 107.693 80.82 107.726 81.062C107.759 81.304 107.776 81.5167 107.776 81.7V85H106.61ZM102.435 85V79.06H103.464V80.776H103.601V85H102.435ZM113.088 85.165C112.648 85.165 112.28 85.0843 111.983 84.923C111.686 84.758 111.46 84.5417 111.306 84.274C111.156 84.0027 111.081 83.7057 111.081 83.383C111.081 83.0823 111.134 82.8183 111.24 82.591C111.346 82.3637 111.504 82.1712 111.713 82.0135C111.922 81.8522 112.179 81.722 112.483 81.623C112.747 81.546 113.046 81.4782 113.38 81.4195C113.713 81.3608 114.063 81.3058 114.43 81.2545C114.8 81.2032 115.167 81.1518 115.53 81.1005L115.112 81.3315C115.119 80.8658 115.02 80.5212 114.815 80.2975C114.613 80.0702 114.265 79.9565 113.77 79.9565C113.458 79.9565 113.172 80.0298 112.912 80.1765C112.652 80.3195 112.47 80.5578 112.368 80.8915L111.295 80.5615C111.442 80.0518 111.72 79.6467 112.131 79.346C112.545 79.0453 113.095 78.895 113.781 78.895C114.313 78.895 114.775 78.9867 115.167 79.17C115.563 79.3497 115.853 79.6357 116.036 80.028C116.131 80.2223 116.19 80.4277 116.212 80.644C116.234 80.8603 116.245 81.0932 116.245 81.3425V85H115.228V83.6415L115.426 83.8175C115.18 84.2722 114.866 84.6113 114.485 84.835C114.107 85.055 113.642 85.165 113.088 85.165ZM113.292 84.2245C113.618 84.2245 113.898 84.1677 114.133 84.054C114.368 83.9367 114.557 83.7882 114.7 83.6085C114.843 83.4288 114.936 83.2418 114.98 83.0475C115.042 82.8715 115.077 82.6735 115.085 82.4535C115.096 82.2335 115.101 82.0575 115.101 81.9255L115.475 82.063C115.112 82.118 114.782 82.1675 114.485 82.2115C114.188 82.2555 113.919 82.2995 113.677 82.3435C113.438 82.3838 113.226 82.4333 113.039 82.492C112.881 82.547 112.74 82.613 112.615 82.69C112.494 82.767 112.397 82.8605 112.324 82.9705C112.254 83.0805 112.219 83.2143 112.219 83.372C112.219 83.526 112.258 83.669 112.335 83.801C112.412 83.9293 112.529 84.032 112.687 84.109C112.844 84.186 113.046 84.2245 113.292 84.2245ZM117.668 85L117.673 77.08H118.839V81.92L121.171 79.06H122.634L120.17 82.03L122.887 85H121.325L118.839 82.14V85H117.668ZM125.68 85.1595C125.27 85.1595 124.925 85.0935 124.646 84.9615C124.368 84.8295 124.14 84.6572 123.964 84.4445C123.792 84.2282 123.66 83.9935 123.568 83.7405C123.477 83.4875 123.414 83.24 123.381 82.998C123.348 82.756 123.332 82.5433 123.332 82.36V79.06H124.498V81.9805C124.498 82.2115 124.516 82.4498 124.553 82.6955C124.593 82.9375 124.667 83.163 124.773 83.372C124.883 83.581 125.035 83.7497 125.229 83.878C125.427 84.0063 125.684 84.0705 125.999 84.0705C126.205 84.0705 126.399 84.0375 126.582 83.9715C126.766 83.9018 126.925 83.7918 127.061 83.6415C127.2 83.4912 127.308 83.2932 127.385 83.0475C127.466 82.8018 127.506 82.503 127.506 82.151L128.221 82.4205C128.221 82.9595 128.121 83.4362 127.919 83.8505C127.717 84.2612 127.428 84.582 127.05 84.813C126.672 85.044 126.216 85.1595 125.68 85.1595ZM127.644 85V83.284H127.506V79.06H128.667V85H127.644ZM134.378 85V82.0795C134.378 81.8485 134.358 81.612 134.318 81.37C134.281 81.1243 134.208 80.897 134.098 80.688C133.992 80.479 133.839 80.3103 133.641 80.182C133.447 80.0537 133.192 79.9895 132.877 79.9895C132.672 79.9895 132.477 80.0243 132.294 80.094C132.111 80.16 131.949 80.2682 131.81 80.4185C131.674 80.5688 131.566 80.7668 131.485 81.0125C131.408 81.2582 131.37 81.557 131.37 81.909L130.655 81.6395C130.655 81.1005 130.756 80.6257 130.957 80.215C131.159 79.8007 131.449 79.478 131.826 79.247C132.204 79.016 132.661 78.9005 133.196 78.9005C133.607 78.9005 133.951 78.9665 134.23 79.0985C134.509 79.2305 134.734 79.4047 134.906 79.621C135.082 79.8337 135.216 80.0665 135.308 80.3195C135.4 80.5725 135.462 80.82 135.495 81.062C135.528 81.304 135.544 81.5167 135.544 81.7V85H134.378ZM130.204 85V79.06H131.232V80.776H131.37V85H130.204ZM140.857 85.165C140.417 85.165 140.048 85.0843 139.751 84.923C139.454 84.758 139.229 84.5417 139.075 84.274C138.924 84.0027 138.849 83.7057 138.849 83.383C138.849 83.0823 138.902 82.8183 139.009 82.591C139.115 82.3637 139.273 82.1712 139.482 82.0135C139.691 81.8522 139.947 81.722 140.252 81.623C140.516 81.546 140.815 81.4782 141.148 81.4195C141.482 81.3608 141.832 81.3058 142.199 81.2545C142.569 81.2032 142.936 81.1518 143.299 81.1005L142.881 81.3315C142.888 80.8658 142.789 80.5212 142.584 80.2975C142.382 80.0702 142.034 79.9565 141.539 79.9565C141.227 79.9565 140.941 80.0298 140.681 80.1765C140.42 80.3195 140.239 80.5578 140.136 80.8915L139.064 80.5615C139.21 80.0518 139.489 79.6467 139.9 79.346C140.314 79.0453 140.864 78.895 141.55 78.895C142.081 78.895 142.543 78.9867 142.936 79.17C143.332 79.3497 143.621 79.6357 143.805 80.028C143.9 80.2223 143.959 80.4277 143.981 80.644C144.003 80.8603 144.014 81.0932 144.014 81.3425V85H142.996V83.6415L143.194 83.8175C142.949 84.2722 142.635 84.6113 142.254 84.835C141.876 85.055 141.41 85.165 140.857 85.165ZM141.06 84.2245C141.387 84.2245 141.667 84.1677 141.902 84.054C142.136 83.9367 142.325 83.7882 142.468 83.6085C142.611 83.4288 142.705 83.2418 142.749 83.0475C142.811 82.8715 142.846 82.6735 142.853 82.4535C142.864 82.2335 142.87 82.0575 142.87 81.9255L143.244 82.063C142.881 82.118 142.551 82.1675 142.254 82.2115C141.957 82.2555 141.687 82.2995 141.445 82.3435C141.207 82.3838 140.994 82.4333 140.807 82.492C140.65 82.547 140.508 82.613 140.384 82.69C140.263 82.767 140.166 82.8605 140.092 82.9705C140.023 83.0805 139.988 83.2143 139.988 83.372C139.988 83.526 140.026 83.669 140.103 83.801C140.18 83.9293 140.298 84.032 140.455 84.109C140.613 84.186 140.815 84.2245 141.06 84.2245ZM149.611 85V82.0795C149.611 81.8485 149.591 81.612 149.55 81.37C149.514 81.1243 149.44 80.897 149.33 80.688C149.224 80.479 149.072 80.3103 148.874 80.182C148.68 80.0537 148.425 79.9895 148.109 79.9895C147.904 79.9895 147.71 80.0243 147.526 80.094C147.343 80.16 147.182 80.2682 147.042 80.4185C146.907 80.5688 146.799 80.7668 146.718 81.0125C146.641 81.2582 146.602 81.557 146.602 81.909L145.887 81.6395C145.887 81.1005 145.988 80.6257 146.19 80.215C146.392 79.8007 146.681 79.478 147.059 79.247C147.437 79.016 147.893 78.9005 148.428 78.9005C148.839 78.9005 149.184 78.9665 149.462 79.0985C149.741 79.2305 149.967 79.4047 150.139 79.621C150.315 79.8337 150.449 80.0665 150.54 80.3195C150.632 80.5725 150.694 80.82 150.727 81.062C150.76 81.304 150.777 81.5167 150.777 81.7V85H149.611ZM145.436 85V79.06H146.465V80.776H146.602V85H145.436ZM154.494 85.165C153.94 85.165 153.462 85.0275 153.058 84.7525C152.659 84.4775 152.349 84.1035 152.129 83.6305C151.912 83.1538 151.804 82.6185 151.804 82.0245C151.804 81.4268 151.914 80.8933 152.134 80.424C152.354 79.951 152.666 79.5788 153.069 79.3075C153.476 79.0325 153.958 78.895 154.516 78.895C155.077 78.895 155.548 79.0325 155.929 79.3075C156.314 79.5788 156.604 79.951 156.798 80.424C156.996 80.897 157.095 81.4305 157.095 82.0245C157.095 82.6185 156.996 83.152 156.798 83.625C156.6 84.098 156.309 84.4738 155.924 84.7525C155.539 85.0275 155.062 85.165 154.494 85.165ZM154.653 84.1255C155.031 84.1255 155.339 84.0357 155.577 83.856C155.816 83.6763 155.99 83.4288 156.1 83.1135C156.21 82.7982 156.265 82.4352 156.265 82.0245C156.265 81.6138 156.208 81.2508 156.094 80.9355C155.984 80.6202 155.812 80.3745 155.577 80.1985C155.346 80.0225 155.051 79.9345 154.692 79.9345C154.31 79.9345 153.997 80.028 153.751 80.215C153.506 80.402 153.322 80.6532 153.201 80.9685C153.084 81.2838 153.025 81.6358 153.025 82.0245C153.025 82.4168 153.084 82.7725 153.201 83.0915C153.322 83.4068 153.502 83.658 153.74 83.845C153.982 84.032 154.287 84.1255 154.653 84.1255ZM156.265 85V80.7265H156.133V77.08H157.288V85H156.265ZM160.504 85.165C160.064 85.165 159.696 85.0843 159.399 84.923C159.102 84.758 158.876 84.5417 158.722 84.274C158.572 84.0027 158.497 83.7057 158.497 83.383C158.497 83.0823 158.55 82.8183 158.656 82.591C158.762 82.3637 158.92 82.1712 159.129 82.0135C159.338 81.8522 159.595 81.722 159.899 81.623C160.163 81.546 160.462 81.4782 160.796 81.4195C161.129 81.3608 161.479 81.3058 161.846 81.2545C162.216 81.2032 162.583 81.1518 162.946 81.1005L162.528 81.3315C162.535 80.8658 162.436 80.5212 162.231 80.2975C162.029 80.0702 161.681 79.9565 161.186 79.9565C160.874 79.9565 160.588 80.0298 160.328 80.1765C160.068 80.3195 159.886 80.5578 159.784 80.8915L158.711 80.5615C158.858 80.0518 159.136 79.6467 159.547 79.346C159.961 79.0453 160.511 78.895 161.197 78.895C161.729 78.895 162.191 78.9867 162.583 79.17C162.979 79.3497 163.269 79.6357 163.452 80.028C163.547 80.2223 163.606 80.4277 163.628 80.644C163.65 80.8603 163.661 81.0932 163.661 81.3425V85H162.644V83.6415L162.842 83.8175C162.596 84.2722 162.282 84.6113 161.901 84.835C161.523 85.055 161.058 85.165 160.504 85.165ZM160.708 84.2245C161.034 84.2245 161.314 84.1677 161.549 84.054C161.784 83.9367 161.973 83.7882 162.116 83.6085C162.259 83.4288 162.352 83.2418 162.396 83.0475C162.458 82.8715 162.493 82.6735 162.501 82.4535C162.512 82.2335 162.517 82.0575 162.517 81.9255L162.891 82.063C162.528 82.118 162.198 82.1675 161.901 82.2115C161.604 82.2555 161.335 82.2995 161.093 82.3435C160.854 82.3838 160.642 82.4333 160.455 82.492C160.297 82.547 160.156 82.613 160.031 82.69C159.91 82.767 159.813 82.8605 159.74 82.9705C159.67 83.0805 159.635 83.2143 159.635 83.372C159.635 83.526 159.674 83.669 159.751 83.801C159.828 83.9293 159.945 84.032 160.103 84.109C160.26 84.186 160.462 84.2245 160.708 84.2245ZM169.651 85.165C169.097 85.165 168.619 85.0275 168.215 84.7525C167.816 84.4775 167.506 84.1035 167.286 83.6305C167.07 83.1538 166.961 82.6185 166.961 82.0245C166.961 81.4268 167.071 80.8933 167.291 80.424C167.511 79.951 167.823 79.5788 168.226 79.3075C168.633 79.0325 169.116 78.895 169.673 78.895C170.234 78.895 170.705 79.0325 171.086 79.3075C171.471 79.5788 171.761 79.951 171.955 80.424C172.153 80.897 172.252 81.4305 172.252 82.0245C172.252 82.6185 172.153 83.152 171.955 83.625C171.757 84.098 171.466 84.4738 171.081 84.7525C170.696 85.0275 170.219 85.165 169.651 85.165ZM169.81 84.1255C170.188 84.1255 170.496 84.0357 170.734 83.856C170.973 83.6763 171.147 83.4288 171.257 83.1135C171.367 82.7982 171.422 82.4352 171.422 82.0245C171.422 81.6138 171.365 81.2508 171.251 80.9355C171.141 80.6202 170.969 80.3745 170.734 80.1985C170.503 80.0225 170.208 79.9345 169.849 79.9345C169.468 79.9345 169.154 80.028 168.908 80.215C168.663 80.402 168.479 80.6532 168.358 80.9685C168.241 81.2838 168.182 81.6358 168.182 82.0245C168.182 82.4168 168.241 82.7725 168.358 83.0915C168.479 83.4068 168.659 83.658 168.897 83.845C169.139 84.032 169.444 84.1255 169.81 84.1255ZM171.422 85V80.7265H171.29V77.08H172.445V85H171.422ZM174.094 78.0865V76.97H175.243V78.0865H174.094ZM174.094 85V79.06H175.243V85H174.094ZM179.167 85.1595C178.444 85.1595 177.856 85 177.401 84.681C176.946 84.362 176.668 83.9128 176.565 83.3335L177.742 83.152C177.815 83.46 177.984 83.7038 178.248 83.8835C178.516 84.0595 178.848 84.1475 179.244 84.1475C179.603 84.1475 179.883 84.0742 180.085 83.9275C180.29 83.7808 180.393 83.5792 180.393 83.3225C180.393 83.1722 180.356 83.0512 180.283 82.9595C180.213 82.8642 180.065 82.7743 179.838 82.69C179.61 82.6057 179.264 82.5012 178.798 82.3765C178.288 82.2445 177.883 82.1033 177.583 81.953C177.286 81.799 177.073 81.6212 176.945 81.4195C176.82 81.2142 176.758 80.9667 176.758 80.677C176.758 80.3177 176.853 80.0042 177.044 79.7365C177.234 79.4688 177.502 79.2617 177.847 79.115C178.195 78.9683 178.602 78.895 179.068 78.895C179.522 78.895 179.927 78.9665 180.283 79.1095C180.639 79.2525 180.927 79.456 181.147 79.72C181.367 79.9803 181.499 80.2865 181.543 80.6385L180.366 80.853C180.325 80.567 180.191 80.3415 179.964 80.1765C179.737 80.0115 179.442 79.9217 179.079 79.907C178.73 79.8923 178.448 79.951 178.232 80.083C178.015 80.2113 177.907 80.3892 177.907 80.6165C177.907 80.7485 177.947 80.8603 178.028 80.952C178.112 81.0437 178.274 81.1317 178.512 81.216C178.75 81.3003 179.102 81.4012 179.568 81.5185C180.067 81.6468 180.463 81.7898 180.756 81.9475C181.049 82.1015 181.258 82.2867 181.383 82.503C181.511 82.7157 181.576 82.9742 181.576 83.2785C181.576 83.8652 181.361 84.3253 180.932 84.659C180.507 84.9927 179.918 85.1595 179.167 85.1595ZM182.902 78.0865V76.97H184.052V78.0865H182.902ZM182.902 85V79.06H184.052V85H182.902ZM189.873 85V82.0795C189.873 81.8485 189.852 81.612 189.812 81.37C189.775 81.1243 189.702 80.897 189.592 80.688C189.486 80.479 189.334 80.3103 189.136 80.182C188.941 80.0537 188.686 79.9895 188.371 79.9895C188.166 79.9895 187.971 80.0243 187.788 80.094C187.605 80.16 187.443 80.2682 187.304 80.4185C187.168 80.5688 187.06 80.7668 186.98 81.0125C186.903 81.2582 186.864 81.557 186.864 81.909L186.149 81.6395C186.149 81.1005 186.25 80.6257 186.452 80.215C186.653 79.8007 186.943 79.478 187.321 79.247C187.698 79.016 188.155 78.9005 188.69 78.9005C189.101 78.9005 189.445 78.9665 189.724 79.0985C190.003 79.2305 190.228 79.4047 190.401 79.621C190.577 79.8337 190.71 80.0665 190.802 80.3195C190.894 80.5725 190.956 80.82 190.989 81.062C191.022 81.304 191.039 81.5167 191.039 81.7V85H189.873ZM185.698 85V79.06H186.727V80.776H186.864V85H185.698ZM192.581 78.0865V76.97H193.731V78.0865H192.581ZM192.581 85V79.06H193.731V85H192.581ZM199.944 85.165C199.39 85.165 198.912 85.0275 198.508 84.7525C198.109 84.4775 197.799 84.1035 197.579 83.6305C197.363 83.1538 197.254 82.6185 197.254 82.0245C197.254 81.4268 197.364 80.8933 197.584 80.424C197.804 79.951 198.116 79.5788 198.519 79.3075C198.926 79.0325 199.409 78.895 199.966 78.895C200.527 78.895 200.998 79.0325 201.379 79.3075C201.764 79.5788 202.054 79.951 202.248 80.424C202.446 80.897 202.545 81.4305 202.545 82.0245C202.545 82.6185 202.446 83.152 202.248 83.625C202.05 84.098 201.759 84.4738 201.374 84.7525C200.989 85.0275 200.512 85.165 199.944 85.165ZM200.103 84.1255C200.481 84.1255 200.789 84.0357 201.027 83.856C201.266 83.6763 201.44 83.4288 201.55 83.1135C201.66 82.7982 201.715 82.4352 201.715 82.0245C201.715 81.6138 201.658 81.2508 201.544 80.9355C201.434 80.6202 201.262 80.3745 201.027 80.1985C200.796 80.0225 200.501 79.9345 200.142 79.9345C199.761 79.9345 199.447 80.028 199.201 80.215C198.956 80.402 198.772 80.6532 198.651 80.9685C198.534 81.2838 198.475 81.6358 198.475 82.0245C198.475 82.4168 198.534 82.7725 198.651 83.0915C198.772 83.4068 198.952 83.658 199.19 83.845C199.432 84.032 199.737 84.1255 200.103 84.1255ZM201.715 85V80.7265H201.583V77.08H202.738V85H201.715ZM205.954 85.165C205.514 85.165 205.146 85.0843 204.849 84.923C204.552 84.758 204.326 84.5417 204.172 84.274C204.022 84.0027 203.947 83.7057 203.947 83.383C203.947 83.0823 204 82.8183 204.106 82.591C204.213 82.3637 204.37 82.1712 204.579 82.0135C204.788 81.8522 205.045 81.722 205.349 81.623C205.613 81.546 205.912 81.4782 206.246 81.4195C206.58 81.3608 206.93 81.3058 207.296 81.2545C207.667 81.2032 208.033 81.1518 208.396 81.1005L207.978 81.3315C207.986 80.8658 207.887 80.5212 207.681 80.2975C207.48 80.0702 207.131 79.9565 206.636 79.9565C206.325 79.9565 206.039 80.0298 205.778 80.1765C205.518 80.3195 205.337 80.5578 205.234 80.8915L204.161 80.5615C204.308 80.0518 204.587 79.6467 204.997 79.346C205.412 79.0453 205.962 78.895 206.647 78.895C207.179 78.895 207.641 78.9867 208.033 79.17C208.429 79.3497 208.719 79.6357 208.902 80.028C208.998 80.2223 209.056 80.4277 209.078 80.644C209.1 80.8603 209.111 81.0932 209.111 81.3425V85H208.094V83.6415L208.292 83.8175C208.046 84.2722 207.733 84.6113 207.351 84.835C206.974 85.055 206.508 85.165 205.954 85.165ZM206.158 84.2245C206.484 84.2245 206.765 84.1677 206.999 84.054C207.234 83.9367 207.423 83.7882 207.566 83.6085C207.709 83.4288 207.802 83.2418 207.846 83.0475C207.909 82.8715 207.944 82.6735 207.951 82.4535C207.962 82.2335 207.967 82.0575 207.967 81.9255L208.341 82.063C207.978 82.118 207.648 82.1675 207.351 82.2115C207.054 82.2555 206.785 82.2995 206.543 82.3435C206.305 82.3838 206.092 82.4333 205.905 82.492C205.747 82.547 205.606 82.613 205.481 82.69C205.36 82.767 205.263 82.8605 205.19 82.9705C205.12 83.0805 205.085 83.2143 205.085 83.372C205.085 83.526 205.124 83.669 205.201 83.801C205.278 83.9293 205.395 84.032 205.553 84.109C205.711 84.186 205.912 84.2245 206.158 84.2245ZM214.709 85V82.0795C214.709 81.8485 214.688 81.612 214.648 81.37C214.611 81.1243 214.538 80.897 214.428 80.688C214.322 80.479 214.17 80.3103 213.972 80.182C213.777 80.0537 213.522 79.9895 213.207 79.9895C213.002 79.9895 212.807 80.0243 212.624 80.094C212.441 80.16 212.279 80.2682 212.14 80.4185C212.004 80.5688 211.896 80.7668 211.816 81.0125C211.739 81.2582 211.7 81.557 211.7 81.909L210.985 81.6395C210.985 81.1005 211.086 80.6257 211.288 80.215C211.489 79.8007 211.779 79.478 212.157 79.247C212.534 79.016 212.991 78.9005 213.526 78.9005C213.937 78.9005 214.281 78.9665 214.56 79.0985C214.839 79.2305 215.064 79.4047 215.237 79.621C215.413 79.8337 215.546 80.0665 215.638 80.3195C215.73 80.5725 215.792 80.82 215.825 81.062C215.858 81.304 215.875 81.5167 215.875 81.7V85H214.709ZM210.534 85V79.06H211.563V80.776H211.7V85H210.534ZM222.05 85.165C221.442 85.165 220.925 85.0293 220.499 84.758C220.074 84.4867 219.748 84.1145 219.52 83.6415C219.297 83.1685 219.183 82.6313 219.179 82.03C219.183 81.4177 219.3 80.8768 219.531 80.4075C219.762 79.9345 220.092 79.5642 220.521 79.2965C220.95 79.0288 221.465 78.895 222.067 78.895C222.716 78.895 223.269 79.0563 223.728 79.379C224.19 79.7017 224.494 80.1435 224.641 80.7045L223.497 81.0345C223.383 80.7008 223.196 80.4423 222.936 80.259C222.679 80.072 222.384 79.9785 222.05 79.9785C221.673 79.9785 221.363 80.0683 221.121 80.248C220.879 80.424 220.699 80.666 220.582 80.974C220.464 81.282 220.404 81.634 220.4 82.03C220.404 82.6423 220.543 83.1373 220.818 83.515C221.097 83.8927 221.508 84.0815 222.05 84.0815C222.421 84.0815 222.719 83.9972 222.947 83.8285C223.178 83.6562 223.354 83.4105 223.475 83.0915L224.641 83.3665C224.446 83.9458 224.126 84.3913 223.678 84.703C223.231 85.011 222.688 85.165 222.05 85.165ZM228.18 85.165C227.586 85.165 227.07 85.0312 226.634 84.7635C226.198 84.4958 225.86 84.1273 225.622 83.658C225.387 83.185 225.27 82.6405 225.27 82.0245C225.27 81.4048 225.391 80.8603 225.633 80.391C225.875 79.918 226.214 79.5513 226.651 79.291C227.087 79.027 227.597 78.895 228.18 78.895C228.774 78.895 229.289 79.0288 229.725 79.2965C230.161 79.5642 230.499 79.9327 230.737 80.402C230.975 80.8713 231.095 81.4122 231.095 82.0245C231.095 82.6442 230.974 83.1905 230.732 83.6635C230.493 84.1328 230.156 84.5013 229.72 84.769C229.283 85.033 228.77 85.165 228.18 85.165ZM228.18 84.0815C228.748 84.0815 229.171 83.8908 229.45 83.5095C229.732 83.1245 229.874 82.6295 229.874 82.0245C229.874 81.4048 229.731 80.9098 229.445 80.5395C229.162 80.1655 228.741 79.9785 228.18 79.9785C227.795 79.9785 227.477 80.0665 227.228 80.2425C226.979 80.4148 226.794 80.655 226.673 80.963C226.552 81.2673 226.491 81.6212 226.491 82.0245C226.491 82.6478 226.634 83.1465 226.92 83.5205C227.206 83.8945 227.626 84.0815 228.18 84.0815ZM235.092 85.165C234.523 85.165 234.047 85.0275 233.662 84.7525C233.277 84.4738 232.985 84.098 232.787 83.625C232.589 83.152 232.49 82.6185 232.49 82.0245C232.49 81.4305 232.587 80.897 232.782 80.424C232.98 79.951 233.269 79.5788 233.651 79.3075C234.036 79.0325 234.509 78.895 235.07 78.895C235.627 78.895 236.107 79.0325 236.511 79.3075C236.918 79.5788 237.231 79.951 237.451 80.424C237.671 80.8933 237.781 81.4268 237.781 82.0245C237.781 82.6185 237.671 83.1538 237.451 83.6305C237.235 84.1035 236.925 84.4775 236.522 84.7525C236.122 85.0275 235.645 85.165 235.092 85.165ZM232.298 85V77.08H233.453V80.7265H233.321V85H232.298ZM234.932 84.1255C235.299 84.1255 235.601 84.032 235.84 83.845C236.082 83.658 236.261 83.4068 236.379 83.0915C236.5 82.7725 236.56 82.4168 236.56 82.0245C236.56 81.6358 236.5 81.2838 236.379 80.9685C236.261 80.6532 236.08 80.402 235.834 80.215C235.589 80.028 235.275 79.9345 234.894 79.9345C234.534 79.9345 234.237 80.0225 234.003 80.1985C233.772 80.3745 233.599 80.6202 233.486 80.9355C233.376 81.2508 233.321 81.6138 233.321 82.0245C233.321 82.4352 233.376 82.7982 233.486 83.1135C233.596 83.4288 233.77 83.6763 234.008 83.856C234.247 84.0357 234.555 84.1255 234.932 84.1255ZM240.673 85.165C240.233 85.165 239.865 85.0843 239.568 84.923C239.271 84.758 239.045 84.5417 238.891 84.274C238.741 84.0027 238.666 83.7057 238.666 83.383C238.666 83.0823 238.719 82.8183 238.825 82.591C238.931 82.3637 239.089 82.1712 239.298 82.0135C239.507 81.8522 239.764 81.722 240.068 81.623C240.332 81.546 240.631 81.4782 240.965 81.4195C241.298 81.3608 241.648 81.3058 242.015 81.2545C242.385 81.2032 242.752 81.1518 243.115 81.1005L242.697 81.3315C242.704 80.8658 242.605 80.5212 242.4 80.2975C242.198 80.0702 241.85 79.9565 241.355 79.9565C241.043 79.9565 240.757 80.0298 240.497 80.1765C240.237 80.3195 240.055 80.5578 239.953 80.8915L238.88 80.5615C239.027 80.0518 239.305 79.6467 239.716 79.346C240.13 79.0453 240.68 78.895 241.366 78.895C241.898 78.895 242.36 78.9867 242.752 79.17C243.148 79.3497 243.438 79.6357 243.621 80.028C243.716 80.2223 243.775 80.4277 243.797 80.644C243.819 80.8603 243.83 81.0932 243.83 81.3425V85H242.813V83.6415L243.011 83.8175C242.765 84.2722 242.451 84.6113 242.07 84.835C241.692 85.055 241.227 85.165 240.673 85.165ZM240.877 84.2245C241.203 84.2245 241.483 84.1677 241.718 84.054C241.953 83.9367 242.142 83.7882 242.285 83.6085C242.428 83.4288 242.521 83.2418 242.565 83.0475C242.627 82.8715 242.662 82.6735 242.67 82.4535C242.681 82.2335 242.686 82.0575 242.686 81.9255L243.06 82.063C242.697 82.118 242.367 82.1675 242.07 82.2115C241.773 82.2555 241.504 82.2995 241.262 82.3435C241.023 82.3838 240.811 82.4333 240.624 82.492C240.466 82.547 240.325 82.613 240.2 82.69C240.079 82.767 239.982 82.8605 239.909 82.9705C239.839 83.0805 239.804 83.2143 239.804 83.372C239.804 83.526 239.843 83.669 239.92 83.801C239.997 83.9293 240.114 84.032 240.272 84.109C240.429 84.186 240.631 84.2245 240.877 84.2245ZM21.0415 100.16C20.3192 100.16 19.7307 100 19.276 99.681C18.8213 99.362 18.5427 98.9128 18.44 98.3335L19.617 98.152C19.6903 98.46 19.859 98.7038 20.123 98.8835C20.3907 99.0595 20.7225 99.1475 21.1185 99.1475C21.4778 99.1475 21.7583 99.0742 21.96 98.9275C22.1653 98.7808 22.268 98.5792 22.268 98.3225C22.268 98.1722 22.2313 98.0512 22.158 97.9595C22.0883 97.8642 21.9398 97.7743 21.7125 97.69C21.4852 97.6057 21.1387 97.5012 20.673 97.3765C20.1633 97.2445 19.7582 97.1033 19.4575 96.953C19.1605 96.799 18.9478 96.6212 18.8195 96.4195C18.6948 96.2142 18.6325 95.9667 18.6325 95.677C18.6325 95.3177 18.7278 95.0042 18.9185 94.7365C19.1092 94.4688 19.3768 94.2617 19.7215 94.115C20.0698 93.9683 20.4768 93.895 20.9425 93.895C21.3972 93.895 21.8023 93.9665 22.158 94.1095C22.5137 94.2525 22.8015 94.456 23.0215 94.72C23.2415 94.9803 23.3735 95.2865 23.4175 95.6385L22.2405 95.853C22.2002 95.567 22.0663 95.3415 21.839 95.1765C21.6117 95.0115 21.3165 94.9217 20.9535 94.907C20.6052 94.8923 20.3228 94.951 20.1065 95.083C19.8902 95.2113 19.782 95.3892 19.782 95.6165C19.782 95.7485 19.8223 95.8603 19.903 95.952C19.9873 96.0437 20.1487 96.1317 20.387 96.216C20.6253 96.3003 20.9773 96.4012 21.443 96.5185C21.9417 96.6468 22.3377 96.7898 22.631 96.9475C22.9243 97.1015 23.1333 97.2867 23.258 97.503C23.3863 97.7157 23.4505 97.9742 23.4505 98.2785C23.4505 98.8652 23.236 99.3253 22.807 99.659C22.3817 99.9927 21.7932 100.16 21.0415 100.16ZM27.302 100.165C26.7116 100.165 26.1928 100.037 25.7455 99.78C25.3018 99.5197 24.9553 99.1585 24.706 98.6965C24.4603 98.2308 24.3375 97.6918 24.3375 97.0795C24.3375 96.4305 24.4585 95.8677 24.7005 95.391C24.9461 94.9143 25.2871 94.5458 25.7235 94.2855C26.1598 94.0252 26.6676 93.895 27.247 93.895C27.852 93.895 28.3671 94.0362 28.7925 94.3185C29.2178 94.5972 29.535 94.995 29.744 95.512C29.9566 96.029 30.041 96.6432 29.997 97.3545H28.8475V96.9365C28.8401 96.2472 28.7081 95.7375 28.4515 95.4075C28.1985 95.0775 27.8116 94.9125 27.291 94.9125C26.7153 94.9125 26.2826 95.094 25.993 95.457C25.7033 95.82 25.5585 96.3443 25.5585 97.03C25.5585 97.6827 25.7033 98.1887 25.993 98.548C26.2826 98.9037 26.7006 99.0815 27.247 99.0815C27.6063 99.0815 27.9161 99.0008 28.1765 98.8395C28.4405 98.6745 28.6458 98.4398 28.7925 98.1355L29.92 98.493C29.689 99.0247 29.3388 99.4372 28.8695 99.7305C28.4001 100.02 27.8776 100.165 27.302 100.165ZM25.1845 97.3545V96.458H29.425V97.3545H25.1845ZM38.1868 100L38.1923 96.2985C38.1923 95.8695 38.0823 95.5358 37.8623 95.2975C37.6423 95.0555 37.3526 94.9345 36.9933 94.9345C36.7733 94.9345 36.5716 94.9858 36.3883 95.0885C36.2086 95.1875 36.062 95.3378 35.9483 95.5395C35.8383 95.7375 35.7833 95.9868 35.7833 96.2875L35.2278 96.007C35.2205 95.589 35.3085 95.2223 35.4918 94.907C35.6788 94.5917 35.9318 94.3478 36.2508 94.1755C36.5698 93.9995 36.9273 93.9115 37.3233 93.9115C37.965 93.9115 38.4618 94.104 38.8138 94.489C39.1658 94.874 39.3418 95.3855 39.3418 96.0235L39.3363 100H38.1868ZM31.0643 100V94.06H32.0873V95.776H32.2193V100H31.0643ZM34.6283 100L34.6338 96.3205C34.6338 95.8878 34.5238 95.5487 34.3038 95.303C34.0875 95.0573 33.796 94.9345 33.4293 94.9345C33.0663 94.9345 32.773 95.0592 32.5493 95.3085C32.3293 95.5578 32.2193 95.8842 32.2193 96.2875L31.6693 95.9355C31.6693 95.5468 31.7628 95.2003 31.9498 94.896C32.1368 94.5917 32.3898 94.3515 32.7088 94.1755C33.0278 93.9995 33.389 93.9115 33.7923 93.9115C34.214 93.9115 34.5733 94.0013 34.8703 94.181C35.1673 94.357 35.3928 94.6045 35.5468 94.9235C35.7045 95.2425 35.7833 95.6128 35.7833 96.0345L35.7778 100H34.6283ZM43.0085 100.16C42.5978 100.16 42.2532 100.094 41.9745 99.9615C41.6958 99.8295 41.4685 99.6572 41.2925 99.4445C41.1202 99.2282 40.9882 98.9935 40.8965 98.7405C40.8048 98.4875 40.7425 98.24 40.7095 97.998C40.6765 97.756 40.66 97.5433 40.66 97.36V94.06H41.826V96.9805C41.826 97.2115 41.8443 97.4498 41.881 97.6955C41.9213 97.9375 41.9947 98.163 42.101 98.372C42.211 98.581 42.3632 98.7497 42.5575 98.878C42.7555 99.0063 43.0122 99.0705 43.3275 99.0705C43.5328 99.0705 43.7272 99.0375 43.9105 98.9715C44.0938 98.9018 44.2533 98.7918 44.389 98.6415C44.5283 98.4912 44.6365 98.2932 44.7135 98.0475C44.7942 97.8018 44.8345 97.503 44.8345 97.151L45.5495 97.4205C45.5495 97.9595 45.4487 98.4362 45.247 98.8505C45.0453 99.2612 44.7557 99.582 44.378 99.813C44.0003 100.044 43.5438 100.16 43.0085 100.16ZM44.972 100V98.284H44.8345V94.06H45.995V100H44.972ZM49.2151 100.165C48.7751 100.165 48.4066 100.084 48.1096 99.923C47.8126 99.758 47.5871 99.5417 47.4331 99.274C47.2827 99.0027 47.2076 98.7057 47.2076 98.383C47.2076 98.0823 47.2607 97.8183 47.3671 97.591C47.4734 97.3637 47.6311 97.1712 47.8401 97.0135C48.0491 96.8522 48.3057 96.722 48.6101 96.623C48.8741 96.546 49.1729 96.4782 49.5066 96.4195C49.8402 96.3608 50.1904 96.3058 50.5571 96.2545C50.9274 96.2032 51.2941 96.1518 51.6571 96.1005L51.2391 96.3315C51.2464 95.8658 51.1474 95.5212 50.9421 95.2975C50.7404 95.0702 50.3921 94.9565 49.8971 94.9565C49.5854 94.9565 49.2994 95.0298 49.0391 95.1765C48.7787 95.3195 48.5972 95.5578 48.4946 95.8915L47.4221 95.5615C47.5687 95.0518 47.8474 94.6467 48.2581 94.346C48.6724 94.0453 49.2224 93.895 49.9081 93.895C50.4397 93.895 50.9017 93.9867 51.2941 94.17C51.6901 94.3497 51.9797 94.6357 52.1631 95.028C52.2584 95.2223 52.3171 95.4277 52.3391 95.644C52.3611 95.8603 52.3721 96.0932 52.3721 96.3425V100H51.3546V98.6415L51.5526 98.8175C51.3069 99.2722 50.9934 99.6113 50.6121 99.835C50.2344 100.055 49.7687 100.165 49.2151 100.165ZM49.4186 99.2245C49.7449 99.2245 50.0254 99.1677 50.2601 99.054C50.4947 98.9367 50.6836 98.7882 50.8266 98.6085C50.9696 98.4288 51.0631 98.2418 51.1071 98.0475C51.1694 97.8715 51.2042 97.6735 51.2116 97.4535C51.2226 97.2335 51.2281 97.0575 51.2281 96.9255L51.6021 97.063C51.2391 97.118 50.9091 97.1675 50.6121 97.2115C50.3151 97.2555 50.0456 97.2995 49.8036 97.3435C49.5652 97.3838 49.3526 97.4333 49.1656 97.492C49.0079 97.547 48.8667 97.613 48.7421 97.69C48.6211 97.767 48.5239 97.8605 48.4506 97.9705C48.3809 98.0805 48.3461 98.2143 48.3461 98.372C48.3461 98.526 48.3846 98.669 48.4616 98.801C48.5386 98.9293 48.6559 99.032 48.8136 99.109C48.9712 99.186 49.1729 99.2245 49.4186 99.2245ZM56.5469 100V93.851C56.5469 93.7007 56.5524 93.5412 56.5634 93.3725C56.5744 93.2002 56.6056 93.0315 56.6569 92.8665C56.7119 92.6978 56.8018 92.5438 56.9264 92.4045C57.0768 92.2395 57.2418 92.1222 57.4214 92.0525C57.6011 91.9828 57.7789 91.9425 57.9549 91.9315C58.1346 91.9205 58.2996 91.915 58.4499 91.915H59.1979V92.861H58.5049C58.2336 92.861 58.0301 92.9288 57.8944 93.0645C57.7624 93.1965 57.6964 93.3853 57.6964 93.631V100H56.5469ZM55.5624 94.984V94.06H59.1979V94.984H55.5624ZM60.3529 93.0865V91.97H61.5024V93.0865H60.3529ZM60.3529 100V94.06H61.5024V100H60.3529ZM66.5557 100C66.1817 100.073 65.8151 100.105 65.4557 100.094C65.0964 100.083 64.7756 100.013 64.4932 99.8845C64.2109 99.7562 63.9982 99.5545 63.8552 99.2795C63.7269 99.0338 63.6572 98.7845 63.6462 98.5315C63.6389 98.2748 63.6352 97.9852 63.6352 97.6625V92.41H64.7902V97.6075C64.7902 97.8458 64.7921 98.053 64.7957 98.229C64.8031 98.405 64.8416 98.5535 64.9112 98.6745C65.0432 98.9018 65.2522 99.032 65.5382 99.065C65.8279 99.0943 66.1671 99.0815 66.5557 99.0265V100ZM62.4967 94.984V94.06H66.5557V94.984H62.4967ZM70.0466 100.16C69.6359 100.16 69.2913 100.094 69.0126 99.9615C68.7339 99.8295 68.5066 99.6572 68.3306 99.4445C68.1583 99.2282 68.0263 98.9935 67.9346 98.7405C67.8429 98.4875 67.7806 98.24 67.7476 97.998C67.7146 97.756 67.6981 97.5433 67.6981 97.36V94.06H68.8641V96.9805C68.8641 97.2115 68.8824 97.4498 68.9191 97.6955C68.9594 97.9375 69.0328 98.163 69.1391 98.372C69.2491 98.581 69.4013 98.7497 69.5956 98.878C69.7936 99.0063 70.0503 99.0705 70.3656 99.0705C70.5709 99.0705 70.7653 99.0375 70.9486 98.9715C71.1319 98.9018 71.2914 98.7918 71.4271 98.6415C71.5664 98.4912 71.6746 98.2932 71.7516 98.0475C71.8323 97.8018 71.8726 97.503 71.8726 97.151L72.5876 97.4205C72.5876 97.9595 72.4868 98.4362 72.2851 98.8505C72.0834 99.2612 71.7938 99.582 71.4161 99.813C71.0384 100.044 70.5819 100.16 70.0466 100.16ZM72.0101 100V98.284H71.8726V94.06H73.0331V100H72.0101ZM74.5757 100V94.06H75.5987V95.501L75.4557 95.314C75.529 95.1233 75.6243 94.9492 75.7417 94.7915C75.859 94.6302 75.9947 94.4982 76.1487 94.3955C76.299 94.2855 76.4658 94.2012 76.6492 94.1425C76.8362 94.0802 77.0268 94.0435 77.2212 94.0325C77.4155 94.0178 77.6025 94.027 77.7822 94.06V95.138C77.5878 95.0867 77.3715 95.072 77.1332 95.094C76.8985 95.116 76.6822 95.1912 76.4842 95.3195C76.2972 95.4405 76.1487 95.5872 76.0387 95.7595C75.9323 95.9318 75.8553 96.1243 75.8077 96.337C75.76 96.546 75.7362 96.7678 75.7362 97.0025V100H74.5757ZM78.7196 96.9915V96.0675H82.0196V96.9915H78.7196ZM83.9932 100V93.851C83.9932 93.7007 83.9987 93.5412 84.0097 93.3725C84.0207 93.2002 84.0519 93.0315 84.1032 92.8665C84.1582 92.6978 84.248 92.5438 84.3727 92.4045C84.523 92.2395 84.688 92.1222 84.8677 92.0525C85.0474 91.9828 85.2252 91.9425 85.4012 91.9315C85.5809 91.9205 85.7459 91.915 85.8962 91.915H86.6442V92.861H85.9512C85.6799 92.861 85.4764 92.9288 85.3407 93.0645C85.2087 93.1965 85.1427 93.3853 85.1427 93.631V100H83.9932ZM83.0087 94.984V94.06H86.6442V94.984H83.0087ZM87.7992 93.0865V91.97H88.9487V93.0865H87.7992ZM87.7992 100V94.06H88.9487V100H87.7992ZM94.002 100C93.628 100.073 93.2613 100.105 92.902 100.094C92.5427 100.083 92.2218 100.013 91.9395 99.8845C91.6572 99.7562 91.4445 99.5545 91.3015 99.2795C91.1732 99.0338 91.1035 98.7845 91.0925 98.5315C91.0852 98.2748 91.0815 97.9852 91.0815 97.6625V92.41H92.2365V97.6075C92.2365 97.8458 92.2383 98.053 92.242 98.229C92.2493 98.405 92.2878 98.5535 92.3575 98.6745C92.4895 98.9018 92.6985 99.032 92.9845 99.065C93.2742 99.0943 93.6133 99.0815 94.002 99.0265V100ZM89.943 94.984V94.06H94.002V94.984H89.943ZM97.4929 100.16C97.0822 100.16 96.7375 100.094 96.4589 99.9615C96.1802 99.8295 95.9529 99.6572 95.7769 99.4445C95.6045 99.2282 95.4725 98.9935 95.3809 98.7405C95.2892 98.4875 95.2269 98.24 95.1939 97.998C95.1609 97.756 95.1444 97.5433 95.1444 97.36V94.06H96.3104V96.9805C96.3104 97.2115 96.3287 97.4498 96.3654 97.6955C96.4057 97.9375 96.479 98.163 96.5854 98.372C96.6954 98.581 96.8475 98.7497 97.0419 98.878C97.2399 99.0063 97.4965 99.0705 97.8119 99.0705C98.0172 99.0705 98.2115 99.0375 98.3949 98.9715C98.5782 98.9018 98.7377 98.7918 98.8734 98.6415C99.0127 98.4912 99.1209 98.2932 99.1979 98.0475C99.2785 97.8018 99.3189 97.503 99.3189 97.151L100.034 97.4205C100.034 97.9595 99.933 98.4362 99.7314 98.8505C99.5297 99.2612 99.24 99.582 98.8624 99.813C98.4847 100.044 98.0282 100.16 97.4929 100.16ZM99.4564 100V98.284H99.3189V94.06H100.479V100H99.4564ZM102.022 100V94.06H103.045V95.501L102.902 95.314C102.975 95.1233 103.071 94.9492 103.188 94.7915C103.305 94.6302 103.441 94.4982 103.595 94.3955C103.745 94.2855 103.912 94.2012 104.095 94.1425C104.282 94.0802 104.473 94.0435 104.667 94.0325C104.862 94.0178 105.049 94.027 105.228 94.06V95.138C105.034 95.0867 104.818 95.072 104.579 95.094C104.345 95.116 104.128 95.1912 103.93 95.3195C103.743 95.4405 103.595 95.5872 103.485 95.7595C103.379 95.9318 103.302 96.1243 103.254 96.337C103.206 96.546 103.182 96.7678 103.182 97.0025V100H102.022ZM110.156 100.165C109.716 100.165 109.347 100.084 109.05 99.923C108.753 99.758 108.528 99.5417 108.374 99.274C108.223 99.0027 108.148 98.7057 108.148 98.383C108.148 98.0823 108.201 97.8183 108.308 97.591C108.414 97.3637 108.572 97.1712 108.781 97.0135C108.99 96.8522 109.246 96.722 109.551 96.623C109.815 96.546 110.113 96.4782 110.447 96.4195C110.781 96.3608 111.131 96.3058 111.498 96.2545C111.868 96.2032 112.235 96.1518 112.598 96.1005L112.18 96.3315C112.187 95.8658 112.088 95.5212 111.883 95.2975C111.681 95.0702 111.333 94.9565 110.838 94.9565C110.526 94.9565 110.24 95.0298 109.98 95.1765C109.719 95.3195 109.538 95.5578 109.435 95.8915L108.363 95.5615C108.509 95.0518 108.788 94.6467 109.199 94.346C109.613 94.0453 110.163 93.895 110.849 93.895C111.38 93.895 111.842 93.9867 112.235 94.17C112.631 94.3497 112.92 94.6357 113.104 95.028C113.199 95.2223 113.258 95.4277 113.28 95.644C113.302 95.8603 113.313 96.0932 113.313 96.3425V100H112.295V98.6415L112.493 98.8175C112.247 99.2722 111.934 99.6113 111.553 99.835C111.175 100.055 110.709 100.165 110.156 100.165ZM110.359 99.2245C110.685 99.2245 110.966 99.1677 111.201 99.054C111.435 98.9367 111.624 98.7882 111.767 98.6085C111.91 98.4288 112.004 98.2418 112.048 98.0475C112.11 97.8715 112.145 97.6735 112.152 97.4535C112.163 97.2335 112.169 97.0575 112.169 96.9255L112.543 97.063C112.18 97.118 111.85 97.1675 111.553 97.2115C111.256 97.2555 110.986 97.2995 110.744 97.3435C110.506 97.3838 110.293 97.4333 110.106 97.492C109.948 97.547 109.807 97.613 109.683 97.69C109.562 97.767 109.464 97.8605 109.391 97.9705C109.321 98.0805 109.287 98.2143 109.287 98.372C109.287 98.526 109.325 98.669 109.402 98.801C109.479 98.9293 109.596 99.032 109.754 99.109C109.912 99.186 110.113 99.2245 110.359 99.2245ZM117.529 100.165C116.961 100.165 116.484 100.028 116.099 99.7525C115.714 99.4738 115.423 99.098 115.225 98.625C115.027 98.152 114.928 97.6185 114.928 97.0245C114.928 96.4305 115.025 95.897 115.219 95.424C115.417 94.951 115.707 94.5788 116.088 94.3075C116.473 94.0325 116.946 93.895 117.507 93.895C118.065 93.895 118.545 94.0325 118.948 94.3075C119.355 94.5788 119.669 94.951 119.889 95.424C120.109 95.8933 120.219 96.4268 120.219 97.0245C120.219 97.6185 120.109 98.1538 119.889 98.6305C119.672 99.1035 119.363 99.4775 118.959 99.7525C118.56 100.028 118.083 100.165 117.529 100.165ZM114.735 102.64V94.06H115.758V98.3335H115.89V102.64H114.735ZM117.37 99.1255C117.736 99.1255 118.039 99.032 118.277 98.845C118.519 98.658 118.699 98.4068 118.816 98.0915C118.937 97.7725 118.998 97.4168 118.998 97.0245C118.998 96.6358 118.937 96.2838 118.816 95.9685C118.699 95.6532 118.517 95.402 118.272 95.215C118.026 95.028 117.713 94.9345 117.331 94.9345C116.972 94.9345 116.675 95.0225 116.44 95.1985C116.209 95.3745 116.037 95.6202 115.923 95.9355C115.813 96.2508 115.758 96.6138 115.758 97.0245C115.758 97.4352 115.813 97.7982 115.923 98.1135C116.033 98.4288 116.207 98.6763 116.446 98.856C116.684 99.0357 116.992 99.1255 117.37 99.1255ZM121.543 100V91.915H122.693V100H121.543ZM124.454 93.0865V91.97H125.604V93.0865H124.454ZM124.454 100V94.06H125.604V100H124.454ZM127.25 100L127.255 92.08H128.421V96.92L130.753 94.06H132.216L129.752 97.03L132.469 100H130.907L128.421 97.14V100H127.25ZM134.701 100.165C134.261 100.165 133.893 100.084 133.596 99.923C133.299 99.758 133.073 99.5417 132.919 99.274C132.769 99.0027 132.694 98.7057 132.694 98.383C132.694 98.0823 132.747 97.8183 132.853 97.591C132.96 97.3637 133.117 97.1712 133.326 97.0135C133.535 96.8522 133.792 96.722 134.096 96.623C134.36 96.546 134.659 96.4782 134.993 96.4195C135.327 96.3608 135.677 96.3058 136.043 96.2545C136.414 96.2032 136.78 96.1518 137.143 96.1005L136.725 96.3315C136.733 95.8658 136.634 95.5212 136.428 95.2975C136.227 95.0702 135.878 94.9565 135.383 94.9565C135.072 94.9565 134.786 95.0298 134.525 95.1765C134.265 95.3195 134.084 95.5578 133.981 95.8915L132.908 95.5615C133.055 95.0518 133.334 94.6467 133.744 94.346C134.159 94.0453 134.709 93.895 135.394 93.895C135.926 93.895 136.388 93.9867 136.78 94.17C137.176 94.3497 137.466 94.6357 137.649 95.028C137.745 95.2223 137.803 95.4277 137.825 95.644C137.847 95.8603 137.858 96.0932 137.858 96.3425V100H136.841V98.6415L137.039 98.8175C136.793 99.2722 136.48 99.6113 136.098 99.835C135.721 100.055 135.255 100.165 134.701 100.165ZM134.905 99.2245C135.231 99.2245 135.512 99.1677 135.746 99.054C135.981 98.9367 136.17 98.7882 136.313 98.6085C136.456 98.4288 136.549 98.2418 136.593 98.0475C136.656 97.8715 136.691 97.6735 136.698 97.4535C136.709 97.2335 136.714 97.0575 136.714 96.9255L137.088 97.063C136.725 97.118 136.395 97.1675 136.098 97.2115C135.801 97.2555 135.532 97.2995 135.29 97.3435C135.052 97.3838 134.839 97.4333 134.652 97.492C134.494 97.547 134.353 97.613 134.228 97.69C134.107 97.767 134.01 97.8605 133.937 97.9705C133.867 98.0805 133.832 98.2143 133.832 98.372C133.832 98.526 133.871 98.669 133.948 98.801C134.025 98.9293 134.142 99.032 134.3 99.109C134.458 99.186 134.659 99.2245 134.905 99.2245ZM141.558 100.16C140.836 100.16 140.247 100 139.793 99.681C139.338 99.362 139.059 98.9128 138.957 98.3335L140.134 98.152C140.207 98.46 140.376 98.7038 140.64 98.8835C140.907 99.0595 141.239 99.1475 141.635 99.1475C141.994 99.1475 142.275 99.0742 142.477 98.9275C142.682 98.7808 142.785 98.5792 142.785 98.3225C142.785 98.1722 142.748 98.0512 142.675 97.9595C142.605 97.8642 142.456 97.7743 142.229 97.69C142.002 97.6057 141.655 97.5012 141.19 97.3765C140.68 97.2445 140.275 97.1033 139.974 96.953C139.677 96.799 139.464 96.6212 139.336 96.4195C139.211 96.2142 139.149 95.9667 139.149 95.677C139.149 95.3177 139.244 95.0042 139.435 94.7365C139.626 94.4688 139.893 94.2617 140.238 94.115C140.586 93.9683 140.993 93.895 141.459 93.895C141.914 93.895 142.319 93.9665 142.675 94.1095C143.03 94.2525 143.318 94.456 143.538 94.72C143.758 94.9803 143.89 95.2865 143.934 95.6385L142.757 95.853C142.717 95.567 142.583 95.3415 142.356 95.1765C142.128 95.0115 141.833 94.9217 141.47 94.907C141.122 94.8923 140.839 94.951 140.623 95.083C140.407 95.2113 140.299 95.3892 140.299 95.6165C140.299 95.7485 140.339 95.8603 140.42 95.952C140.504 96.0437 140.665 96.1317 140.904 96.216C141.142 96.3003 141.494 96.4012 141.96 96.5185C142.458 96.6468 142.854 96.7898 143.148 96.9475C143.441 97.1015 143.65 97.2867 143.775 97.503C143.903 97.7157 143.967 97.9742 143.967 98.2785C143.967 98.8652 143.753 99.3253 143.324 99.659C142.898 99.9927 142.31 100.16 141.558 100.16ZM145.294 93.0865V91.97H146.444V93.0865H145.294ZM145.294 100V94.06H146.444V100H145.294ZM150.292 100L150.297 92.08H151.463V96.92L153.795 94.06H155.258L152.794 97.03L155.511 100H153.949L151.463 97.14V100H150.292ZM157.743 100.165C157.303 100.165 156.935 100.084 156.638 99.923C156.341 99.758 156.115 99.5417 155.961 99.274C155.811 99.0027 155.736 98.7057 155.736 98.383C155.736 98.0823 155.789 97.8183 155.895 97.591C156.002 97.3637 156.159 97.1712 156.368 97.0135C156.577 96.8522 156.834 96.722 157.138 96.623C157.402 96.546 157.701 96.4782 158.035 96.4195C158.369 96.3608 158.719 96.3058 159.085 96.2545C159.456 96.2032 159.822 96.1518 160.185 96.1005L159.767 96.3315C159.775 95.8658 159.676 95.5212 159.47 95.2975C159.269 95.0702 158.92 94.9565 158.425 94.9565C158.114 94.9565 157.828 95.0298 157.567 95.1765C157.307 95.3195 157.126 95.5578 157.023 95.8915L155.95 95.5615C156.097 95.0518 156.376 94.6467 156.786 94.346C157.201 94.0453 157.751 93.895 158.436 93.895C158.968 93.895 159.43 93.9867 159.822 94.17C160.218 94.3497 160.508 94.6357 160.691 95.028C160.787 95.2223 160.845 95.4277 160.867 95.644C160.889 95.8603 160.9 96.0932 160.9 96.3425V100H159.883V98.6415L160.081 98.8175C159.835 99.2722 159.522 99.6113 159.14 99.835C158.763 100.055 158.297 100.165 157.743 100.165ZM157.947 99.2245C158.273 99.2245 158.554 99.1677 158.788 99.054C159.023 98.9367 159.212 98.7882 159.355 98.6085C159.498 98.4288 159.591 98.2418 159.635 98.0475C159.698 97.8715 159.733 97.6735 159.74 97.4535C159.751 97.2335 159.756 97.0575 159.756 96.9255L160.13 97.063C159.767 97.118 159.437 97.1675 159.14 97.2115C158.843 97.2555 158.574 97.2995 158.332 97.3435C158.094 97.3838 157.881 97.4333 157.694 97.492C157.536 97.547 157.395 97.613 157.27 97.69C157.149 97.767 157.052 97.8605 156.979 97.9705C156.909 98.0805 156.874 98.2143 156.874 98.372C156.874 98.526 156.913 98.669 156.99 98.801C157.067 98.9293 157.184 99.032 157.342 99.109C157.5 99.186 157.701 99.2245 157.947 99.2245ZM169.446 100L169.451 96.2985C169.451 95.8695 169.341 95.5358 169.121 95.2975C168.901 95.0555 168.611 94.9345 168.252 94.9345C168.032 94.9345 167.83 94.9858 167.647 95.0885C167.467 95.1875 167.321 95.3378 167.207 95.5395C167.097 95.7375 167.042 95.9868 167.042 96.2875L166.487 96.007C166.479 95.589 166.567 95.2223 166.751 94.907C166.938 94.5917 167.191 94.3478 167.51 94.1755C167.829 93.9995 168.186 93.9115 168.582 93.9115C169.224 93.9115 169.721 94.104 170.073 94.489C170.425 94.874 170.601 95.3855 170.601 96.0235L170.595 100H169.446ZM162.323 100V94.06H163.346V95.776H163.478V100H162.323ZM165.887 100L165.893 96.3205C165.893 95.8878 165.783 95.5487 165.563 95.303C165.346 95.0573 165.055 94.9345 164.688 94.9345C164.325 94.9345 164.032 95.0592 163.808 95.3085C163.588 95.5578 163.478 95.8842 163.478 96.2875L162.928 95.9355C162.928 95.5468 163.022 95.2003 163.209 94.896C163.396 94.5917 163.649 94.3515 163.968 94.1755C164.287 93.9995 164.648 93.9115 165.051 93.9115C165.473 93.9115 165.832 94.0013 166.129 94.181C166.426 94.357 166.652 94.6045 166.806 94.9235C166.963 95.2425 167.042 95.6128 167.042 96.0345L167.037 100H165.887ZM172.139 93.0865V91.97H173.288V93.0865H172.139ZM172.139 100V94.06H173.288V100H172.139Z" fill="#727272"/>
<path d="M185.701 127.165C184.909 127.165 184.235 126.993 183.677 126.648C183.12 126.3 182.693 125.816 182.396 125.196C182.103 124.576 181.956 123.858 181.956 123.04C181.956 122.222 182.103 121.504 182.396 120.884C182.693 120.264 183.12 119.782 183.677 119.437C184.235 119.089 184.909 118.915 185.701 118.915C186.614 118.915 187.37 119.146 187.967 119.608C188.569 120.07 188.987 120.691 189.221 121.473L188.055 121.786C187.901 121.232 187.626 120.798 187.23 120.482C186.838 120.167 186.328 120.009 185.701 120.009C185.14 120.009 184.673 120.136 184.299 120.389C183.925 120.642 183.643 120.996 183.452 121.45C183.265 121.905 183.171 122.435 183.171 123.04C183.168 123.645 183.259 124.175 183.446 124.629C183.637 125.084 183.919 125.438 184.293 125.691C184.671 125.944 185.14 126.07 185.701 126.07C186.328 126.07 186.838 125.913 187.23 125.597C187.626 125.278 187.901 124.844 188.055 124.294L189.221 124.607C188.987 125.388 188.569 126.01 187.967 126.472C187.37 126.934 186.614 127.165 185.701 127.165ZM193.011 127.165C192.417 127.165 191.901 127.031 191.465 126.763C191.029 126.496 190.691 126.127 190.453 125.658C190.218 125.185 190.101 124.64 190.101 124.024C190.101 123.405 190.222 122.86 190.464 122.391C190.706 121.918 191.045 121.551 191.482 121.291C191.918 121.027 192.428 120.895 193.011 120.895C193.605 120.895 194.12 121.029 194.556 121.296C194.992 121.564 195.33 121.933 195.568 122.402C195.806 122.871 195.926 123.412 195.926 124.024C195.926 124.644 195.805 125.19 195.563 125.663C195.324 126.133 194.987 126.501 194.551 126.769C194.114 127.033 193.601 127.165 193.011 127.165ZM193.011 126.081C193.579 126.081 194.002 125.891 194.281 125.509C194.563 125.124 194.705 124.629 194.705 124.024C194.705 123.405 194.562 122.91 194.276 122.539C193.993 122.165 193.572 121.978 193.011 121.978C192.626 121.978 192.308 122.066 192.059 122.242C191.81 122.415 191.625 122.655 191.504 122.963C191.383 123.267 191.322 123.621 191.322 124.024C191.322 124.648 191.465 125.146 191.751 125.52C192.037 125.894 192.457 126.081 193.011 126.081ZM199.923 127.165C199.354 127.165 198.878 127.028 198.493 126.752C198.108 126.474 197.816 126.098 197.618 125.625C197.42 125.152 197.321 124.618 197.321 124.024C197.321 123.43 197.418 122.897 197.613 122.424C197.811 121.951 198.1 121.579 198.482 121.307C198.867 121.032 199.34 120.895 199.901 120.895C200.458 120.895 200.938 121.032 201.342 121.307C201.749 121.579 202.062 121.951 202.282 122.424C202.502 122.893 202.612 123.427 202.612 124.024C202.612 124.618 202.502 125.154 202.282 125.63C202.066 126.103 201.756 126.477 201.353 126.752C200.953 127.028 200.476 127.165 199.923 127.165ZM197.129 127V119.08H198.284V122.726H198.152V127H197.129ZM199.763 126.125C200.13 126.125 200.432 126.032 200.671 125.845C200.913 125.658 201.092 125.407 201.21 125.091C201.331 124.772 201.391 124.417 201.391 124.024C201.391 123.636 201.331 123.284 201.21 122.968C201.092 122.653 200.911 122.402 200.665 122.215C200.42 122.028 200.106 121.934 199.725 121.934C199.365 121.934 199.068 122.022 198.834 122.198C198.603 122.374 198.43 122.62 198.317 122.935C198.207 123.251 198.152 123.614 198.152 124.024C198.152 124.435 198.207 124.798 198.317 125.113C198.427 125.429 198.601 125.676 198.839 125.856C199.078 126.036 199.386 126.125 199.763 126.125ZM205.504 127.165C205.064 127.165 204.696 127.084 204.399 126.923C204.102 126.758 203.876 126.542 203.722 126.274C203.572 126.003 203.497 125.706 203.497 125.383C203.497 125.082 203.55 124.818 203.656 124.591C203.762 124.364 203.92 124.171 204.129 124.013C204.338 123.852 204.595 123.722 204.899 123.623C205.163 123.546 205.462 123.478 205.796 123.419C206.129 123.361 206.479 123.306 206.846 123.254C207.216 123.203 207.583 123.152 207.946 123.1L207.528 123.331C207.535 122.866 207.436 122.521 207.231 122.297C207.029 122.07 206.681 121.956 206.186 121.956C205.874 121.956 205.588 122.03 205.328 122.176C205.068 122.319 204.886 122.558 204.784 122.891L203.711 122.561C203.858 122.052 204.136 121.647 204.547 121.346C204.961 121.045 205.511 120.895 206.197 120.895C206.729 120.895 207.191 120.987 207.583 121.17C207.979 121.35 208.269 121.636 208.452 122.028C208.547 122.222 208.606 122.428 208.628 122.644C208.65 122.86 208.661 123.093 208.661 123.342V127H207.644V125.641L207.842 125.817C207.596 126.272 207.282 126.611 206.901 126.835C206.523 127.055 206.058 127.165 205.504 127.165ZM205.708 126.224C206.034 126.224 206.314 126.168 206.549 126.054C206.784 125.937 206.973 125.788 207.116 125.608C207.259 125.429 207.352 125.242 207.396 125.047C207.458 124.871 207.493 124.673 207.501 124.453C207.512 124.233 207.517 124.057 207.517 123.925L207.891 124.063C207.528 124.118 207.198 124.167 206.901 124.211C206.604 124.255 206.335 124.299 206.093 124.343C205.854 124.384 205.642 124.433 205.455 124.492C205.297 124.547 205.156 124.613 205.031 124.69C204.91 124.767 204.813 124.86 204.74 124.97C204.67 125.08 204.635 125.214 204.635 125.372C204.635 125.526 204.674 125.669 204.751 125.801C204.828 125.929 204.945 126.032 205.103 126.109C205.26 126.186 205.462 126.224 205.708 126.224ZM215.162 127.165C214.594 127.165 214.081 127.068 213.622 126.873C213.168 126.675 212.792 126.395 212.495 126.032C212.202 125.665 212.011 125.231 211.923 124.728L213.122 124.547C213.243 125.031 213.496 125.409 213.881 125.68C214.266 125.948 214.715 126.081 215.228 126.081C215.547 126.081 215.841 126.032 216.108 125.933C216.376 125.83 216.591 125.685 216.752 125.498C216.917 125.308 216.999 125.08 216.999 124.816C216.999 124.673 216.974 124.547 216.922 124.437C216.875 124.327 216.807 124.232 216.719 124.151C216.635 124.067 216.53 123.995 216.405 123.936C216.284 123.874 216.151 123.821 216.004 123.777L213.974 123.177C213.776 123.119 213.575 123.044 213.369 122.952C213.164 122.857 212.975 122.734 212.803 122.583C212.634 122.429 212.497 122.241 212.39 122.017C212.284 121.79 212.231 121.515 212.231 121.192C212.231 120.704 212.356 120.292 212.605 119.954C212.858 119.613 213.199 119.357 213.628 119.184C214.057 119.008 214.537 118.92 215.069 118.92C215.604 118.928 216.083 119.023 216.504 119.206C216.93 119.39 217.282 119.654 217.56 119.998C217.843 120.339 218.037 120.754 218.143 121.241L216.911 121.45C216.856 121.153 216.739 120.899 216.559 120.686C216.38 120.47 216.16 120.305 215.899 120.191C215.639 120.074 215.357 120.013 215.052 120.009C214.759 120.002 214.49 120.046 214.244 120.141C214.002 120.237 213.808 120.371 213.661 120.543C213.518 120.715 213.446 120.913 213.446 121.137C213.446 121.357 213.511 121.535 213.639 121.67C213.767 121.806 213.925 121.914 214.112 121.995C214.303 122.072 214.491 122.136 214.678 122.187L216.141 122.6C216.325 122.651 216.532 122.721 216.763 122.809C216.998 122.893 217.223 123.012 217.439 123.166C217.659 123.32 217.841 123.526 217.984 123.782C218.127 124.035 218.198 124.354 218.198 124.739C218.198 125.139 218.118 125.491 217.956 125.795C217.795 126.096 217.573 126.349 217.291 126.554C217.012 126.756 216.69 126.908 216.323 127.011C215.956 127.114 215.569 127.165 215.162 127.165ZM222.005 127.165C221.415 127.165 220.896 127.037 220.449 126.78C220.005 126.52 219.658 126.158 219.409 125.696C219.163 125.231 219.041 124.692 219.041 124.079C219.041 123.43 219.162 122.868 219.404 122.391C219.649 121.914 219.99 121.546 220.427 121.285C220.863 121.025 221.371 120.895 221.95 120.895C222.555 120.895 223.07 121.036 223.496 121.319C223.921 121.597 224.238 121.995 224.447 122.512C224.66 123.029 224.744 123.643 224.7 124.354H223.551V123.936C223.543 123.247 223.411 122.737 223.155 122.407C222.902 122.077 222.515 121.912 221.994 121.912C221.418 121.912 220.986 122.094 220.696 122.457C220.406 122.82 220.262 123.344 220.262 124.03C220.262 124.683 220.406 125.189 220.696 125.548C220.986 125.904 221.404 126.081 221.95 126.081C222.309 126.081 222.619 126.001 222.88 125.839C223.144 125.674 223.349 125.44 223.496 125.135L224.623 125.493C224.392 126.025 224.042 126.437 223.573 126.73C223.103 127.02 222.581 127.165 222.005 127.165ZM219.888 124.354V123.458H224.128V124.354H219.888ZM225.929 127L225.934 119.08H227.1V123.92L229.432 121.06H230.895L228.431 124.03L231.148 127H229.586L227.1 124.14V127H225.929ZM233.38 127.165C232.94 127.165 232.572 127.084 232.275 126.923C231.978 126.758 231.752 126.542 231.598 126.274C231.448 126.003 231.373 125.706 231.373 125.383C231.373 125.082 231.426 124.818 231.532 124.591C231.638 124.364 231.796 124.171 232.005 124.013C232.214 123.852 232.471 123.722 232.775 123.623C233.039 123.546 233.338 123.478 233.672 123.419C234.005 123.361 234.355 123.306 234.722 123.254C235.092 123.203 235.459 123.152 235.822 123.1L235.404 123.331C235.411 122.866 235.312 122.521 235.107 122.297C234.905 122.07 234.557 121.956 234.062 121.956C233.75 121.956 233.464 122.03 233.204 122.176C232.944 122.319 232.762 122.558 232.66 122.891L231.587 122.561C231.734 122.052 232.012 121.647 232.423 121.346C232.837 121.045 233.387 120.895 234.073 120.895C234.605 120.895 235.067 120.987 235.459 121.17C235.855 121.35 236.145 121.636 236.328 122.028C236.423 122.222 236.482 122.428 236.504 122.644C236.526 122.86 236.537 123.093 236.537 123.342V127H235.52V125.641L235.718 125.817C235.472 126.272 235.158 126.611 234.777 126.835C234.399 127.055 233.934 127.165 233.38 127.165ZM233.584 126.224C233.91 126.224 234.19 126.168 234.425 126.054C234.66 125.937 234.849 125.788 234.992 125.608C235.135 125.429 235.228 125.242 235.272 125.047C235.334 124.871 235.369 124.673 235.377 124.453C235.388 124.233 235.393 124.057 235.393 123.925L235.767 124.063C235.404 124.118 235.074 124.167 234.777 124.211C234.48 124.255 234.211 124.299 233.969 124.343C233.73 124.384 233.518 124.433 233.331 124.492C233.173 124.547 233.032 124.613 232.907 124.69C232.786 124.767 232.689 124.86 232.616 124.97C232.546 125.08 232.511 125.214 232.511 125.372C232.511 125.526 232.55 125.669 232.627 125.801C232.704 125.929 232.821 126.032 232.979 126.109C233.136 126.186 233.338 126.224 233.584 126.224ZM237.965 127V121.06H238.988V122.501L238.845 122.314C238.919 122.123 239.014 121.949 239.131 121.791C239.249 121.63 239.384 121.498 239.538 121.395C239.689 121.285 239.855 121.201 240.039 121.142C240.226 121.08 240.416 121.043 240.611 121.032C240.805 121.018 240.992 121.027 241.172 121.06V122.138C240.977 122.087 240.761 122.072 240.523 122.094C240.288 122.116 240.072 122.191 239.874 122.319C239.687 122.44 239.538 122.587 239.428 122.759C239.322 122.932 239.245 123.124 239.197 123.337C239.15 123.546 239.126 123.768 239.126 124.002V127H237.965ZM243.725 127.165C243.285 127.165 242.916 127.084 242.619 126.923C242.322 126.758 242.097 126.542 241.943 126.274C241.793 126.003 241.717 125.706 241.717 125.383C241.717 125.082 241.771 124.818 241.877 124.591C241.983 124.364 242.141 124.171 242.35 124.013C242.559 123.852 242.816 123.722 243.12 123.623C243.384 123.546 243.683 123.478 244.016 123.419C244.35 123.361 244.7 123.306 245.067 123.254C245.437 123.203 245.804 123.152 246.167 123.1L245.749 123.331C245.756 122.866 245.657 122.521 245.452 122.297C245.25 122.07 244.902 121.956 244.407 121.956C244.095 121.956 243.809 122.03 243.549 122.176C243.289 122.319 243.107 122.558 243.004 122.891L241.932 122.561C242.079 122.052 242.357 121.647 242.768 121.346C243.182 121.045 243.732 120.895 244.418 120.895C244.95 120.895 245.412 120.987 245.804 121.17C246.2 121.35 246.49 121.636 246.673 122.028C246.768 122.222 246.827 122.428 246.849 122.644C246.871 122.86 246.882 123.093 246.882 123.342V127H245.864V125.641L246.062 125.817C245.817 126.272 245.503 126.611 245.122 126.835C244.744 127.055 244.279 127.165 243.725 127.165ZM243.928 126.224C244.255 126.224 244.535 126.168 244.77 126.054C245.005 125.937 245.193 125.788 245.336 125.608C245.479 125.429 245.573 125.242 245.617 125.047C245.679 124.871 245.714 124.673 245.721 124.453C245.732 124.233 245.738 124.057 245.738 123.925L246.112 124.063C245.749 124.118 245.419 124.167 245.122 124.211C244.825 124.255 244.555 124.299 244.313 124.343C244.075 124.384 243.862 124.433 243.675 124.492C243.518 124.547 243.377 124.613 243.252 124.69C243.131 124.767 243.034 124.86 242.96 124.97C242.891 125.08 242.856 125.214 242.856 125.372C242.856 125.526 242.894 125.669 242.971 125.801C243.048 125.929 243.166 126.032 243.323 126.109C243.481 126.186 243.683 126.224 243.928 126.224ZM252.479 127V124.079C252.479 123.848 252.459 123.612 252.419 123.37C252.382 123.124 252.309 122.897 252.199 122.688C252.092 122.479 251.94 122.31 251.742 122.182C251.548 122.054 251.293 121.989 250.978 121.989C250.772 121.989 250.578 122.024 250.395 122.094C250.211 122.16 250.05 122.268 249.911 122.418C249.775 122.569 249.667 122.767 249.586 123.012C249.509 123.258 249.471 123.557 249.471 123.909L248.756 123.639C248.756 123.1 248.856 122.626 249.058 122.215C249.26 121.801 249.549 121.478 249.927 121.247C250.305 121.016 250.761 120.9 251.297 120.9C251.707 120.9 252.052 120.966 252.331 121.098C252.609 121.23 252.835 121.405 253.007 121.621C253.183 121.834 253.317 122.066 253.409 122.319C253.5 122.572 253.563 122.82 253.596 123.062C253.629 123.304 253.645 123.517 253.645 123.7V127H252.479ZM248.305 127V121.06H249.333V122.776H249.471V127H248.305ZM257.525 129.805C257.206 129.805 256.896 129.756 256.596 129.657C256.299 129.558 256.027 129.411 255.782 129.217C255.536 129.026 255.332 128.789 255.171 128.507L256.233 127.968C256.361 128.221 256.544 128.406 256.783 128.524C257.021 128.641 257.272 128.7 257.536 128.7C257.862 128.7 258.141 128.641 258.372 128.524C258.603 128.41 258.777 128.238 258.895 128.007C259.016 127.776 259.074 127.49 259.071 127.149V125.487H259.208V121.06H260.226V127.16C260.226 127.317 260.22 127.468 260.209 127.611C260.198 127.754 260.178 127.897 260.149 128.04C260.064 128.439 259.903 128.769 259.665 129.03C259.43 129.29 259.129 129.484 258.763 129.613C258.4 129.741 257.987 129.805 257.525 129.805ZM257.437 127.165C256.883 127.165 256.405 127.028 256.002 126.752C255.602 126.477 255.292 126.103 255.072 125.63C254.856 125.154 254.748 124.618 254.748 124.024C254.748 123.427 254.858 122.893 255.078 122.424C255.298 121.951 255.609 121.579 256.013 121.307C256.42 121.032 256.902 120.895 257.459 120.895C258.02 120.895 258.491 121.032 258.873 121.307C259.258 121.579 259.547 121.951 259.742 122.424C259.94 122.897 260.039 123.43 260.039 124.024C260.039 124.618 259.94 125.152 259.742 125.625C259.544 126.098 259.252 126.474 258.867 126.752C258.482 127.028 258.005 127.165 257.437 127.165ZM257.597 126.125C257.974 126.125 258.282 126.036 258.521 125.856C258.759 125.676 258.933 125.429 259.043 125.113C259.153 124.798 259.208 124.435 259.208 124.024C259.208 123.614 259.151 123.251 259.038 122.935C258.928 122.62 258.755 122.374 258.521 122.198C258.29 122.022 257.994 121.934 257.635 121.934C257.254 121.934 256.94 122.028 256.695 122.215C256.449 122.402 256.266 122.653 256.145 122.968C256.027 123.284 255.969 123.636 255.969 124.024C255.969 124.417 256.027 124.772 256.145 125.091C256.266 125.407 256.445 125.658 256.684 125.845C256.926 126.032 257.23 126.125 257.597 126.125Z" fill="#545454"/>
<path d="M181.626 127.688H258.639V127.962H181.626V127.688ZM260.478 127.688H260.996V127.962H260.478V127.688Z" fill="#545454"/>
</svg>
