<svg width="206" height="79" viewBox="0 0 206 79" fill="none" xmlns="http://www.w3.org/2000/svg">
<rect width="206" height="79" rx="12" fill="white"/>
<path d="M22.976 30.24C22.1973 30.24 21.504 30.0827 20.896 29.768C20.2933 29.448 19.8187 29.0107 19.472 28.456C19.1307 27.896 18.96 27.2587 18.96 26.544C18.96 25.936 19.096 25.3627 19.368 24.824C19.6453 24.2853 20.0427 23.8453 20.56 23.504L20.512 24.176C20.1227 23.7973 19.816 23.3973 19.592 22.976C19.3733 22.5547 19.264 22.08 19.264 21.552C19.264 20.8853 19.4213 20.304 19.736 19.808C20.056 19.312 20.4933 18.928 21.048 18.656C21.608 18.3787 22.2507 18.24 22.976 18.24C23.7013 18.24 24.3413 18.3787 24.896 18.656C25.456 18.928 25.8933 19.312 26.208 19.808C26.528 20.304 26.688 20.8853 26.688 21.552C26.688 22.08 26.584 22.5547 26.376 22.976C26.168 23.392 25.8507 23.7973 25.424 24.192V23.52C25.9307 23.84 26.32 24.272 26.592 24.816C26.8693 25.36 27.008 25.936 27.008 26.544C27.008 27.2587 26.8347 27.896 26.488 28.456C26.1413 29.0107 25.664 29.448 25.056 29.768C24.448 30.0827 23.7547 30.24 22.976 30.24ZM22.976 28.192C23.488 28.192 23.904 28.0533 24.224 27.776C24.544 27.4987 24.704 27.088 24.704 26.544C24.704 26.0053 24.544 25.5947 24.224 25.312C23.904 25.024 23.488 24.88 22.976 24.88C22.464 24.88 22.0507 25.024 21.736 25.312C21.4213 25.5947 21.264 26.0053 21.264 26.544C21.264 27.088 21.4213 27.4987 21.736 27.776C22.0507 28.0533 22.464 28.192 22.976 28.192ZM22.976 22.816C23.392 22.816 23.7307 22.7147 23.992 22.512C24.2533 22.304 24.384 21.984 24.384 21.552C24.384 21.12 24.2533 20.8 23.992 20.592C23.7307 20.3787 23.392 20.272 22.976 20.272C22.56 20.272 22.2213 20.3787 21.96 20.592C21.6987 20.8 21.568 21.12 21.568 21.552C21.568 21.984 21.6987 22.304 21.96 22.512C22.2213 22.7147 22.56 22.816 22.976 22.816ZM33.3608 30.24C32.5074 30.24 31.7608 30.0613 31.1208 29.704C30.4808 29.3467 29.9821 28.848 29.6248 28.208C29.2674 27.568 29.0888 26.8213 29.0888 25.968V22.512C29.0888 21.6587 29.2674 20.912 29.6248 20.272C29.9821 19.632 30.4808 19.1333 31.1208 18.776C31.7608 18.4187 32.5074 18.24 33.3608 18.24C34.2141 18.24 34.9608 18.4187 35.6008 18.776C36.2408 19.1333 36.7394 19.632 37.0968 20.272C37.4541 20.912 37.6328 21.6587 37.6328 22.512V25.968C37.6328 26.8213 37.4541 27.568 37.0968 28.208C36.7394 28.848 36.2408 29.3467 35.6008 29.704C34.9608 30.0613 34.2141 30.24 33.3608 30.24ZM33.3608 28.176C33.7448 28.176 34.0914 28.0853 34.4008 27.904C34.7101 27.7227 34.9554 27.4773 35.1368 27.168C35.3181 26.8587 35.4088 26.512 35.4088 26.128V22.336C35.4088 21.952 35.3181 21.6053 35.1368 21.296C34.9554 20.9867 34.7101 20.7413 34.4008 20.56C34.0914 20.3787 33.7448 20.288 33.3608 20.288C32.9768 20.288 32.6301 20.3787 32.3208 20.56C32.0114 20.7413 31.7661 20.9867 31.5848 21.296C31.4034 21.6053 31.3128 21.952 31.3128 22.336V26.128C31.3128 26.512 31.4034 26.8587 31.5848 27.168C31.7661 27.4773 32.0114 27.7227 32.3208 27.904C32.6301 28.0853 32.9768 28.176 33.3608 28.176ZM44.142 30.24C43.2887 30.24 42.542 30.0613 41.902 29.704C41.262 29.3467 40.7633 28.848 40.406 28.208C40.0487 27.568 39.87 26.8213 39.87 25.968V22.512C39.87 21.6587 40.0487 20.912 40.406 20.272C40.7633 19.632 41.262 19.1333 41.902 18.776C42.542 18.4187 43.2887 18.24 44.142 18.24C44.9953 18.24 45.742 18.4187 46.382 18.776C47.022 19.1333 47.5207 19.632 47.878 20.272C48.2353 20.912 48.414 21.6587 48.414 22.512V25.968C48.414 26.8213 48.2353 27.568 47.878 28.208C47.5207 28.848 47.022 29.3467 46.382 29.704C45.742 30.0613 44.9953 30.24 44.142 30.24ZM44.142 28.176C44.526 28.176 44.8727 28.0853 45.182 27.904C45.4913 27.7227 45.7367 27.4773 45.918 27.168C46.0993 26.8587 46.19 26.512 46.19 26.128V22.336C46.19 21.952 46.0993 21.6053 45.918 21.296C45.7367 20.9867 45.4913 20.7413 45.182 20.56C44.8727 20.3787 44.526 20.288 44.142 20.288C43.758 20.288 43.4113 20.3787 43.102 20.56C42.7927 20.7413 42.5473 20.9867 42.366 21.296C42.1847 21.6053 42.094 21.952 42.094 22.336V26.128C42.094 26.512 42.1847 26.8587 42.366 27.168C42.5473 27.4773 42.7927 27.7227 43.102 27.904C43.4113 28.0853 43.758 28.176 44.142 28.176ZM54.9233 30.24C54.0699 30.24 53.3233 30.0613 52.6833 29.704C52.0433 29.3467 51.5446 28.848 51.1873 28.208C50.8299 27.568 50.6513 26.8213 50.6513 25.968V22.512C50.6513 21.6587 50.8299 20.912 51.1873 20.272C51.5446 19.632 52.0433 19.1333 52.6833 18.776C53.3233 18.4187 54.0699 18.24 54.9233 18.24C55.7766 18.24 56.5233 18.4187 57.1633 18.776C57.8033 19.1333 58.3019 19.632 58.6593 20.272C59.0166 20.912 59.1953 21.6587 59.1953 22.512V25.968C59.1953 26.8213 59.0166 27.568 58.6593 28.208C58.3019 28.848 57.8033 29.3467 57.1633 29.704C56.5233 30.0613 55.7766 30.24 54.9233 30.24ZM54.9233 28.176C55.3073 28.176 55.6539 28.0853 55.9633 27.904C56.2726 27.7227 56.5179 27.4773 56.6993 27.168C56.8806 26.8587 56.9713 26.512 56.9713 26.128V22.336C56.9713 21.952 56.8806 21.6053 56.6993 21.296C56.5179 20.9867 56.2726 20.7413 55.9633 20.56C55.6539 20.3787 55.3073 20.288 54.9233 20.288C54.5393 20.288 54.1926 20.3787 53.8833 20.56C53.5739 20.7413 53.3286 20.9867 53.1473 21.296C52.9659 21.6053 52.8753 21.952 52.8753 22.336V26.128C52.8753 26.512 52.9659 26.8587 53.1473 27.168C53.3286 27.4773 53.5739 27.7227 53.8833 27.904C54.1926 28.0853 54.5393 28.176 54.9233 28.176ZM64.0405 27.84V25.072H61.2725V23.392H64.0405V20.64H65.7205V23.392H68.4725V25.072H65.7205V27.84H64.0405Z" fill="#ADCC00"/>
<path d="M18.77 47V39.08H20.0955V42.754L23.258 39.08H24.886L21.4815 42.963L25.117 47H23.434L20.0955 43.304V47H18.77ZM28.0751 47.165C27.4811 47.165 26.9623 47.0312 26.5186 46.7635C26.075 46.4958 25.7303 46.1273 25.4846 45.658C25.2426 45.185 25.1216 44.6423 25.1216 44.03C25.1216 43.4067 25.2463 42.8603 25.4956 42.391C25.745 41.9217 26.0915 41.555 26.5351 41.291C26.9788 41.027 27.4921 40.895 28.0751 40.895C28.6728 40.895 29.1935 41.0288 29.6371 41.2965C30.0808 41.5642 30.4255 41.9345 30.6711 42.4075C30.9168 42.8768 31.0396 43.4177 31.0396 44.03C31.0396 44.646 30.915 45.1905 30.6656 45.6635C30.42 46.1328 30.0753 46.5013 29.6316 46.769C29.188 47.033 28.6691 47.165 28.0751 47.165ZM28.0751 45.922C28.6031 45.922 28.9955 45.746 29.2521 45.394C29.5088 45.042 29.6371 44.5873 29.6371 44.03C29.6371 43.4543 29.507 42.996 29.2466 42.655C28.9863 42.3103 28.5958 42.138 28.0751 42.138C27.7195 42.138 27.4261 42.2187 27.1951 42.38C26.9678 42.5377 26.7991 42.7595 26.6891 43.0455C26.5791 43.3278 26.5241 43.656 26.5241 44.03C26.5241 44.6057 26.6543 45.0658 26.9146 45.4105C27.1786 45.7515 27.5655 45.922 28.0751 45.922ZM39.3849 47V43.392C39.3849 42.985 39.2841 42.6678 39.0824 42.4405C38.8808 42.2095 38.6076 42.094 38.2629 42.094C38.0503 42.094 37.8596 42.1435 37.6909 42.2425C37.5223 42.3378 37.3884 42.4808 37.2894 42.6715C37.1904 42.8585 37.1409 43.0822 37.1409 43.3425L36.5524 42.996C36.5488 42.5853 36.6404 42.2242 36.8274 41.9125C37.0181 41.5972 37.2748 41.3515 37.5974 41.1755C37.9201 40.9995 38.2794 40.9115 38.6754 40.9115C39.3318 40.9115 39.8341 41.1095 40.1824 41.5055C40.5344 41.8978 40.7104 42.4148 40.7104 43.0565V47H39.3849ZM32.2404 47V41.06H33.4119V42.9025H33.5769V47H32.2404ZM35.8209 47V43.4085C35.8209 42.9942 35.7201 42.6715 35.5184 42.4405C35.3168 42.2095 35.0418 42.094 34.6934 42.094C34.3561 42.094 34.0848 42.2095 33.8794 42.4405C33.6778 42.6715 33.5769 42.9722 33.5769 43.3425L32.9829 42.9465C32.9829 42.5615 33.0783 42.215 33.2689 41.907C33.4596 41.599 33.7163 41.357 34.0389 41.181C34.3653 41.0013 34.7301 40.9115 35.1334 40.9115C35.5771 40.9115 35.9474 41.0068 36.2444 41.1975C36.5451 41.3845 36.7688 41.6412 36.9154 41.9675C37.0658 42.2902 37.1409 42.655 37.1409 43.062V47H35.8209ZM44.3725 47.1705C43.9325 47.1705 43.5695 47.0972 43.2835 46.9505C42.9975 46.8038 42.7702 46.6168 42.6015 46.3895C42.4328 46.1622 42.3082 45.9202 42.2275 45.6635C42.1468 45.4068 42.0937 45.1648 42.068 44.9375C42.046 44.7065 42.035 44.5195 42.035 44.3765V41.06H43.377V43.92C43.377 44.1033 43.3898 44.3105 43.4155 44.5415C43.4412 44.7688 43.4998 44.9888 43.5915 45.2015C43.6868 45.4105 43.8262 45.5828 44.0095 45.7185C44.1965 45.8542 44.4477 45.922 44.763 45.922C44.9317 45.922 45.0985 45.8945 45.2635 45.8395C45.4285 45.7845 45.577 45.691 45.709 45.559C45.8447 45.4233 45.9528 45.2382 46.0335 45.0035C46.1142 44.7688 46.1545 44.4718 46.1545 44.1125L46.941 44.448C46.941 44.954 46.842 45.4123 46.644 45.823C46.4497 46.2337 46.1618 46.5618 45.7805 46.8075C45.3992 47.0495 44.9298 47.1705 44.3725 47.1705ZM46.314 47V45.1575H46.1545V41.06H47.4855V47H46.314ZM53.1392 47V44.14C53.1392 43.953 53.1264 43.7458 53.1007 43.5185C53.0751 43.2912 53.0146 43.073 52.9192 42.864C52.8276 42.6513 52.6882 42.4772 52.5012 42.3415C52.3179 42.2058 52.0686 42.138 51.7532 42.138C51.5846 42.138 51.4177 42.1655 51.2527 42.2205C51.0877 42.2755 50.9374 42.3708 50.8017 42.5065C50.6697 42.6385 50.5634 42.8218 50.4827 43.0565C50.4021 43.2875 50.3617 43.5845 50.3617 43.9475L49.5752 43.612C49.5752 43.106 49.6724 42.6477 49.8667 42.237C50.0647 41.8263 50.3544 41.5 50.7357 41.258C51.1171 41.0123 51.5864 40.8895 52.1437 40.8895C52.5837 40.8895 52.9467 40.9628 53.2327 41.1095C53.5187 41.2562 53.7461 41.4432 53.9147 41.6705C54.0834 41.8978 54.2081 42.1398 54.2887 42.3965C54.3694 42.6532 54.4207 42.897 54.4427 43.128C54.4684 43.3553 54.4812 43.5405 54.4812 43.6835V47H53.1392ZM49.0197 47V41.06H50.2022V42.9025H50.3617V47H49.0197ZM56.0265 40.158V38.9425H57.352V40.158H56.0265ZM56.0265 47V41.06H57.352V47H56.0265ZM62.481 47C62.0887 47.0733 61.7037 47.1045 61.326 47.0935C60.952 47.0862 60.6165 47.0183 60.3195 46.89C60.0225 46.758 59.797 46.5508 59.643 46.2685C59.5073 46.0118 59.4358 45.7497 59.4285 45.482C59.4212 45.2143 59.4175 44.9118 59.4175 44.5745V39.41H60.7375V44.4975C60.7375 44.7358 60.7393 44.9448 60.743 45.1245C60.7503 45.3042 60.7888 45.4508 60.8585 45.5645C60.9905 45.7845 61.2013 45.9073 61.491 45.933C61.7807 45.9587 62.1107 45.944 62.481 45.889V47ZM58.3395 42.0995V41.06H62.481V42.0995H58.3395ZM65.4193 47.165C64.9903 47.165 64.6273 47.0843 64.3303 46.923C64.0333 46.758 63.8078 46.5398 63.6538 46.2685C63.5034 45.9972 63.4283 45.6983 63.4283 45.372C63.4283 45.086 63.4759 44.8293 63.5713 44.602C63.6666 44.371 63.8133 44.173 64.0113 44.008C64.2093 43.8393 64.4659 43.7018 64.7813 43.5955C65.0196 43.5185 65.2983 43.4488 65.6173 43.3865C65.9399 43.3242 66.2883 43.2673 66.6623 43.216C67.0399 43.161 67.4341 43.1023 67.8448 43.04L67.3718 43.3095C67.3754 42.8988 67.2838 42.5963 67.0968 42.402C66.9098 42.2077 66.5944 42.1105 66.1508 42.1105C65.8831 42.1105 65.6246 42.1728 65.3753 42.2975C65.1259 42.4222 64.9518 42.6367 64.8528 42.941L63.6428 42.5615C63.7894 42.0592 64.0681 41.6558 64.4788 41.3515C64.8931 41.0472 65.4504 40.895 66.1508 40.895C66.6788 40.895 67.1426 40.9812 67.5423 41.1535C67.9456 41.3258 68.2444 41.6082 68.4388 42.0005C68.5451 42.2095 68.6093 42.424 68.6313 42.644C68.6533 42.8603 68.6643 43.0968 68.6643 43.3535V47H67.5038V45.713L67.6963 45.922C67.4286 46.351 67.1151 46.6663 66.7558 46.868C66.4001 47.066 65.9546 47.165 65.4193 47.165ZM65.6833 46.109C65.9839 46.109 66.2406 46.0558 66.4533 45.9495C66.6659 45.8432 66.8346 45.713 66.9593 45.559C67.0876 45.405 67.1738 45.2602 67.2178 45.1245C67.2874 44.9558 67.3259 44.7633 67.3333 44.547C67.3443 44.327 67.3498 44.1492 67.3498 44.0135L67.7568 44.1345C67.3571 44.1968 67.0143 44.2518 66.7283 44.2995C66.4423 44.3472 66.1966 44.393 65.9913 44.437C65.7859 44.4773 65.6044 44.5232 65.4468 44.5745C65.2928 44.6295 65.1626 44.6937 65.0563 44.767C64.9499 44.8403 64.8674 44.9247 64.8088 45.02C64.7538 45.1153 64.7263 45.2272 64.7263 45.3555C64.7263 45.5022 64.7629 45.6323 64.8363 45.746C64.9096 45.856 65.0159 45.944 65.1553 46.01C65.2983 46.076 65.4743 46.109 65.6833 46.109ZM72.3897 47.165C71.6563 47.165 71.0605 47 70.6022 46.67C70.1438 46.34 69.8652 45.8762 69.7662 45.2785L71.1192 45.0695C71.1888 45.3628 71.3428 45.5938 71.5812 45.7625C71.8195 45.9312 72.1202 46.0155 72.4832 46.0155C72.8022 46.0155 73.0478 45.9532 73.2202 45.8285C73.3962 45.7002 73.4842 45.526 73.4842 45.306C73.4842 45.1703 73.4512 45.0622 73.3852 44.9815C73.3228 44.8972 73.1835 44.8165 72.9672 44.7395C72.7508 44.6625 72.419 44.5653 71.9717 44.448C71.473 44.316 71.077 44.1748 70.7837 44.0245C70.4903 43.8705 70.2795 43.689 70.1512 43.48C70.0228 43.271 69.9587 43.018 69.9587 42.721C69.9587 42.3507 70.0558 42.028 70.2502 41.753C70.4445 41.478 70.7158 41.2672 71.0642 41.1205C71.4125 40.9702 71.8232 40.895 72.2962 40.895C72.7582 40.895 73.167 40.9665 73.5227 41.1095C73.882 41.2525 74.1717 41.456 74.3917 41.72C74.6117 41.984 74.7473 42.2938 74.7987 42.6495L73.4457 42.8915C73.4127 42.6385 73.2972 42.4387 73.0992 42.292C72.9048 42.1453 72.6445 42.0628 72.3182 42.0445C72.0065 42.0262 71.7553 42.0738 71.5647 42.1875C71.374 42.2975 71.2787 42.4533 71.2787 42.655C71.2787 42.7687 71.3172 42.8658 71.3942 42.9465C71.4712 43.0272 71.6252 43.1078 71.8562 43.1885C72.0908 43.2692 72.4392 43.3682 72.9012 43.4855C73.3742 43.6065 73.7518 43.7458 74.0342 43.9035C74.3202 44.0575 74.5255 44.2427 74.6502 44.459C74.7785 44.6753 74.8427 44.9375 74.8427 45.2455C74.8427 45.8432 74.6245 46.3125 74.1882 46.6535C73.7555 46.9945 73.156 47.165 72.3897 47.165ZM80.1525 47V40.323H77.5895V39.08H84.041V40.323H81.478V47H80.1525ZM86.74 47.165C86.1387 47.165 85.6107 47.0348 85.156 46.7745C84.7014 46.5142 84.3457 46.153 84.089 45.691C83.836 45.229 83.7095 44.6973 83.7095 44.096C83.7095 43.447 83.8342 42.8842 84.0835 42.4075C84.3329 41.9272 84.6794 41.555 85.123 41.291C85.5667 41.027 86.08 40.895 86.663 40.895C87.279 40.895 87.8015 41.0398 88.2305 41.3295C88.6632 41.6155 88.984 42.0207 89.193 42.545C89.402 43.0693 89.4809 43.6872 89.4295 44.3985H88.115V43.9145C88.1114 43.2692 87.9977 42.798 87.774 42.501C87.5504 42.204 87.1984 42.0555 86.718 42.0555C86.1754 42.0555 85.772 42.2242 85.508 42.5615C85.244 42.8952 85.112 43.3847 85.112 44.03C85.112 44.6313 85.244 45.097 85.508 45.427C85.772 45.757 86.157 45.922 86.663 45.922C86.9894 45.922 87.2699 45.8505 87.5045 45.7075C87.7429 45.5608 87.9262 45.35 88.0545 45.075L89.3635 45.471C89.1362 46.0063 88.7842 46.4225 88.3075 46.7195C87.8345 47.0165 87.312 47.165 86.74 47.165ZM84.694 44.3985V43.3975H88.7805V44.3985H84.694ZM90.6567 47V41.06H91.8282V42.5065L91.6852 42.3195C91.7586 42.1215 91.8557 41.9418 91.9767 41.7805C92.1014 41.6155 92.2499 41.4798 92.4222 41.3735C92.5689 41.2745 92.7302 41.1975 92.9062 41.1425C93.0859 41.0838 93.2692 41.049 93.4562 41.038C93.6432 41.0233 93.8247 41.0307 94.0007 41.06V42.2975C93.8247 42.2462 93.6212 42.2297 93.3902 42.248C93.1629 42.2663 92.9576 42.3305 92.7742 42.4405C92.5909 42.5395 92.4406 42.666 92.3232 42.82C92.2096 42.974 92.1252 43.15 92.0702 43.348C92.0152 43.5423 91.9877 43.7532 91.9877 43.9805V47H90.6567ZM97.1289 47.165C96.3956 47.165 95.7998 47 95.3414 46.67C94.8831 46.34 94.6044 45.8762 94.5054 45.2785L95.8584 45.0695C95.9281 45.3628 96.0821 45.5938 96.3204 45.7625C96.5588 45.9312 96.8594 46.0155 97.2224 46.0155C97.5414 46.0155 97.7871 45.9532 97.9594 45.8285C98.1354 45.7002 98.2234 45.526 98.2234 45.306C98.2234 45.1703 98.1904 45.0622 98.1244 44.9815C98.0621 44.8972 97.9228 44.8165 97.7064 44.7395C97.4901 44.6625 97.1583 44.5653 96.7109 44.448C96.2123 44.316 95.8163 44.1748 95.5229 44.0245C95.2296 43.8705 95.0188 43.689 94.8904 43.48C94.7621 43.271 94.6979 43.018 94.6979 42.721C94.6979 42.3507 94.7951 42.028 94.9894 41.753C95.1838 41.478 95.4551 41.2672 95.8034 41.1205C96.1518 40.9702 96.5624 40.895 97.0354 40.895C97.4974 40.895 97.9063 40.9665 98.2619 41.1095C98.6213 41.2525 98.9109 41.456 99.1309 41.72C99.3509 41.984 99.4866 42.2938 99.5379 42.6495L98.1849 42.8915C98.1519 42.6385 98.0364 42.4387 97.8384 42.292C97.6441 42.1453 97.3838 42.0628 97.0574 42.0445C96.7458 42.0262 96.4946 42.0738 96.3039 42.1875C96.1133 42.2975 96.0179 42.4533 96.0179 42.655C96.0179 42.7687 96.0564 42.8658 96.1334 42.9465C96.2104 43.0272 96.3644 43.1078 96.5954 43.1885C96.8301 43.2692 97.1784 43.3682 97.6404 43.4855C98.1134 43.6065 98.4911 43.7458 98.7734 43.9035C99.0594 44.0575 99.2648 44.2427 99.3894 44.459C99.5178 44.6753 99.5819 44.9375 99.5819 45.2455C99.5819 45.8432 99.3638 46.3125 98.9274 46.6535C98.4948 46.9945 97.8953 47.165 97.1289 47.165ZM103.487 47.165C102.886 47.165 102.358 47.0348 101.903 46.7745C101.448 46.5142 101.093 46.153 100.836 45.691C100.583 45.229 100.457 44.6973 100.457 44.096C100.457 43.447 100.581 42.8842 100.831 42.4075C101.08 41.9272 101.426 41.555 101.87 41.291C102.314 41.027 102.827 40.895 103.41 40.895C104.026 40.895 104.549 41.0398 104.978 41.3295C105.41 41.6155 105.731 42.0207 105.94 42.545C106.149 43.0693 106.228 43.6872 106.177 44.3985H104.862V43.9145C104.858 43.2692 104.745 42.798 104.521 42.501C104.297 42.204 103.945 42.0555 103.465 42.0555C102.922 42.0555 102.519 42.2242 102.255 42.5615C101.991 42.8952 101.859 43.3847 101.859 44.03C101.859 44.6313 101.991 45.097 102.255 45.427C102.519 45.757 102.904 45.922 103.41 45.922C103.736 45.922 104.017 45.8505 104.252 45.7075C104.49 45.5608 104.673 45.35 104.802 45.075L106.111 45.471C105.883 46.0063 105.531 46.4225 105.055 46.7195C104.582 47.0165 104.059 47.165 103.487 47.165ZM101.441 44.3985V43.3975H105.528V44.3985H101.441ZM109.785 47.165C109.239 47.165 108.762 47.0275 108.355 46.7525C107.948 46.4775 107.633 46.1035 107.409 45.6305C107.186 45.1575 107.074 44.624 107.074 44.03C107.074 43.4287 107.186 42.8933 107.409 42.424C107.637 41.951 107.957 41.5788 108.372 41.3075C108.786 41.0325 109.274 40.895 109.835 40.895C110.399 40.895 110.872 41.0325 111.254 41.3075C111.639 41.5788 111.93 41.951 112.128 42.424C112.326 42.897 112.425 43.4323 112.425 44.03C112.425 44.6203 112.326 45.1538 112.128 45.6305C111.93 46.1035 111.635 46.4775 111.243 46.7525C110.85 47.0275 110.365 47.165 109.785 47.165ZM109.989 45.977C110.344 45.977 110.63 45.8963 110.847 45.735C111.067 45.57 111.226 45.3408 111.325 45.0475C111.428 44.7542 111.479 44.415 111.479 44.03C111.479 43.6413 111.428 43.3022 111.325 43.0125C111.226 42.7192 111.07 42.4918 110.858 42.3305C110.645 42.1655 110.37 42.083 110.033 42.083C109.677 42.083 109.384 42.171 109.153 42.347C108.922 42.5193 108.751 42.754 108.641 43.051C108.531 43.3443 108.476 43.6707 108.476 44.03C108.476 44.393 108.529 44.723 108.636 45.02C108.746 45.3133 108.913 45.5462 109.136 45.7185C109.36 45.8908 109.644 45.977 109.989 45.977ZM111.479 47V42.831H111.314V39.08H112.651V47H111.479ZM114.303 40.158V38.9425H115.628V40.158H114.303ZM114.303 47V41.06H115.628V47H114.303ZM118.937 47.165C118.508 47.165 118.145 47.0843 117.848 46.923C117.551 46.758 117.325 46.5398 117.171 46.2685C117.021 45.9972 116.946 45.6983 116.946 45.372C116.946 45.086 116.994 44.8293 117.089 44.602C117.184 44.371 117.331 44.173 117.529 44.008C117.727 43.8393 117.984 43.7018 118.299 43.5955C118.537 43.5185 118.816 43.4488 119.135 43.3865C119.458 43.3242 119.806 43.2673 120.18 43.216C120.558 43.161 120.952 43.1023 121.362 43.04L120.889 43.3095C120.893 42.8988 120.801 42.5963 120.614 42.402C120.427 42.2077 120.112 42.1105 119.668 42.1105C119.401 42.1105 119.142 42.1728 118.893 42.2975C118.644 42.4222 118.469 42.6367 118.37 42.941L117.16 42.5615C117.307 42.0592 117.586 41.6558 117.996 41.3515C118.411 41.0472 118.968 40.895 119.668 40.895C120.196 40.895 120.66 40.9812 121.06 41.1535C121.463 41.3258 121.762 41.6082 121.956 42.0005C122.063 42.2095 122.127 42.424 122.149 42.644C122.171 42.8603 122.182 43.0968 122.182 43.3535V47H121.021V45.713L121.214 45.922C120.946 46.351 120.633 46.6663 120.273 46.868C119.918 47.066 119.472 47.165 118.937 47.165ZM119.201 46.109C119.502 46.109 119.758 46.0558 119.971 45.9495C120.184 45.8432 120.352 45.713 120.477 45.559C120.605 45.405 120.691 45.2602 120.735 45.1245C120.805 44.9558 120.844 44.7633 120.851 44.547C120.862 44.327 120.867 44.1492 120.867 44.0135L121.274 44.1345C120.875 44.1968 120.532 44.2518 120.246 44.2995C119.96 44.3472 119.714 44.393 119.509 44.437C119.304 44.4773 119.122 44.5232 118.964 44.5745C118.81 44.6295 118.68 44.6937 118.574 44.767C118.468 44.8403 118.385 44.9247 118.326 45.02C118.271 45.1153 118.244 45.2272 118.244 45.3555C118.244 45.5022 118.281 45.6323 118.354 45.746C118.427 45.856 118.534 45.944 118.673 46.01C118.816 46.076 118.992 46.109 119.201 46.109Z" fill="#454545"/>
<path d="M19.656 64.116C19.2347 64.116 18.88 64.004 18.592 63.78C18.3067 63.556 18.1093 63.2547 18 62.876L18.828 62.68C18.8653 62.8587 18.96 63.012 19.112 63.14C19.2667 63.2653 19.4387 63.328 19.628 63.328C19.7533 63.328 19.884 63.296 20.02 63.232C20.156 63.168 20.2573 63.064 20.324 62.92C20.3693 62.824 20.396 62.7147 20.404 62.592C20.412 62.4667 20.416 62.3213 20.416 62.156V58.24H21.264V62.156C21.264 62.3267 21.2627 62.4787 21.26 62.612C21.26 62.7453 21.2467 62.8707 21.22 62.988C21.196 63.1053 21.148 63.2267 21.076 63.352C20.924 63.616 20.724 63.8093 20.476 63.932C20.228 64.0547 19.9547 64.116 19.656 64.116ZM24.3823 64.12C23.9529 64.12 23.5756 64.0267 23.2503 63.84C22.9276 63.6507 22.6756 63.388 22.4942 63.052C22.3156 62.7133 22.2263 62.3213 22.2263 61.876C22.2263 61.404 22.3143 60.9947 22.4903 60.648C22.6689 60.3013 22.9169 60.0333 23.2343 59.844C23.5516 59.6547 23.9209 59.56 24.3423 59.56C24.7823 59.56 25.1569 59.6627 25.4663 59.868C25.7756 60.0707 26.0063 60.36 26.1583 60.736C26.3129 61.112 26.3743 61.5587 26.3423 62.076H25.5063V61.772C25.5009 61.2707 25.4049 60.9 25.2183 60.66C25.0343 60.42 24.7529 60.3 24.3743 60.3C23.9556 60.3 23.6409 60.432 23.4303 60.696C23.2196 60.96 23.1143 61.3413 23.1143 61.84C23.1143 62.3147 23.2196 62.6827 23.4303 62.944C23.6409 63.2027 23.9449 63.332 24.3423 63.332C24.6036 63.332 24.8289 63.2733 25.0183 63.156C25.2103 63.036 25.3596 62.8653 25.4663 62.644L26.2863 62.904C26.1183 63.2907 25.8636 63.5907 25.5223 63.804C25.1809 64.0147 24.8009 64.12 24.3823 64.12ZM22.8423 62.076V61.424H25.9262V62.076H22.8423ZM27.3197 64V58.12H28.1557V64H27.3197ZM30.5769 64.12C30.2569 64.12 29.9889 64.0613 29.7729 63.944C29.5569 63.824 29.3929 63.6667 29.2809 63.472C29.1715 63.2747 29.1169 63.0587 29.1169 62.824C29.1169 62.6053 29.1555 62.4133 29.2329 62.248C29.3102 62.0827 29.4249 61.9427 29.5769 61.828C29.7289 61.7107 29.9155 61.616 30.1369 61.544C30.3289 61.488 30.5462 61.4387 30.7889 61.396C31.0315 61.3533 31.2862 61.3133 31.5529 61.276C31.8222 61.2387 32.0889 61.2013 32.3529 61.164L32.0489 61.332C32.0542 60.9933 31.9822 60.7427 31.8329 60.58C31.6862 60.4147 31.4329 60.332 31.0729 60.332C30.8462 60.332 30.6382 60.3853 30.4489 60.492C30.2595 60.596 30.1275 60.7693 30.0529 61.012L29.2729 60.772C29.3795 60.4013 29.5822 60.1067 29.8809 59.888C30.1822 59.6693 30.5822 59.56 31.0809 59.56C31.4675 59.56 31.8035 59.6267 32.0889 59.76C32.3769 59.8907 32.5875 60.0987 32.7209 60.384C32.7902 60.5253 32.8329 60.6747 32.8489 60.832C32.8649 60.9893 32.8729 61.1587 32.8729 61.34V64H32.1329V63.012L32.2769 63.14C32.0982 63.4707 31.8702 63.7173 31.5929 63.88C31.3182 64.04 30.9795 64.12 30.5769 64.12ZM30.7249 63.436C30.9622 63.436 31.1662 63.3947 31.3369 63.312C31.5075 63.2267 31.6449 63.1187 31.7489 62.988C31.8529 62.8573 31.9209 62.7213 31.9529 62.58C31.9982 62.452 32.0235 62.308 32.0289 62.148C32.0369 61.988 32.0409 61.86 32.0409 61.764L32.3129 61.864C32.0489 61.904 31.8089 61.94 31.5929 61.972C31.3769 62.004 31.1809 62.036 31.0049 62.068C30.8315 62.0973 30.6769 62.1333 30.5409 62.176C30.4262 62.216 30.3235 62.264 30.2329 62.32C30.1449 62.376 30.0742 62.444 30.0209 62.524C29.9702 62.604 29.9449 62.7013 29.9449 62.816C29.9449 62.928 29.9729 63.032 30.0289 63.128C30.0849 63.2213 30.1702 63.296 30.2849 63.352C30.3995 63.408 30.5462 63.436 30.7249 63.436ZM33.2716 65.92V65.128H33.4916C33.7129 65.128 33.8742 65.0747 33.9756 64.968C34.0796 64.8613 34.1316 64.6973 34.1316 64.476V59.68H34.9716V64.816C34.9716 65.168 34.8742 65.44 34.6796 65.632C34.4876 65.824 34.2116 65.92 33.8516 65.92H33.2716ZM34.1316 58.972V58.16H34.9716V58.972H34.1316ZM37.3347 64.12C37.0147 64.12 36.7467 64.0613 36.5307 63.944C36.3147 63.824 36.1507 63.6667 36.0387 63.472C35.9294 63.2747 35.8747 63.0587 35.8747 62.824C35.8747 62.6053 35.9134 62.4133 35.9907 62.248C36.068 62.0827 36.1827 61.9427 36.3347 61.828C36.4867 61.7107 36.6734 61.616 36.8947 61.544C37.0867 61.488 37.304 61.4387 37.5467 61.396C37.7894 61.3533 38.044 61.3133 38.3107 61.276C38.58 61.2387 38.8467 61.2013 39.1107 61.164L38.8067 61.332C38.812 60.9933 38.74 60.7427 38.5907 60.58C38.444 60.4147 38.1907 60.332 37.8307 60.332C37.604 60.332 37.396 60.3853 37.2067 60.492C37.0174 60.596 36.8854 60.7693 36.8107 61.012L36.0307 60.772C36.1374 60.4013 36.34 60.1067 36.6387 59.888C36.94 59.6693 37.34 59.56 37.8387 59.56C38.2254 59.56 38.5614 59.6267 38.8467 59.76C39.1347 59.8907 39.3454 60.0987 39.4787 60.384C39.548 60.5253 39.5907 60.6747 39.6067 60.832C39.6227 60.9893 39.6307 61.1587 39.6307 61.34V64H38.8907V63.012L39.0347 63.14C38.856 63.4707 38.628 63.7173 38.3507 63.88C38.076 64.04 37.7374 64.12 37.3347 64.12ZM37.4827 63.436C37.72 63.436 37.924 63.3947 38.0947 63.312C38.2654 63.2267 38.4027 63.1187 38.5067 62.988C38.6107 62.8573 38.6787 62.7213 38.7107 62.58C38.756 62.452 38.7814 62.308 38.7867 62.148C38.7947 61.988 38.7987 61.86 38.7987 61.764L39.0707 61.864C38.8067 61.904 38.5667 61.94 38.3507 61.972C38.1347 62.004 37.9387 62.036 37.7627 62.068C37.5894 62.0973 37.4347 62.1333 37.2987 62.176C37.184 62.216 37.0814 62.264 36.9907 62.32C36.9027 62.376 36.832 62.444 36.7787 62.524C36.728 62.604 36.7027 62.7013 36.7027 62.816C36.7027 62.928 36.7307 63.032 36.7867 63.128C36.8427 63.2213 36.928 63.296 37.0427 63.352C37.1574 63.408 37.304 63.436 37.4827 63.436ZM43.7014 64V61.876C43.7014 61.708 43.6867 61.536 43.6574 61.36C43.6307 61.1813 43.5774 61.016 43.4974 60.864C43.42 60.712 43.3094 60.5893 43.1654 60.496C43.024 60.4027 42.8387 60.356 42.6094 60.356C42.46 60.356 42.3187 60.3813 42.1854 60.432C42.052 60.48 41.9347 60.5587 41.8334 60.668C41.7347 60.7773 41.656 60.9213 41.5974 61.1C41.5414 61.2787 41.5134 61.496 41.5134 61.752L40.9934 61.556C40.9934 61.164 41.0667 60.8187 41.2134 60.52C41.36 60.2187 41.5707 59.984 41.8454 59.816C42.12 59.648 42.452 59.564 42.8414 59.564C43.14 59.564 43.3907 59.612 43.5934 59.708C43.796 59.804 43.96 59.9307 44.0854 60.088C44.2134 60.2427 44.3107 60.412 44.3774 60.596C44.444 60.78 44.4894 60.96 44.5134 61.136C44.5374 61.312 44.5494 61.4667 44.5494 61.6V64H43.7014ZM40.6654 64V58.24H41.4134V61.348H41.5134V64H40.6654ZM45.6713 58.972V58.16H46.5073V58.972H45.6713ZM45.6713 64V59.68H46.5073V64H45.6713ZM49.31 64V59.68H50.054V60.728L49.95 60.592C50.0033 60.4533 50.0727 60.3267 50.158 60.212C50.2433 60.0947 50.342 59.9987 50.454 59.924C50.5633 59.844 50.6847 59.7827 50.818 59.74C50.954 59.6947 51.0927 59.668 51.234 59.66C51.3753 59.6493 51.5113 59.656 51.642 59.68V60.464C51.5007 60.4267 51.3433 60.416 51.17 60.432C50.9993 60.448 50.842 60.5027 50.698 60.596C50.562 60.684 50.454 60.7907 50.374 60.916C50.2967 61.0413 50.2407 61.1813 50.206 61.336C50.1713 61.488 50.154 61.6493 50.154 61.82V64H49.31ZM52.4838 58.972V58.16H53.3198V58.972H52.4838ZM52.4838 64V59.68H53.3198V64H52.4838ZM56.5489 64.12C56.1356 64.12 55.7889 64.02 55.5089 63.82C55.2289 63.6173 55.0169 63.344 54.8729 63C54.7289 62.656 54.6569 62.268 54.6569 61.836C54.6569 61.404 54.7276 61.016 54.8689 60.672C55.0129 60.328 55.2236 60.0573 55.5009 59.86C55.7809 59.66 56.1249 59.56 56.5329 59.56C56.9383 59.56 57.2876 59.66 57.5809 59.86C57.8769 60.0573 58.1049 60.328 58.2649 60.672C58.4249 61.0133 58.5049 61.4013 58.5049 61.836C58.5049 62.268 58.4249 62.6573 58.2649 63.004C58.1076 63.348 57.8823 63.62 57.5889 63.82C57.2983 64.02 56.9516 64.12 56.5489 64.12ZM54.5169 64V58.24H55.3569V60.892H55.2609V64H54.5169ZM56.4329 63.364C56.6996 63.364 56.9196 63.296 57.0929 63.16C57.2689 63.024 57.3996 62.8413 57.4849 62.612C57.5729 62.38 57.6169 62.1213 57.6169 61.836C57.6169 61.5533 57.5729 61.2973 57.4849 61.068C57.3996 60.8387 57.2676 60.656 57.0889 60.52C56.9103 60.384 56.6823 60.316 56.4049 60.316C56.1436 60.316 55.9276 60.38 55.7569 60.508C55.5889 60.636 55.4636 60.8147 55.3809 61.044C55.3009 61.2733 55.2609 61.5373 55.2609 61.836C55.2609 62.1347 55.3009 62.3987 55.3809 62.628C55.4609 62.8573 55.5876 63.0373 55.7609 63.168C55.9343 63.2987 56.1583 63.364 56.4329 63.364ZM61.0161 64.116C60.7175 64.116 60.4668 64.068 60.2641 63.972C60.0615 63.876 59.8961 63.7507 59.7681 63.596C59.6428 63.4387 59.5468 63.268 59.4801 63.084C59.4135 62.9 59.3681 62.72 59.3441 62.544C59.3201 62.368 59.3081 62.2133 59.3081 62.08V59.68H60.1561V61.804C60.1561 61.972 60.1695 62.1453 60.1961 62.324C60.2255 62.5 60.2788 62.664 60.3561 62.816C60.4361 62.968 60.5468 63.0907 60.6881 63.184C60.8321 63.2773 61.0188 63.324 61.2481 63.324C61.3975 63.324 61.5388 63.3 61.6721 63.252C61.8055 63.2013 61.9215 63.1213 62.0201 63.012C62.1215 62.9027 62.2001 62.7587 62.2561 62.58C62.3148 62.4013 62.3441 62.184 62.3441 61.928L62.8641 62.124C62.8641 62.516 62.7908 62.8627 62.6441 63.164C62.4975 63.4627 62.2868 63.696 62.0121 63.864C61.7375 64.032 61.4055 64.116 61.0161 64.116ZM62.4441 64V62.752H62.3441V59.68H63.1881V64H62.4441ZM65.53 64.12C65.21 64.12 64.942 64.0613 64.726 63.944C64.51 63.824 64.346 63.6667 64.234 63.472C64.1247 63.2747 64.07 63.0587 64.07 62.824C64.07 62.6053 64.1087 62.4133 64.186 62.248C64.2633 62.0827 64.378 61.9427 64.53 61.828C64.682 61.7107 64.8687 61.616 65.09 61.544C65.282 61.488 65.4993 61.4387 65.742 61.396C65.9847 61.3533 66.2393 61.3133 66.506 61.276C66.7753 61.2387 67.042 61.2013 67.306 61.164L67.002 61.332C67.0073 60.9933 66.9353 60.7427 66.786 60.58C66.6393 60.4147 66.386 60.332 66.026 60.332C65.7993 60.332 65.5913 60.3853 65.402 60.492C65.2127 60.596 65.0807 60.7693 65.006 61.012L64.226 60.772C64.3327 60.4013 64.5353 60.1067 64.834 59.888C65.1353 59.6693 65.5353 59.56 66.034 59.56C66.4207 59.56 66.7567 59.6267 67.042 59.76C67.33 59.8907 67.5407 60.0987 67.674 60.384C67.7433 60.5253 67.786 60.6747 67.802 60.832C67.818 60.9893 67.826 61.1587 67.826 61.34V64H67.086V63.012L67.23 63.14C67.0513 63.4707 66.8233 63.7173 66.546 63.88C66.2713 64.04 65.9327 64.12 65.53 64.12ZM65.678 63.436C65.9153 63.436 66.1193 63.3947 66.29 63.312C66.4607 63.2267 66.598 63.1187 66.702 62.988C66.806 62.8573 66.874 62.7213 66.906 62.58C66.9513 62.452 66.9767 62.308 66.982 62.148C66.99 61.988 66.994 61.86 66.994 61.764L67.266 61.864C67.002 61.904 66.762 61.94 66.546 61.972C66.33 62.004 66.134 62.036 65.958 62.068C65.7847 62.0973 65.63 62.1333 65.494 62.176C65.3793 62.216 65.2767 62.264 65.186 62.32C65.098 62.376 65.0273 62.444 64.974 62.524C64.9233 62.604 64.898 62.7013 64.898 62.816C64.898 62.928 64.926 63.032 64.982 63.128C65.038 63.2213 65.1233 63.296 65.238 63.352C65.3527 63.408 65.4993 63.436 65.678 63.436ZM71.8967 64V61.876C71.8967 61.708 71.882 61.536 71.8527 61.36C71.826 61.1813 71.7727 61.016 71.6927 60.864C71.6154 60.712 71.5047 60.5893 71.3607 60.496C71.2194 60.4027 71.034 60.356 70.8047 60.356C70.6554 60.356 70.514 60.3813 70.3807 60.432C70.2474 60.48 70.13 60.5587 70.0287 60.668C69.93 60.7773 69.8514 60.9213 69.7927 61.1C69.7367 61.2787 69.7087 61.496 69.7087 61.752L69.1887 61.556C69.1887 61.164 69.262 60.8187 69.4087 60.52C69.5554 60.2187 69.766 59.984 70.0407 59.816C70.3154 59.648 70.6474 59.564 71.0367 59.564C71.3354 59.564 71.586 59.612 71.7887 59.708C71.9914 59.804 72.1554 59.9307 72.2807 60.088C72.4087 60.2427 72.506 60.412 72.5727 60.596C72.6394 60.78 72.6847 60.96 72.7087 61.136C72.7327 61.312 72.7447 61.4667 72.7447 61.6V64H71.8967ZM68.8607 64V59.68H69.6087V60.928H69.7087V64H68.8607ZM75.3841 64L75.3881 58.24H76.2361V61.76L77.9321 59.68H78.9961L77.2041 61.84L79.1801 64H78.0441L76.2361 61.92V64H75.3841ZM81.3813 64.12C80.9493 64.12 80.5746 64.0227 80.2573 63.828C79.94 63.6333 79.6946 63.3653 79.5213 63.024C79.3506 62.68 79.2653 62.284 79.2653 61.836C79.2653 61.3853 79.3533 60.9893 79.5293 60.648C79.7053 60.304 79.952 60.0373 80.2693 59.848C80.5866 59.656 80.9573 59.56 81.3813 59.56C81.8133 59.56 82.188 59.6573 82.5053 59.852C82.8226 60.0467 83.068 60.3147 83.2413 60.656C83.4146 60.9973 83.5013 61.3907 83.5013 61.836C83.5013 62.2867 83.4133 62.684 83.2373 63.028C83.064 63.3693 82.8186 63.6373 82.5013 63.832C82.184 64.024 81.8106 64.12 81.3813 64.12ZM81.3813 63.332C81.7946 63.332 82.1026 63.1933 82.3053 62.916C82.5106 62.636 82.6133 62.276 82.6133 61.836C82.6133 61.3853 82.5093 61.0253 82.3013 60.756C82.096 60.484 81.7893 60.348 81.3813 60.348C81.1013 60.348 80.8706 60.412 80.6893 60.54C80.508 60.6653 80.3733 60.84 80.2853 61.064C80.1973 61.2853 80.1533 61.5427 80.1533 61.836C80.1533 62.2893 80.2573 62.652 80.4653 62.924C80.6733 63.196 80.9786 63.332 81.3813 63.332ZM89.5563 64L89.5603 61.308C89.5603 60.996 89.4803 60.7533 89.3203 60.58C89.1603 60.404 88.9496 60.316 88.6883 60.316C88.5283 60.316 88.3816 60.3533 88.2483 60.428C88.1176 60.5 88.011 60.6093 87.9283 60.756C87.8483 60.9 87.8083 61.0813 87.8083 61.3L87.4043 61.096C87.399 60.792 87.463 60.5253 87.5963 60.296C87.7323 60.0667 87.9163 59.8893 88.1483 59.764C88.3803 59.636 88.6403 59.572 88.9283 59.572C89.395 59.572 89.7563 59.712 90.0123 59.992C90.2683 60.272 90.3963 60.644 90.3963 61.108L90.3923 64H89.5563ZM84.3763 64V59.68H85.1203V60.928H85.2163V64H84.3763ZM86.9683 64L86.9723 61.324C86.9723 61.0093 86.8923 60.7627 86.7323 60.584C86.575 60.4053 86.363 60.316 86.0963 60.316C85.8323 60.316 85.619 60.4067 85.4563 60.588C85.2963 60.7693 85.2163 61.0067 85.2163 61.3L84.8163 61.044C84.8163 60.7613 84.8843 60.5093 85.0203 60.288C85.1563 60.0667 85.3403 59.892 85.5723 59.764C85.8043 59.636 86.067 59.572 86.3603 59.572C86.667 59.572 86.9283 59.6373 87.1443 59.768C87.3603 59.896 87.5243 60.076 87.6363 60.308C87.751 60.54 87.8083 60.8093 87.8083 61.116L87.8043 64H86.9683ZM93.063 64.116C92.7643 64.116 92.5137 64.068 92.311 63.972C92.1083 63.876 91.943 63.7507 91.815 63.596C91.6897 63.4387 91.5937 63.268 91.527 63.084C91.4603 62.9 91.415 62.72 91.391 62.544C91.367 62.368 91.355 62.2133 91.355 62.08V59.68H92.203V61.804C92.203 61.972 92.2163 62.1453 92.243 62.324C92.2723 62.5 92.3257 62.664 92.403 62.816C92.483 62.968 92.5937 63.0907 92.735 63.184C92.879 63.2773 93.0657 63.324 93.295 63.324C93.4443 63.324 93.5857 63.3 93.719 63.252C93.8523 63.2013 93.9683 63.1213 94.067 63.012C94.1683 62.9027 94.247 62.7587 94.303 62.58C94.3617 62.4013 94.391 62.184 94.391 61.928L94.911 62.124C94.911 62.516 94.8377 62.8627 94.691 63.164C94.5443 63.4627 94.3337 63.696 94.059 63.864C93.7843 64.032 93.4523 64.116 93.063 64.116ZM94.491 64V62.752H94.391V59.68H95.235V64H94.491ZM99.3889 64V61.876C99.3889 61.708 99.3742 61.536 99.3449 61.36C99.3182 61.1813 99.2649 61.016 99.1849 60.864C99.1075 60.712 98.9969 60.5893 98.8529 60.496C98.7115 60.4027 98.5262 60.356 98.2969 60.356C98.1475 60.356 98.0062 60.3813 97.8729 60.432C97.7395 60.48 97.6222 60.5587 97.5209 60.668C97.4222 60.7773 97.3435 60.9213 97.2849 61.1C97.2289 61.2787 97.2009 61.496 97.2009 61.752L96.6809 61.556C96.6809 61.164 96.7542 60.8187 96.9009 60.52C97.0475 60.2187 97.2582 59.984 97.5329 59.816C97.8075 59.648 98.1395 59.564 98.5289 59.564C98.8275 59.564 99.0782 59.612 99.2809 59.708C99.4835 59.804 99.6475 59.9307 99.7729 60.088C99.9009 60.2427 99.9982 60.412 100.065 60.596C100.132 60.78 100.177 60.96 100.201 61.136C100.225 61.312 100.237 61.4667 100.237 61.6V64H99.3889ZM96.3529 64V59.68H97.1009V60.928H97.2009V64H96.3529ZM101.359 58.972V58.16H102.195V58.972H101.359ZM101.359 64V59.68H102.195V64H101.359ZM105.868 64C105.596 64.0533 105.329 64.076 105.068 64.068C104.807 64.06 104.573 64.0093 104.368 63.916C104.163 63.8227 104.008 63.676 103.904 63.476C103.811 63.2973 103.76 63.116 103.752 62.932C103.747 62.7453 103.744 62.5347 103.744 62.3V58.48H104.584V62.26C104.584 62.4333 104.585 62.584 104.588 62.712C104.593 62.84 104.621 62.948 104.672 63.036C104.768 63.2013 104.92 63.296 105.128 63.32C105.339 63.3413 105.585 63.332 105.868 63.292V64ZM102.916 60.352V59.68H105.868V60.352H102.916ZM107.999 64.12C107.679 64.12 107.411 64.0613 107.195 63.944C106.979 63.824 106.815 63.6667 106.703 63.472C106.593 63.2747 106.539 63.0587 106.539 62.824C106.539 62.6053 106.577 62.4133 106.655 62.248C106.732 62.0827 106.847 61.9427 106.999 61.828C107.151 61.7107 107.337 61.616 107.559 61.544C107.751 61.488 107.968 61.4387 108.211 61.396C108.453 61.3533 108.708 61.3133 108.975 61.276C109.244 61.2387 109.511 61.2013 109.775 61.164L109.471 61.332C109.476 60.9933 109.404 60.7427 109.255 60.58C109.108 60.4147 108.855 60.332 108.495 60.332C108.268 60.332 108.06 60.3853 107.871 60.492C107.681 60.596 107.549 60.7693 107.475 61.012L106.695 60.772C106.801 60.4013 107.004 60.1067 107.303 59.888C107.604 59.6693 108.004 59.56 108.503 59.56C108.889 59.56 109.225 59.6267 109.511 59.76C109.799 59.8907 110.009 60.0987 110.143 60.384C110.212 60.5253 110.255 60.6747 110.271 60.832C110.287 60.9893 110.295 61.1587 110.295 61.34V64H109.555V63.012L109.699 63.14C109.52 63.4707 109.292 63.7173 109.015 63.88C108.74 64.04 108.401 64.12 107.999 64.12ZM108.147 63.436C108.384 63.436 108.588 63.3947 108.759 63.312C108.929 63.2267 109.067 63.1187 109.171 62.988C109.275 62.8573 109.343 62.7213 109.375 62.58C109.42 62.452 109.445 62.308 109.451 62.148C109.459 61.988 109.463 61.86 109.463 61.764L109.735 61.864C109.471 61.904 109.231 61.94 109.015 61.972C108.799 62.004 108.603 62.036 108.427 62.068C108.253 62.0973 108.099 62.1333 107.963 62.176C107.848 62.216 107.745 62.264 107.655 62.32C107.567 62.376 107.496 62.444 107.443 62.524C107.392 62.604 107.367 62.7013 107.367 62.816C107.367 62.928 107.395 63.032 107.451 63.128C107.507 63.2213 107.592 63.296 107.707 63.352C107.821 63.408 107.968 63.436 108.147 63.436ZM112.985 64.116C112.46 64.116 112.032 64 111.701 63.768C111.371 63.536 111.168 63.2093 111.093 62.788L111.949 62.656C112.003 62.88 112.125 63.0573 112.317 63.188C112.512 63.316 112.753 63.38 113.041 63.38C113.303 63.38 113.507 63.3267 113.653 63.22C113.803 63.1133 113.877 62.9667 113.877 62.78C113.877 62.6707 113.851 62.5827 113.797 62.516C113.747 62.4467 113.639 62.3813 113.473 62.32C113.308 62.2587 113.056 62.1827 112.717 62.092C112.347 61.996 112.052 61.8933 111.833 61.784C111.617 61.672 111.463 61.5427 111.369 61.396C111.279 61.2467 111.233 61.0667 111.233 60.856C111.233 60.5947 111.303 60.3667 111.441 60.172C111.58 59.9773 111.775 59.8267 112.025 59.72C112.279 59.6133 112.575 59.56 112.913 59.56C113.244 59.56 113.539 59.612 113.797 59.716C114.056 59.82 114.265 59.968 114.425 60.16C114.585 60.3493 114.681 60.572 114.713 60.828L113.857 60.984C113.828 60.776 113.731 60.612 113.565 60.492C113.4 60.372 113.185 60.3067 112.921 60.296C112.668 60.2853 112.463 60.328 112.305 60.424C112.148 60.5173 112.069 60.6467 112.069 60.812C112.069 60.908 112.099 60.9893 112.157 61.056C112.219 61.1227 112.336 61.1867 112.509 61.248C112.683 61.3093 112.939 61.3827 113.277 61.468C113.64 61.5613 113.928 61.6653 114.141 61.78C114.355 61.892 114.507 62.0267 114.597 62.184C114.691 62.3387 114.737 62.5267 114.737 62.748C114.737 63.1747 114.581 63.5093 114.269 63.752C113.96 63.9947 113.532 64.116 112.985 64.116ZM117.808 65.92L118.644 63.644L118.656 64.316L116.772 59.68H117.644L119.052 63.26H118.796L120.14 59.68H120.988L118.604 65.92H117.808ZM122.678 64.12C122.358 64.12 122.09 64.0613 121.874 63.944C121.658 63.824 121.494 63.6667 121.382 63.472C121.273 63.2747 121.218 63.0587 121.218 62.824C121.218 62.6053 121.257 62.4133 121.334 62.248C121.412 62.0827 121.526 61.9427 121.678 61.828C121.83 61.7107 122.017 61.616 122.238 61.544C122.43 61.488 122.648 61.4387 122.89 61.396C123.133 61.3533 123.388 61.3133 123.654 61.276C123.924 61.2387 124.19 61.2013 124.454 61.164L124.15 61.332C124.156 60.9933 124.084 60.7427 123.934 60.58C123.788 60.4147 123.534 60.332 123.174 60.332C122.948 60.332 122.74 60.3853 122.55 60.492C122.361 60.596 122.229 60.7693 122.154 61.012L121.374 60.772C121.481 60.4013 121.684 60.1067 121.982 59.888C122.284 59.6693 122.684 59.56 123.182 59.56C123.569 59.56 123.905 59.6267 124.19 59.76C124.478 59.8907 124.689 60.0987 124.822 60.384C124.892 60.5253 124.934 60.6747 124.95 60.832C124.966 60.9893 124.974 61.1587 124.974 61.34V64H124.234V63.012L124.378 63.14C124.2 63.4707 123.972 63.7173 123.694 63.88C123.42 64.04 123.081 64.12 122.678 64.12ZM122.826 63.436C123.064 63.436 123.268 63.3947 123.438 63.312C123.609 63.2267 123.746 63.1187 123.85 62.988C123.954 62.8573 124.022 62.7213 124.054 62.58C124.1 62.452 124.125 62.308 124.13 62.148C124.138 61.988 124.142 61.86 124.142 61.764L124.414 61.864C124.15 61.904 123.91 61.94 123.694 61.972C123.478 62.004 123.282 62.036 123.106 62.068C122.933 62.0973 122.778 62.1333 122.642 62.176C122.528 62.216 122.425 62.264 122.334 62.32C122.246 62.376 122.176 62.444 122.122 62.524C122.072 62.604 122.046 62.7013 122.046 62.816C122.046 62.928 122.074 63.032 122.13 63.128C122.186 63.2213 122.272 63.296 122.386 63.352C122.501 63.408 122.648 63.436 122.826 63.436ZM129.045 64V61.876C129.045 61.708 129.03 61.536 129.001 61.36C128.974 61.1813 128.921 61.016 128.841 60.864C128.764 60.712 128.653 60.5893 128.509 60.496C128.368 60.4027 128.182 60.356 127.953 60.356C127.804 60.356 127.662 60.3813 127.529 60.432C127.396 60.48 127.278 60.5587 127.177 60.668C127.078 60.7773 127 60.9213 126.941 61.1C126.885 61.2787 126.857 61.496 126.857 61.752L126.337 61.556C126.337 61.164 126.41 60.8187 126.557 60.52C126.704 60.2187 126.914 59.984 127.189 59.816C127.464 59.648 127.796 59.564 128.185 59.564C128.484 59.564 128.734 59.612 128.937 59.708C129.14 59.804 129.304 59.9307 129.429 60.088C129.557 60.2427 129.654 60.412 129.721 60.596C129.788 60.78 129.833 60.96 129.857 61.136C129.881 61.312 129.893 61.4667 129.893 61.6V64H129.045ZM126.009 64V59.68H126.757V60.928H126.857V64H126.009ZM132.715 66.04C132.483 66.04 132.258 66.004 132.039 65.932C131.823 65.86 131.626 65.7533 131.447 65.612C131.268 65.4733 131.12 65.3013 131.003 65.096L131.775 64.704C131.868 64.888 132.002 65.0227 132.175 65.108C132.348 65.1933 132.531 65.236 132.723 65.236C132.96 65.236 133.163 65.1933 133.331 65.108C133.499 65.0253 133.626 64.9 133.711 64.732C133.799 64.564 133.842 64.356 133.839 64.108V62.9H133.939V59.68H134.679V64.116C134.679 64.2307 134.675 64.34 134.667 64.444C134.659 64.548 134.644 64.652 134.623 64.756C134.562 65.0467 134.444 65.2867 134.271 65.476C134.1 65.6653 133.882 65.8067 133.615 65.9C133.351 65.9933 133.051 66.04 132.715 66.04ZM132.651 64.12C132.248 64.12 131.9 64.02 131.607 63.82C131.316 63.62 131.091 63.348 130.931 63.004C130.774 62.6573 130.695 62.268 130.695 61.836C130.695 61.4013 130.775 61.0133 130.935 60.672C131.095 60.328 131.322 60.0573 131.615 59.86C131.911 59.66 132.262 59.56 132.667 59.56C133.075 59.56 133.418 59.66 133.695 59.86C133.975 60.0573 134.186 60.328 134.327 60.672C134.471 61.016 134.543 61.404 134.543 61.836C134.543 62.268 134.471 62.656 134.327 63C134.183 63.344 133.971 63.6173 133.691 63.82C133.411 64.02 133.064 64.12 132.651 64.12ZM132.767 63.364C133.042 63.364 133.266 63.2987 133.439 63.168C133.612 63.0373 133.739 62.8573 133.819 62.628C133.899 62.3987 133.939 62.1347 133.939 61.836C133.939 61.5373 133.898 61.2733 133.815 61.044C133.735 60.8147 133.61 60.636 133.439 60.508C133.271 60.38 133.056 60.316 132.795 60.316C132.518 60.316 132.29 60.384 132.111 60.52C131.932 60.656 131.799 60.8387 131.711 61.068C131.626 61.2973 131.583 61.5533 131.583 61.836C131.583 62.1213 131.626 62.38 131.711 62.612C131.799 62.8413 131.93 63.024 132.103 63.16C132.279 63.296 132.5 63.364 132.767 63.364ZM138.624 64.12C138.304 64.12 138.036 64.0613 137.82 63.944C137.604 63.824 137.44 63.6667 137.328 63.472C137.218 63.2747 137.164 63.0587 137.164 62.824C137.164 62.6053 137.202 62.4133 137.28 62.248C137.357 62.0827 137.472 61.9427 137.624 61.828C137.776 61.7107 137.962 61.616 138.184 61.544C138.376 61.488 138.593 61.4387 138.836 61.396C139.078 61.3533 139.333 61.3133 139.6 61.276C139.869 61.2387 140.136 61.2013 140.4 61.164L140.096 61.332C140.101 60.9933 140.029 60.7427 139.88 60.58C139.733 60.4147 139.48 60.332 139.12 60.332C138.893 60.332 138.685 60.3853 138.496 60.492C138.306 60.596 138.174 60.7693 138.1 61.012L137.32 60.772C137.426 60.4013 137.629 60.1067 137.928 59.888C138.229 59.6693 138.629 59.56 139.128 59.56C139.514 59.56 139.85 59.6267 140.136 59.76C140.424 59.8907 140.634 60.0987 140.768 60.384C140.837 60.5253 140.88 60.6747 140.896 60.832C140.912 60.9893 140.92 61.1587 140.92 61.34V64H140.18V63.012L140.324 63.14C140.145 63.4707 139.917 63.7173 139.64 63.88C139.365 64.04 139.026 64.12 138.624 64.12ZM138.772 63.436C139.009 63.436 139.213 63.3947 139.384 63.312C139.554 63.2267 139.692 63.1187 139.796 62.988C139.9 62.8573 139.968 62.7213 140 62.58C140.045 62.452 140.07 62.308 140.076 62.148C140.084 61.988 140.088 61.86 140.088 61.764L140.36 61.864C140.096 61.904 139.856 61.94 139.64 61.972C139.424 62.004 139.228 62.036 139.052 62.068C138.878 62.0973 138.724 62.1333 138.588 62.176C138.473 62.216 138.37 62.264 138.28 62.32C138.192 62.376 138.121 62.444 138.068 62.524C138.017 62.604 137.992 62.7013 137.992 62.816C137.992 62.928 138.02 63.032 138.076 63.128C138.132 63.2213 138.217 63.296 138.332 63.352C138.446 63.408 138.593 63.436 138.772 63.436ZM143.674 64.12C143.272 64.12 142.924 64.02 142.63 63.82C142.34 63.62 142.114 63.348 141.954 63.004C141.797 62.6573 141.718 62.268 141.718 61.836C141.718 61.4013 141.798 61.0133 141.958 60.672C142.118 60.328 142.345 60.0573 142.638 59.86C142.934 59.66 143.285 59.56 143.69 59.56C144.098 59.56 144.441 59.66 144.718 59.86C144.998 60.0573 145.209 60.328 145.35 60.672C145.494 61.016 145.566 61.404 145.566 61.836C145.566 62.268 145.494 62.656 145.35 63C145.206 63.344 144.994 63.6173 144.714 63.82C144.434 64.02 144.088 64.12 143.674 64.12ZM143.79 63.364C144.065 63.364 144.289 63.2987 144.462 63.168C144.636 63.0373 144.762 62.8573 144.842 62.628C144.922 62.3987 144.962 62.1347 144.962 61.836C144.962 61.5373 144.921 61.2733 144.838 61.044C144.758 60.8147 144.633 60.636 144.462 60.508C144.294 60.38 144.08 60.316 143.818 60.316C143.541 60.316 143.313 60.384 143.134 60.52C142.956 60.656 142.822 60.8387 142.734 61.068C142.649 61.2973 142.606 61.5533 142.606 61.836C142.606 62.1213 142.649 62.38 142.734 62.612C142.822 62.8413 142.953 63.024 143.126 63.16C143.302 63.296 143.524 63.364 143.79 63.364ZM144.962 64V60.892H144.866V58.24H145.706V64H144.962ZM148.046 64.12C147.726 64.12 147.458 64.0613 147.242 63.944C147.026 63.824 146.862 63.6667 146.75 63.472C146.64 63.2747 146.586 63.0587 146.586 62.824C146.586 62.6053 146.624 62.4133 146.702 62.248C146.779 62.0827 146.894 61.9427 147.046 61.828C147.198 61.7107 147.384 61.616 147.606 61.544C147.798 61.488 148.015 61.4387 148.258 61.396C148.5 61.3533 148.755 61.3133 149.022 61.276C149.291 61.2387 149.558 61.2013 149.822 61.164L149.518 61.332C149.523 60.9933 149.451 60.7427 149.302 60.58C149.155 60.4147 148.902 60.332 148.542 60.332C148.315 60.332 148.107 60.3853 147.918 60.492C147.728 60.596 147.596 60.7693 147.522 61.012L146.742 60.772C146.848 60.4013 147.051 60.1067 147.35 59.888C147.651 59.6693 148.051 59.56 148.55 59.56C148.936 59.56 149.272 59.6267 149.558 59.76C149.846 59.8907 150.056 60.0987 150.19 60.384C150.259 60.5253 150.302 60.6747 150.318 60.832C150.334 60.9893 150.342 61.1587 150.342 61.34V64H149.602V63.012L149.746 63.14C149.567 63.4707 149.339 63.7173 149.062 63.88C148.787 64.04 148.448 64.12 148.046 64.12ZM148.194 63.436C148.431 63.436 148.635 63.3947 148.806 63.312C148.976 63.2267 149.114 63.1187 149.218 62.988C149.322 62.8573 149.39 62.7213 149.422 62.58C149.467 62.452 149.492 62.308 149.498 62.148C149.506 61.988 149.51 61.86 149.51 61.764L149.782 61.864C149.518 61.904 149.278 61.94 149.062 61.972C148.846 62.004 148.65 62.036 148.474 62.068C148.3 62.0973 148.146 62.1333 148.01 62.176C147.895 62.216 147.792 62.264 147.702 62.32C147.614 62.376 147.543 62.444 147.49 62.524C147.439 62.604 147.414 62.7013 147.414 62.816C147.414 62.928 147.442 63.032 147.498 63.128C147.554 63.2213 147.639 63.296 147.754 63.352C147.868 63.408 148.015 63.436 148.194 63.436Z" fill="#8A8A8A"/>
</svg>
