<svg width="53" height="53" viewBox="0 0 53 53" fill="none" xmlns="http://www.w3.org/2000/svg">
<rect width="53" height="53" rx="16" fill="white"/>
<path d="M11.68 36V18.72H14.944V25.824H22.672V18.72H25.936V36H22.672V28.872H14.944V36H11.68ZM35.173 36.36C33.989 36.36 32.921 36.164 31.969 35.772C31.025 35.38 30.241 34.824 29.617 34.104C29.001 33.384 28.589 32.528 28.381 31.536L29.797 31.296C30.093 32.448 30.725 33.356 31.693 34.02C32.669 34.684 33.841 35.016 35.209 35.016C36.137 35.016 36.957 34.868 37.669 34.572C38.381 34.276 38.937 33.86 39.337 33.324C39.737 32.78 39.937 32.148 39.937 31.428C39.937 30.908 39.841 30.472 39.649 30.12C39.465 29.768 39.225 29.48 38.929 29.256C38.633 29.024 38.317 28.84 37.981 28.704C37.645 28.56 37.329 28.444 37.033 28.356L32.689 27.06C32.113 26.892 31.597 26.684 31.141 26.436C30.693 26.18 30.313 25.888 30.001 25.56C29.697 25.224 29.461 24.844 29.293 24.42C29.133 23.996 29.053 23.524 29.053 23.004C29.053 22.076 29.301 21.264 29.797 20.568C30.293 19.872 30.973 19.332 31.837 18.948C32.709 18.556 33.709 18.36 34.837 18.36C35.973 18.368 36.993 18.58 37.897 18.996C38.801 19.404 39.541 19.984 40.117 20.736C40.701 21.488 41.077 22.38 41.245 23.412L39.817 23.664C39.705 22.872 39.417 22.18 38.953 21.588C38.497 20.996 37.913 20.536 37.201 20.208C36.489 19.88 35.697 19.716 34.825 19.716C33.985 19.708 33.241 19.848 32.593 20.136C31.953 20.424 31.449 20.812 31.081 21.3C30.713 21.788 30.529 22.34 30.529 22.956C30.529 23.596 30.701 24.108 31.045 24.492C31.397 24.868 31.825 25.164 32.329 25.38C32.841 25.596 33.329 25.772 33.793 25.908L37.273 26.94C37.601 27.036 37.993 27.172 38.449 27.348C38.905 27.524 39.353 27.776 39.793 28.104C40.233 28.424 40.597 28.852 40.885 29.388C41.181 29.916 41.329 30.58 41.329 31.38C41.329 32.156 41.181 32.852 40.885 33.468C40.589 34.084 40.165 34.608 39.613 35.04C39.061 35.464 38.409 35.788 37.657 36.012C36.905 36.244 36.077 36.36 35.173 36.36Z" fill="#454545"/>
</svg>
